<?xml version="1.0" standalone="no"?>
<!DOCTYPE svg PUBLIC "-//W3C//DTD SVG 20010904//EN"
 "http://www.w3.org/TR/2001/REC-SVG-20010904/DTD/svg10.dtd">
<svg version="1.0" xmlns="http://www.w3.org/2000/svg"
 width="1280.000000pt" height="640.000000pt" viewBox="0 0 1280.000000 640.000000"
 preserveAspectRatio="xMidYMid meet">
<metadata>
Created by potrace 1.15, written by Peter Selinger 2001-2017
</metadata>
<g transform="translate(0.000000,640.000000) scale(0.100000,-0.100000)"
fill="#000000" stroke="none">
<path d="M2630 4154 c-109 -47 -147 -172 -90 -300 19 -43 39 -62 157 -144 72
-50 180 -164 234 -249 15 -24 33 -67 39 -95 48 -234 225 -107 222 160 -3 262
-177 565 -361 629 -56 19 -155 19 -201 -1z"/>
<path d="M9255 4136 c-110 -29 -188 -77 -299 -185 -179 -174 -276 -391 -248
-559 13 -75 32 -109 68 -118 44 -11 90 19 125 81 38 68 94 118 212 189 94 56
147 79 273 115 88 26 130 54 171 114 70 105 66 215 -12 293 -67 67 -190 97
-290 70z"/>
<path d="M4163 3986 c-195 -45 -331 -177 -363 -355 -19 -104 9 -198 81 -276
82 -89 157 -115 369 -125 138 -6 178 -12 243 -34 192 -65 299 -190 301 -352 1
-156 -108 -284 -298 -348 -145 -49 -452 -104 -646 -116 -230 -13 -344 3 -647
93 -218 65 -264 70 -613 73 -279 2 -327 4 -420 24 -198 41 -327 101 -468 219
-439 367 -764 507 -1033 447 -182 -41 -279 -146 -279 -301 1 -95 53 -166 147
-199 23 -8 90 -22 150 -31 117 -19 174 -41 199 -80 36 -54 -5 -133 -91 -177
-31 -16 -71 -23 -175 -30 -250 -16 -504 -87 -600 -167 l-25 -20 6394 -1 c3517
0 6392 2 6390 4 -2 2 -67 20 -144 41 -190 49 -287 84 -505 178 -403 173 -496
205 -676 228 -156 19 -305 0 -484 -63 -49 -17 -107 -30 -136 -30 -89 -1 -162
51 -184 131 -29 107 55 195 211 221 35 6 119 19 187 30 195 32 298 81 352 167
36 56 47 92 60 193 26 193 -56 334 -251 435 -252 130 -558 130 -893 -2 -283
-111 -573 -295 -944 -601 -103 -84 -222 -180 -264 -213 -292 -225 -629 -383
-973 -456 -113 -23 -153 -27 -305 -28 -209 0 -213 1 -445 119 -206 106 -286
127 -510 133 -124 4 -208 0 -370 -17 -427 -46 -660 -9 -886 139 -168 111 -254
210 -500 577 -245 365 -360 478 -558 547 -74 26 -103 31 -211 33 -83 3 -146
-1 -187 -10z"/>
<path d="M8085 3958 c-77 -28 -155 -108 -211 -218 -22 -43 -28 -69 -28 -120 0
-81 15 -112 52 -108 20 2 33 14 50 45 31 56 114 120 204 159 85 36 118 74 118
136 0 54 -14 76 -63 99 -47 21 -78 23 -122 7z"/>
<path d="M5655 3929 c-105 -60 -148 -119 -172 -235 -13 -64 -14 -91 -4 -158
35 -252 171 -480 332 -556 100 -47 159 -38 175 27 5 19 -3 45 -30 97 -20 40
-41 98 -46 131 -17 102 -12 256 11 358 12 53 19 112 16 139 -5 58 -46 129
-100 172 -31 25 -48 31 -100 33 -34 2 -71 -2 -82 -8z"/>
<path d="M335 3881 c-104 -54 -114 -174 -18 -236 23 -15 51 -19 168 -20 142
-2 206 -15 245 -50 8 -7 27 -18 43 -24 23 -9 31 -7 48 10 25 25 20 60 -20 133
-32 60 -101 117 -200 164 -96 46 -203 55 -266 23z"/>
<path d="M12252 3845 c-138 -53 -240 -161 -230 -244 6 -46 30 -48 104 -10 67
34 69 34 203 34 145 1 164 6 200 51 44 56 15 141 -60 179 -43 23 -143 18 -217
-10z"/>
<path d="M1572 3842 c-61 -22 -87 -44 -113 -94 -23 -46 -24 -99 -3 -163 24
-69 74 -114 174 -155 146 -60 301 -192 355 -303 37 -77 71 -100 112 -77 35 20
52 55 66 136 27 159 -63 374 -226 537 -117 117 -248 160 -365 119z"/>
<path d="M6928 3670 c-252 -46 -507 -211 -590 -382 -56 -114 -57 -189 -4 -223
33 -22 72 -13 127 27 118 85 309 117 541 90 l138 -16 67 35 c148 75 193 218
106 336 -65 88 -148 131 -266 138 -40 2 -93 0 -119 -5z"/>
<path d="M11956 3208 c-92 -25 -249 -224 -232 -293 12 -49 109 -59 234 -25
157 44 212 91 212 182 0 97 -107 165 -214 136z"/>
<path d="M7930 3144 c-132 -47 -313 -267 -327 -398 -6 -53 15 -79 77 -96 124
-33 457 73 526 167 54 75 58 172 10 241 -56 82 -188 121 -286 86z"/>
<path d="M2523 3115 c-46 -20 -67 -57 -60 -106 8 -61 31 -87 110 -123 83 -38
166 -102 187 -143 37 -74 72 -84 97 -26 59 142 -120 413 -272 412 -16 0 -44
-6 -62 -14z"/>
<path d="M3710 3071 c-85 -30 -150 -115 -150 -196 0 -81 65 -167 160 -209 156
-70 404 -97 467 -50 25 19 28 28 28 76 0 72 -43 144 -152 255 -126 129 -234
166 -353 124z"/>
<path d="M12464 2812 c-63 -5 -163 -60 -188 -104 -19 -34 -20 -39 -5 -53 12
-13 21 -13 48 -4 43 15 141 5 210 -21 51 -20 54 -20 90 -3 20 10 42 31 49 46
12 24 11 33 -5 65 -29 59 -91 82 -199 74z"/>
<path d="M154 2726 c-37 -31 -38 -84 -5 -120 53 -57 228 -85 245 -40 14 35
-57 140 -115 170 -43 22 -94 18 -125 -10z"/>
</g>
</svg>
