<?xml version="1.0" encoding="utf-8"?>
<!-- Generator: Adobe Illustrator 25.4.1, SVG Export Plug-In . SVG Version: 6.00 Build 0)  -->
<svg version="1.1" xmlns="http://www.w3.org/2000/svg" xmlns:xlink="http://www.w3.org/1999/xlink" x="0px" y="0px"
	 viewBox="0 0 1122 1122" style="enable-background:new 0 0 1122 1122;" xml:space="preserve">
<style type="text/css">
	.st0{display:none;}
	.st1{display:inline;fill:#FFFFFF;}
	.st2{fill:url(#SVGID_1_);}
	.st3{fill:url(#SVGID_00000023248224464396158370000016935887835537959842_);}
	.st4{display:none;fill:url(#SVGID_00000066501129767087743690000018336793632225067434_);}
	.st5{display:none;fill:url(#SVGID_00000149355885424209860010000005585553576054063018_);}
	.st6{fill:url(#SVGID_00000139293502596261028620000010248877575139568272_);}
	.st7{fill:url(#SVGID_00000163758008319412508340000012659406845004437379_);}
	.st8{fill:url(#SVGID_00000180363444304547497840000003453342472738909613_);}
	.st9{fill:url(#SVGID_00000041976390175361205910000013061524829475820709_);}
	.st10{fill:url(#SVGID_00000088103408136674752170000010656272275647489977_);}
	.st11{fill:url(#SVGID_00000171715405090178853480000009975786564680624553_);}
	.st12{fill:url(#SVGID_00000026885848617086912610000004906813618260909696_);}
	.st13{fill:url(#SVGID_00000152255325376749219460000008978142152654847396_);}
	.st14{fill:url(#SVGID_00000151517230094277486290000006110184341639303353_);}
	.st15{fill:#231F20;}
	.st16{display:none;fill:#231F20;}
	.st17{display:inline;fill:#95CAE5;}
	.st18{display:inline;fill:#80AEF2;}
	.st19{display:inline;fill:#038ED3;}
	.st20{display:inline;fill:#BBE9F6;}
	.st21{display:inline;fill:#B5D2E8;}
	.st22{display:inline;fill:#00B7F0;}
	.st23{display:inline;fill:#00B5EE;}
	.st24{display:inline;fill:#8ECCEF;}
</style>
<g id="BG" class="st0">
	<rect class="st1" width="1122" height="1122"/>
</g>
<g id="Objects">
	<g>
		<g>
			<g>
				<linearGradient id="SVGID_1_" gradientUnits="userSpaceOnUse" x1="560.1165" y1="1060.9326" x2="560.1165" y2="85.1814">
					<stop  offset="0" style="stop-color:#FFFFFF"/>
					<stop  offset="1" style="stop-color:#000000"/>
				</linearGradient>
				<path class="st2" d="M560.01,953.79c-219.34,0-400.43,7.81-419.86,21.31c-1.15,0.8-0.66,3.6-0.66,4.42
					c0,14.63,188.32,26.5,420.64,26.5s420.64-11.86,420.64-26.5c0-0.46,0.25-3.52-0.11-3.97
					C969.39,961.54,785.07,953.79,560.01,953.79z"/>
				
					<linearGradient id="SVGID_00000155845749212915601550000017912185236391970952_" gradientUnits="userSpaceOnUse" x1="560.1246" y1="1060.9324" x2="560.1246" y2="85.1807">
					<stop  offset="0" style="stop-color:#FFFFFF"/>
					<stop  offset="1" style="stop-color:#000000"/>
				</linearGradient>
				
					<ellipse style="fill:url(#SVGID_00000155845749212915601550000017912185236391970952_);" cx="560.12" cy="976.2" rx="420.64" ry="23.18"/>
			</g>
			
				<linearGradient id="SVGID_00000166641227114612260320000000202469351090738569_" gradientUnits="userSpaceOnUse" x1="958.8336" y1="1060.9323" x2="958.8336" y2="85.1812">
				<stop  offset="0" style="stop-color:#FFFFFF"/>
				<stop  offset="1" style="stop-color:#000000"/>
			</linearGradient>
			<path style="display:none;fill:url(#SVGID_00000166641227114612260320000000202469351090738569_);" d="M1027.05,963.53
				c-0.13-0.49-0.25-0.96-0.37-1.44c5.78-1.21,11.25-2.41,12.54-2.89c2.98-1.1,1.82-3.86-0.39-4.42
				c-2.21-0.55-10.71-1.16-14.02-1.49c0.01,0.15,0.03,0.32,0.06,0.5c-1.45-8.03-1.71-14.23-2.6-20.76
				c-1.21-8.94-9.16-7.73-22.41-9.72c-13.25-1.99-36.21-0.11-45.26,1.1c-0.7,0.09-1.55,0.2-2.54,0.32c0-0.69-0.22-60.17-0.22-63.36
				c0-2.66,2.36-4.48,3.16-5.02c0.03,0,0.04-0.01,0.04-0.01l-0.03,0c0.03-0.02,0.06-0.04,0.08-0.05c13.1,0,78.57,0.01,81.65,0.11
				c3.31,0.11,4.97,0.11,5.52-1.66c0.55-1.77-0.88-2.43-2.87-2.54c0,0-68.12,0.22-75.96,0.22c-7.84,0-44.6,0.33-49.9,0.99
				c-3.42,0.43-5.77,1.96-7.02,4.83c-0.47-0.09-0.97-0.25-1.48-0.52c-1.66-0.88-3.64-1.99-5.3-1.99c-1.66,0-29.59-5.08-25.06,0.33
				c0,0,1.32,0.55,4.31,1.1c2.81,0.52,5.51,1.04,8.31,3.95c0.27,0.34,0.52,0.57,0.52,0.57c-0.01-0.02-0.01-0.04-0.02-0.07
				c0.19,0.23,0.38,0.47,0.57,0.73c1.55,2.1,3.42,4.2,5.3,6.18c1.88,1.99,4.97,8.39,5.41,11.26c0.39,2.55-0.35,9.86-0.52,11.49
				c-2.99,1.5-4.56,2.98-4.56,2.98s0.66,2.21,1.32,4.42c0.66,2.21,1.21,5.85,1.43,9.61c0.22,3.75,0.11,12.25,0.22,17.11
				c0.03,1.28,0.04,2.87,0.12,4.62c-7.36,1.06-4.43,2.27,0.22,3.25c0.39,4.18,1.29,8.83,3.53,12.67c3.86,6.62,15.68,7.29,20.98,7.51
				c5.3,0.22,21.31-0.22,23.07-0.22s4.2,0.11,5.19,1.1s2.87,2.54,4.08,3.64c0.37,0.33,0.69,0.89,0.97,1.55
				c-17.18-0.89-33.65-1.77-33.65-1.77l0.49,4.09c-0.1-0.01-0.16-0.01-0.16-0.01c-0.88,0.33-3.97,3.64,0.33,3.97
				c2.75,0.21,21.12,1.5,34.73,2.41c0.29,1.49,0.59,2.93,0.74,3.6c-0.08,0.03-0.16,0.07-0.24,0.11c-1.66,0.69-3.81,2.1-4.81,3.9
				c-0.31,0.08-0.6,0.17-0.89,0.24c-0.88,0.22-4.64,0.61-11.04,2.21c-6.4,1.6-14.13,6.9-16.06,8.28c-1.93,1.38-5.85,5.41-4.91,6.84
				c0.94,1.44,3.48,4.86,7.51,1.99c4.03-2.87,10.05-4.47,15.35-4.91s6.4-0.77,6.79-0.22c0.35,0.5,1.67,2.59,2.85,6.44
				c-0.04,1.13-0.11,2.18-0.2,3.11c-0.22,2.21-0.55,6.29,0.77,9.61c0,0.01-0.01,0.02-0.01,0.03c-0.86,1.22-1.55,2.66-0.76,3.39
				c0.66,1.1,2.1,3.64,2.1,4.86c0,1.21-0.44,4.53,0.22,8.5c0.66,3.97,2.65,8.61,4.97,11.81c2.32,3.2,4.97,7.73,9.93,8.72
				c0,0-0.44,2.87-1.99,3.37c-1.54,0.5-4.53,0.83-6.24,1.05c-1.71,0.22-2.76,1.1-2.76,2.7c0,1.6,0.11,2.6-0.44,2.87
				c-0.55,0.28-0.94,1.27-0.55,1.88c0.39,0.61,0.05,1.77-0.72,1.88c-0.77,0.11-0.83,0.66-0.83,1.49s-0.11,1.38-1.05,1.21
				c-0.94-0.17-4.42-0.61-2.93,1.99c1.49,2.59,3.15,4.69,3.2,5.52c0.06,0.83,0,1.99-0.44,2.65c-0.44,0.66-0.39,1.54-0.06,2.76
				c0.33,1.21,1.16,3.64,1.16,5.08c0,1.44,0.66,2.6,1.05,3.42c0.39,0.83-0.5,1.66,1.43,4.53c1.93,2.87,16.56,13.91,26.06,7.56
				c0.77,0.39,4.36,1.54,5.52,0.17c1.16-1.38,1.6-2.87,2.04-3.15c0.44-0.28,1.6-0.5,1.88-1.38c0.28-0.88,1.1-1.55,1.38-1.27
				c0.28,0.28,4.36,0.77,5.52-5.52c1.16-6.29-1.1-12.03-3.15-14.24c-2.04-2.21-3.42-3.15-4.14-3.26c-0.06-2.37-2.26-6.4-3.75-7.45
				c1.66-0.77,2.1-1.05,2.32-2.04c-0.77,0.88-1.77,1.54-2.76,1.49c1.05-0.61,1.1-0.83,1.21-1.21c-0.94,0.72-1.44,1.05-1.77,1.05
				c-0.33-0.06-0.55-1.38-0.39-1.82c0.06-0.15,0.21-0.38,0.38-0.64c1.52-0.54,3.02-1.32,3.65-2.39c1.1-1.88,0.99-3.75,1.43-4.64
				c0.44-0.88,1.32-2.32,4.53-4.75c3.2-2.43,8.61-7.62,10.38-10.6c1.77-2.98,2.1-7.4,1.77-10.93c-0.33-3.53-0.44-15.75-0.44-15.79
				c3.88-3.55,13.73-5.02,20.76-6.41c7.84-1.54,11.26-1.32,12.7-1.32c1.43,0-1.66-3.53-4.86-8.72
				C1035.08,986.69,1030.58,976.78,1027.05,963.53z M922.03,889.36c-1.85,0.04-3.36,0.14-4.24,0.21c-0.62-0.12-1.05-0.36-1.3-0.71
				c0.02,0.04,0.04,0.09,0.06,0.14c-0.03-0.06-0.07-0.13-0.11-0.21c0.01,0.02,0.03,0.04,0.04,0.06c-0.13-0.29-0.21-0.42-0.21-0.42
				c-0.53-0.06-1.04-0.1-1.55-0.14c-0.08-0.34-1.32-5.79-1.43-8.14c-0.11-2.43,0.11-5.63,0.88-7.18c0.77-1.54,1.66-2.21,2.65-4.75
				c0.37-0.66,0.44-1.18,0.55-1.91c0.66,0.57,2.68,2.4,3.87,4.23c1.43,2.21,1.77,3.64,2.21,9.05
				C923.84,884.23,922.44,888.28,922.03,889.36z M937.21,856.45l0.06,1.4c0,0-0.07,0.68-0.61,1.06c-0.05,0.01-0.1,0.02-0.16,0.04
				c-0.68,0.19-1.65-0.04-2.64-0.41c-1.37-0.65-2.59-1.39-3.62-2C932.53,856.52,934.89,856.48,937.21,856.45z M948.16,858.72
				c-0.85,1.89-0.85,3.98-0.85,3.98l0.33,62.52c-4.6,0.49-10.41,1.08-16.1,1.63c-0.01-0.01-0.01-0.01-0.02-0.01
				c-1.55-1.32,0.44-4.97,0.88-6.85c0.44-1.88,0.44-5.19,0.55-6.96c0.11-1.77,1.55-5.41,1.88-6.84c0.33-1.44,0.44-4.31,0.99-6.62
				c0.55-2.32,1.1-3.2,2.1-7.18c-0.4-0.3-0.84-0.58-1.32-0.83c0.14-3.65,1.43-9.14,1.87-11.32c0.44-2.21,1.66-5.63,2.76-6.84
				c1.02-1.12,1.76-2.06,2.56-3.76c0.21-0.21,0.4-0.45,0.57-0.73c0.79-1.45,0.7-2.36,0.79-3.02c0.03-0.23,0-0.04-0.08,0.34
				c0.2-1.78,0.03-3.96-0.19-5.86c-0.2-1.71-0.35-3.13-0.45-4.02c2.03-0.02,3.85-0.04,5.34-0.05
				C949.52,856.56,948.72,857.41,948.16,858.72z"/>
			
				<linearGradient id="SVGID_00000091719926472850868870000010298895896989896095_" gradientUnits="userSpaceOnUse" x1="177.3782" y1="1060.9327" x2="177.3782" y2="85.1817">
				<stop  offset="0" style="stop-color:#FFFFFF"/>
				<stop  offset="1" style="stop-color:#000000"/>
			</linearGradient>
			<path style="display:none;fill:url(#SVGID_00000091719926472850868870000010298895896989896095_);" d="M274.02,894.72
				c-1.49-0.66-10.6-3.97-14.41-3.97s-11.26,2.82-13.75,3.48c-2.48,0.66-9.61,2.48-11.59,4.31c-0.66,3.48-0.66,6.46-0.66,6.46
				s0.83,1.49,1.32,2.98c0.5,1.49-1.99,0.66-1.99,0.66s0.05-0.63,0.14-1.65c0.05-0.19,0.06-0.3,0.03-0.35
				c0.32-3.69,1.03-11.41,1.66-13.9c0.83-3.31,1.66-11.26,1.66-11.26s-7.95-4.14-9.94-4.64c-1.52-0.38-3.71-1.05-4.66-1.34
				c0.01-1.72,0.02-2.91,0.01-3.41c0.3-0.65,0.77-1.26,1.51-1.71c1.45-0.87,3.52-2.24,5.58-3.47c0,0-0.01,0-0.01,0.01
				c0.16-0.09,0.31-0.18,0.46-0.27c1.32-0.77,2.63-1.46,3.75-1.9c2.98-1.16,4.8-1.66,5.3-3.48c0.5-1.82-1.49-1.82-2.15-2.15
				c-0.33-0.16-8.85,0-17.36,0.2c-1.6-1.96-4.25-3.62-7.55-3.62c-9.7,0-124.74,0-124.74,0s-2.21,0.27-2.21,2.64
				c0,2.37,2.98,2.23,5.08,2.19c1.85-0.04,58.72-0.47,74.77-0.19c0.62,0.03,2.69,0.15,4.59,0.24c3.37,0.58,7.72,1.87,7.2,11.72
				c-0.55,10.25-1.7,54.73-1.73,55.82c-0.27-0.04-0.54-0.08-0.81-0.12c-7.78-1.16-42.73-4.31-56.14-2.98
				c-13.41,1.32-15.4,12.09-15.9,16.85c-0.46,4.42-0.35,7.81-1.7,17.01c0-0.01,0-0.02,0-0.03c0,0-11.38,0.46-14.14,0.9
				c-2.76,0.44-4.53,4.31-1.1,5.19c1.64,0.42,7.59,1.63,13.53,2.82c-2.16,8.48-5.64,16.35-8.67,22.02
				c-3.81,7.12-10.27,15.57-10.27,15.57c-0.62,0.82-1.49,1.16,1.66,0.99c1.94-0.1,5.88,0.61,10.78,1.89
				c0.25,2.21,1.15,4.48,1.69,5.18c0.55,0.72,0.61,2.76,1.55,4.86c0.94,2.1,3.31,4.86,3.64,5.63c0.33,0.77,0.99,1.55,0.94,2.1
				c-0.06,0.55-0.11,0.94,0.17,1.43c0.17,0.3,0.31,0.45,0.4,0.53l-0.51,1.13c0,0,0.11,0.05,0.3,0.14c-0.36,0.34-1.34-0.31-3.23-0.31
				c-2.04,0-2.04,2.15-2.76,3.26c-0.72,1.1-2.65,1.88-5.13,6.74c-2.48,4.86,1.32,6.62,2.76,7.95c1.43,1.32,0.66,3.81-2.37,7.89
				c-3.04,4.08-0.88,6.29,0.72,6.85c1.6,0.55,2.04,1.38,2.21,2.65c0.17,1.27-0.88,2.32,2.82,8.72c3.7,6.4,11.76,8.94,13.75,9.05
				c1.99,0.11,3.75,0.22,5.13,0.55c8.33,2.26,10.87-0.94,13.58-2.65c2.7-1.71,6.22-4.74,7.73-7.18c0.83-1.35-0.16-3.9-0.52-4.39
				c1.57-3.02,2.14-7.17,2.56-8.14c0.39-0.88,0.99-1.32,0.81-2.37c-0.15-0.86,0.17-0.87,0.17-0.87l3.19-0.66
				c0,0,0.12-0.58,0.12-1.28c0-0.7,0-0.91-0.29-0.95c-0.13-2.57-1.78-3.19-2.4-3.73c-0.17-0.91,0.41-2.19,0.58-3.19
				c0.17-0.99-1.08-1.45-1.57-1.86c-0.17-0.41,0.37-1.57,0.21-1.99c-0.17-0.41-0.5-1.04-1.16-0.95c0.12-0.29,0.29-0.66,0.54-1.32
				c0.25-0.66-0.17-1.66-0.46-2.07c-0.29-0.41,0.04-2.82,0.04-2.82c0-2.54-3.09-2.59-4.31-2.82c-1.21-0.22-2.37-1.49-2.37-1.49
				s4.36-0.44,9.88-2.54c5.52-2.1,6.51-5.74,8.61-9.05c2.1-3.31,2.54-3.53,6.29-7.95c3.75-4.42,4.31-7.4,4.53-8.72
				c0.22-1.32,4.75-6.62,6.85-7.95c2.1-1.32,3.2-3.31,3.75-3.86c0.55-0.55,1.88-1.99,2.76-2.98c0.88-0.99,1.66-0.99,2.87-1.32
				c1.21-0.33,2.76-2.32,4.31-3.64c1.55-1.32,4.31-4.42,5.19-6.07c0.88-1.66,1.32-4.97,1.32-4.97s-2.43,0.44-5.41,0.22
				c-0.17-0.01-0.34-0.02-0.52-0.03c6.46-0.35,12.39-0.68,14.21-0.77c3.97-0.2,17.72-1.3,21.29-2.7c0.85-0.34,1.72-0.9,2.55-1.6
				c2.7,0.09,5.27-0.09,7.45-0.81c4.47-1.49,5.96-6.46,9.11-12.75c3.15-6.29,7.29-17.06,9.27-20.7c1.99-3.64,2.15-9.44,3.97-11.59
				c1.82-2.15,3.15-7.45,3.81-9.11c0.66-1.66-0.66-2.32-0.66-2.32s2.98-2.48,5.13-3.97c2.15-1.49,5.46-4.47,9.94-4.64
				c4.47-0.17,7.62,0.83,9.11-2.32C277.16,896.55,275.51,895.39,274.02,894.72z M98.93,963.79c-0.63-0.13-1.23-0.26-1.81-0.39
				l1.85,0.1l0.16-0.75C99.07,963.1,99,963.45,98.93,963.79z M99.41,961.13c-0.04,0.28-0.1,0.55-0.14,0.83c0,0,0,0,0,0
				c0.05-0.27,0.1-0.59,0.16-0.92C99.42,961.07,99.42,961.1,99.41,961.13z M138.61,1051.28c2.32,0.33,1.66,3.2,1.66,3.2
				s-1.32,0.66-2.21,0.55C137.17,1054.92,138.61,1051.28,138.61,1051.28z M134.31,1068.52c0.02,0.1,0.05,0.21,0.11,0.37
				c0.88,2.7-2.32,2.21-2.32,2.21C133,1070.54,133.72,1069.61,134.31,1068.52z M204.46,874.36c0,0-1.32,5.96-1.32,8.78
				s0.99,7.62,0.83,9.77c-0.17,2.15-0.99,8.61-1.16,10.02c-0.17,1.41-0.5,3.73,0.17,5.71c0.66,1.99-1.49,2.76-2.32,4.86
				c-0.83,2.1,0.33,3.6,0.5,5.5c0.17,1.9,0.17,3.89-1.66,6.04c-0.68,0.81-1.87,2.44-3.18,4.17c-3.09-0.13-6.29,0.55-6.69,0.64
				c-2.98-0.16-6.74-0.56-10.46-1.04c0.03-1.42,0.95-43.04,0.95-50.97c0-4.82,0.27-8.64-0.29-11.89c-0.52-3.66-2.58-5.89-2.58-5.89
				c4.31,0,16.27-0.09,24.3-0.09c-0.39,0.81-1.77,4.22,0.1,9.25c0.99,2.48,1.32,2.32,2.82,2.32
				C205.12,872.7,204.46,873.53,204.46,874.36z"/>
			
				<linearGradient id="SVGID_00000147920143788646532330000009724427122676950170_" gradientUnits="userSpaceOnUse" x1="266.9787" y1="1060.9324" x2="266.9787" y2="85.1822">
				<stop  offset="0" style="stop-color:#FFFFFF"/>
				<stop  offset="1" style="stop-color:#000000"/>
			</linearGradient>
			<path style="fill:url(#SVGID_00000147920143788646532330000009724427122676950170_);" d="M345.5,924.43l0.08,0.27
				c0,0-0.91-5.55-1.66-12.34c-0.75-6.79-0.91-10.43-1.24-14.57c-0.15-1.87-0.44-3.88-0.79-5.94c-0.08-0.53-0.17-1.04-0.27-1.55
				c-0.31-1.7-0.65-3.42-0.98-5.12c-0.6-3.6-1.17-7.8-1.55-10.7c-0.12-1.09-0.22-1.93-0.29-2.35c-0.02-0.11-0.04-0.21-0.06-0.32
				c-0.05-0.39-0.09-0.65-0.11-0.76c-0.12-0.65-0.29-1.09-0.98-1.32c0,0-0.01-0.01-0.01-0.01c-0.01,0-0.01,0-0.02,0
				c-0.11-0.03-0.24-0.06-0.38-0.09c0-2.47,0-4.25-0.01-5.13c1.9-0.6,4.6-1.27,6.06-1.57c6.4-1.32,3.97-5.08,3.97-5.08
				s-5.66-0.14-9.39-0.14c-0.47,0-1.32-0.01-2.45-0.01c-0.17-0.07-0.34-0.15-0.5-0.23c-1.04-1.15-2.56-2.09-4.77-2.49
				c-6.18-1.1-139.99-0.55-139.99-0.55c-1.24,0.14-3.09,0.47-2.98,2.62c0.17,3.31,4.42,2.46,4.42,2.46s47.03,0.33,52.33,0.44
				c5.3,0.11,4.75,9.83,4.75,9.83l0.44,61.3c-5.74,0.26-12.46,1-18.78,1.78c-0.42-0.68-0.95-1.45-1.5-2.11
				c-1.32-1.57-3.64-1.82-7.78-0.25c-2.43,0.92-6.35,2.99-9.17,4.54c-0.06,0-0.13,0.01-0.19,0.01c-8.61,0.58-10.02,7.12-10.27,10.27
				c-0.25,3.15-0.83,15.15-1.32,21.03c-0.02,0.2-0.04,0.39-0.06,0.59c-0.75,0.07-8.41,0.78-10.09,0.99
				c-1.77,0.22-3.09,0.88-3.64,2.1c-0.88,4.42,4.31,3.97,4.31,3.97s3.33,0.14,8.48,0.35c-3.94,25.74-13.22,45-13.22,45
				c11.07-1.02,23.16-0.83,34.57-0.08c0.15,1,0.35,2.8,0.12,4.05c-0.13,0.74-0.34,1.45-0.53,2.14c-0.29,0.72-0.46,1.34-0.46,1.34
				s0.05-0.15,0.16-0.29c-0.17,0.64-0.3,1.26-0.33,1.86c-0.08,1.57-0.41,4.72-0.75,7.95c-0.33,3.23-0.17,8.2,0.41,9.44
				c0.58,1.24,2.4,2.82,3.73,3.73c1.32,0.91,2.82,2.57,4.8,4.22c1.99,1.66,6.04,3.23,9.44,5.63c3.09,2.19,6.32,5.12,8.43,5.94
				c-0.03,0.03-0.06,0.07-0.07,0.1c-0.5,1.41-0.85,4.4-1.08,6.71c-0.17,1.66-0.22,4.56-0.41,7.29c-0.33,4.72-0.33,6.87,0.08,10.1
				c1.08,8.78,8.69,11.59,11.76,12.17s8.11-0.5,9.11-1.16c1.16,0.99,6.96,2.04,13.08,0.47c6.13-1.57,10.76-6.68,13-11.57
				c1.9-4.16,2.15-8.78,2.07-9.6s0.08-2.48,0.25-3.23c0.17-0.75-0.25-2.65-0.25-2.65c0.25-0.75,1.82-2.32,3.15-4.06
				c1.32-1.74,0.33-2.98-0.5-3.56c-0.83-0.58-1.49-1.08-1.74-1.41c-0.25-0.33,0.17-0.99,0.25-1.57c0.08-0.58,0.17-1.57-0.5-2.4
				c0.2-0.83,0.09-1.3-0.07-1.56c1.89-0.56,4-1.56,5.62-3.98c1.99-2.98,3.31-8.11,1.66-14.41c0.58-1.08,1.46-2.16,1.9-3.15
				c0.75-1.66,1.16-2.9,1.99-4.06c0.83-1.16,0.99-1.66,2.82-3.39c1.31-1.25,3.23-3.39,4.31-4.97c1.08-1.57,3.64-3.64,4.31-4.31
				c0.66-0.66,1.66-1.16,3.73-2.65c2.23-1.61,3.95-1.38,6.62-0.83c1.55,0.32,5.77,0.99,7.54,1.66c1.46,0.55,5.8,1.9,5.8,1.9
				s4.22-8.86,2.48-19.62c-1.74-1.32-5.13-1.41-6.54-2.32c-1.41-0.91-3.48-1.32-5.46-1.49c-1.99-0.17-4.8,0.08-6.29-0.41
				c-1.49-0.5-7.37-1.02-11.01,0.41c-4,1.57-9.11,5.46-12.59,7.95c-3.48,2.48-4.89,4.39-4.89,4.39s-1.47-6.22-2.41-10.93
				c-0.27-3.15-0.31-6.8-0.76-9.24c-0.66-3.53,0.59-6.11,0.66-8.83c0.02-0.56,0.08-1.11,0.17-1.64c1.97-0.12,3.95-0.4,5.24-0.49
				c2.48-0.17,23.76-3.48,27.49-3.97c3.73-0.5,8.53-0.83,11.18-4.89c2.65-4.06,3.06-8.03,2.9-9.19c-0.15-1.07-1.93-2.13-3.37-0.99
				c0.08-0.81,0.13-1.61,0.16-2.37c2.07-0.84,3.75-1.62,4.87-2.27c4.55-2.65,6.13-8.11,6.38-12.17c0.25-4.06-1.08-10.27-1.49-12.42
				C346.3,929.21,345.9,926.88,345.5,924.43z M276.7,867.15c-0.12-0.01-0.23-0.01-0.34,0c-0.07,0.01-0.06,0.09,0.02,0.22
				c-0.3,0.35-0.67,1.14-1.09,2.27c-0.58,1.57-2.9,2.73-3.64,4.55c-0.75,1.82-1.16,5.38-0.99,7.29c0.17,1.9-0.75,5.63-1.66,8.61
				c-0.91,2.98-2.73,17.14-3.31,18.88c-0.58,1.74-0.99,7.78-1.82,11.34c-0.48,2.05-2.28,6.83-3.89,10.89
				c-1.89-0.1-3.8-0.17-5.72-0.21c-0.16,0-0.33,0-0.5,0c0-0.21,0-58.35-0.22-64.09c-0.09-2.22-0.47-3.94-0.91-5.22
				c0.1-0.06-0.28-1.62-1.52-2.95c0,0,10.93,0.14,24.55,0.3c-0.02,0.44-0.02,1.02,0.05,1.74c0.17,1.9,0.91,3.39,1.24,4.39
				C277.27,866.15,277.03,867.13,276.7,867.15z M290.27,934.19c0.28-2.19,0.43-5.76,0.58-7.34c0.17-1.74-0.08-10.18,0.25-12.5
				c0.33-2.32,0.17-4.64,0.08-6.62c-0.08-1.99,1.99-9.77,2.9-12.5c0.91-2.73,1.16-5.46,1.24-7.87c0.08-2.4,3.15-7.37,3.48-8.86
				c0.33-1.49,0.25-3.97,0.33-5.3c0.08-1.32-1.32-2.15-1.82-2.24c-0.5-0.08-1.57,0.17-1.74-1.74c-0.17-1.9,2.57-5.22,3.64-6.54
				c0.7-0.86,1.36-2.38,1.74-3.35c1.35,0.02,2.67,0.03,3.97,0.05c-0.51,1.27-0.99,3.25-0.5,6.2c1.05,6.33,3.32,4.8,3.9,8.98
				c-0.54,0.23-0.84,0.43-0.84,0.62c0,0.41,0.25,0.88,0.69,5.3c0.44,4.42,4.64,17.78,5.52,21.42c0.88,3.64,1.99,13.14,1.99,16.01
				s1.88,11.15,1.77,13.69c-0.11,2.54-1.43,2.65-3.42,3.09c-1.76,0.39-4.9,0.87-7.28,1.2C301.23,935.33,295.44,934.73,290.27,934.19
				z M325.63,966.6c0,0-20.14,2.51-31.52,3.82c0.11-0.2,0.21-0.35,0.3-0.42c0.12-0.09,0.48-0.29,0.97-0.57
				c4.13-0.83,10.14-2.12,16.55-3.82c6.44-1.7,13.82-4,19.8-6.15C330.87,965.85,325.63,966.6,325.63,966.6z M332.68,869.31
				c-1.09,0.02-2.16,0.09-3.21,0.21c1.03-1.85,2.18-2.78,3.22-3.3C332.69,866.94,332.68,867.99,332.68,869.31z"/>
			
				<linearGradient id="SVGID_00000142868046875523992160000010578189490830825375_" gradientUnits="userSpaceOnUse" x1="555.0587" y1="1060.9325" x2="555.0587" y2="85.1827">
				<stop  offset="0" style="stop-color:#FFFFFF"/>
				<stop  offset="1" style="stop-color:#000000"/>
			</linearGradient>
			<path style="fill:url(#SVGID_00000142868046875523992160000010578189490830825375_);" d="M624.54,1004.66
				c-1.26-0.89-2.63-1.4-3.92-0.98c-0.07,0-0.13,0-0.2,0c-0.6-6.19-1.17-15.06-1.61-22.57c1.52-0.01,7.11-0.15,8.45-1.77
				c1.55-1.88,0.44-4.75-1.21-5.41c-1.55-0.62-7.04-1.57-7.73-1.68c-0.09-1.76-0.17-3.2-0.22-4.17c-0.08-1.46-0.14-3.4-0.19-5.53
				c0.81-4.02,1.97-9.97,2.4-15.73c0.55-7.4,1.1-14.9,1.43-18.11c0.24-2.3,0.47-3.74-0.31-5.15c0.05-0.39-0.22-0.75-1.07-1.5
				c-1.57-1.41-5.13-4.31-7.45-4.8c-1.62-0.35-2.76-0.32-3.97-0.03c0,0,0,0,0,0c-0.04,0.01-0.08,0.02-0.12,0.03
				c-0.05,0.01-0.1,0.02-0.14,0.03c-0.03,0.01-0.06,0.01-0.09,0.02l-0.63-54.29c0,0,0-4.14,1.55-4.25
				c1.54-0.11,14.57,0.11,14.57,0.11s3.31,0.11,3.42-1.99c0.11-2.1-0.22-3.53-3.87-3.86c-3.64-0.33-112.94,0-114.16-0.11
				c-1.21-0.11-5.74-0.11-5.74-0.11s-3.75,0.22-3.75,3.86l0.33,82.64c-1.75,3.73-3.3,8.81-3.75,10.15c-0.66,1.99,0.43,6.86,2.3,8.85
				c0.39,0.42,0.92,0.84,1.53,1.28l0.01,2.83c-0.05,0.01-0.09,0.01-0.09,0.01s-2.28,0.18-2.28,3.49c0,3.31,0.61,9.38,1.82,10.93
				c1.21,1.55,3.42,3.37,4.31,4.14c0.88,0.77,2.76,2.26,4.31,2.15c1.52-0.11,6.52,0.78,6.61-1.36c0.44,0.01,0.98,0.02,1.61,0.03
				c0.09,2.46,0.19,4.99,0.3,7.52c-1.59-0.09-4.06-0.49-6.4-0.58c-3.09-0.11-6.96-0.55-9.38-0.88c-1.32-0.18-4.2,0.33-5.19,1.99
				c-0.99,1.66-4.97,9.27-5.41,9.72c-0.15,0.15-0.12,0.76,0.04,1.56c-0.17,0.27-0.32,0.56-0.35,0.81c-0.01,0.09-0.01,0.23-0.01,0.38
				c-0.34,0.18-1.46,0.87-1.95,1.17c-0.55,0.33-2.7,0.55-3.86,0.39c-1.16-0.17-2.04,0.28-2.32,1.32c-0.28,1.05,0.11,1.88,0.55,2.65
				c0.44,0.77,0.17,1.16-1.1,1.49c-1.27,0.33-1.21,2.26-1.16,3.2c0.06,0.94-0.83,4.47,1.1,3.59c1.93-0.88,1.53-2.64,1.75-3.08
				c0.22-0.44,1.51-0.46,3.27,0.1c2.26,0.61,1.27,1.88,0.77,2.76c-0.5,0.88-1.43,1.71-2.32,2.21c-0.88,0.5-2.37,1.71-3.7,2.93
				c-1.32,1.21-1.66,2.87-1.38,3.31c0.28,0.44,0.66,0.99,2.15,0.55c1.49-0.44,2.98-1.6,4.64-3.2c1.66-1.6,3.73-2.29,7.29-4.36
				c2.77-1.61,4.78-3.81,5.54-4.72c0.05,0,0.09,0,0.09,0l0.96-0.73c0.76,0.32,1.07,0.45,1.36,0.38c0.44-0.11,1.44,1.21,2.65,2.54
				c1.21,1.32,1.88,2.54,2.65,4.86c0.77,2.32,2.76,4.42,4.75,6.74c1.99,2.32,3.09,3.86,4.2,6.62c1.1,2.76,1.88,2.65,1.88,5.63
				c0,2.98,0.33,7.62,1.1,10.49c0.77,2.87,1.21,4.31,2.1,7.18c0.88,2.87,2.65,8.17,3.42,9.72c0.77,1.55,3.09,3.53,5.19,3.09
				c1.68,0.69,7.6,2.89,13.52,5.07c-0.44,0.69-1.79,2.81-2.54,4.59c-1.08,1.16-1.32,2.32,0.25,2.48c-0.58,0.25-1.66,0.91-1.16,2.4
				c0.5,1.49,1.41,2.98,1.16,3.48s-0.83,0.75-1.66,0.66c-0.83-0.08-2.9,0.91-1.32,3.89c1.57,2.98,4.89,5.63,5.38,6.54
				c0.5,0.91,0.25,1.49,0.75,2.32c0.5,0.83,0.41,1.9,0.33,2.98c-0.08,1.08-0.5,2.82,0.66,3.64c0.25,1.99,2.07,14.08,16.81,14.74
				c5.05,0.17,12.25,0.33,18.88-6.04s4.97-17.39,3.56-21.11c-1.22-3.23-3.19-8.76-3.69-10.66c0.06-0.03,0.12-0.05,0.18-0.08
				c0.77-1.44,4.64-6.4,6.4-7.18c1.77-0.77,4.75-1.88,5.41-2.65c0.66-0.77,2.87-2.1,3.97-2.54c1.1-0.44,11.37-4.75,14.35-6.29
				c2.98-1.54,4.75-1.77,6.4-4.64c1.66-2.87,2.1-6.07,2.43-9.49c0.33-3.42,0.55-3.75,0.44-6.07c-0.11-2.32,0.55-3.2,0.88-4.97
				c0.33-1.77,0.55-1.99,1.99-5.52c1.43-3.53,4.42-8.72,5.85-13.58c1.43-4.86,1.54-8.39,0.11-11.04
				C628.17,1008.08,626.33,1005.83,624.54,1004.66z M557.41,858.25c-0.02,0.59,0.24,1.28,0.64,2.13c0.25,0.54,0.18,1.33,0.01,2.09
				c-0.14,0.41-0.28,0.73-0.28,0.73c0.02,0.02,0.04,0.03,0.06,0.05c0,0.01-0.01,0.03-0.01,0.04c-0.93-0.76-1.62-1.2-2.75-1.8
				c-1.88-0.99-4.42-0.44-5.63-1.54c-0.46-0.42-0.96-1.05-1.52-1.71C551.03,858.23,554.22,858.24,557.41,858.25z M514.11,976.78
				c-2.19-0.54-4.53-1.89-6.22-3.23c-0.68-2.24-0.94-6.54-1.08-9.77c0-0.03-0.02-0.05-0.02-0.08c0.84,0.56,1.68,1.15,2.46,1.78
				c2.5,1.98,5.04,3.19,7.02,4.19c0.07,2.31,0.15,4.78,0.24,7.36C516.24,977.02,515.22,976.96,514.11,976.78z M528.79,874.18
				c-2.43-0.88-4.2-0.99-4.97-0.55c-0.13,0.04-0.2,0.1-0.22,0.18c-0.63,0.63-1.04,2.32-2.43,5.89c-1.55,3.97-2.87,7.62-3.75,10.82
				c-0.88,3.2-3.86,12.14-5.08,14.46c-1.21,2.32-1.77,6.96-2.76,9.83c-0.79,2.27-3.03,6.7-4.75,10.91
				c-0.22-25.64-0.47-55.31-0.54-62.96c0-1.16,0-2.13,0.02-2.31c0.01-0.1,0.04-0.28,0.09-0.48c0.01-0.05,0.03-0.11,0.04-0.16
				c0.01-0.02,0.01-0.03,0.02-0.05c0.02-0.06,0.04-0.13,0.07-0.19c0.01-0.02,0.01-0.04,0.02-0.06c0.02-0.06,0.05-0.12,0.08-0.18
				c0.01-0.03,0.02-0.05,0.03-0.08c0.02-0.04,0.05-0.09,0.07-0.13c0.34-0.6,0.95-1.15,2.07-1.09c1.41,0.07,4.3,0.05,6.05,0.02
				c1.28,0.02,3.55,0.05,6.56,0.06c2.16,1.36,5.78,2.91,7.06,3.93c1.66,1.32,3.64,3.31,4.86,5.3c1.21,1.99,2.98,5.3,4.09,7.62
				c0.28,0.6,0.22,1.44-0.02,2.37c-0.15-0.08-0.31-0.16-0.46-0.24c-0.58-0.38-1.67-1.04-3.07-1.56c-0.03-0.01-0.06-0.02-0.08-0.03
				C530.48,874.87,529.42,874.41,528.79,874.18z M560.75,930.84c-0.11,0.74-0.31,2.1-0.45,2.97c-11.79,0.46-22.59,1.69-30.62,2.84
				c0.18-0.54,0.42-1.15,0.68-1.78c0.12-0.24,0.26-0.49,0.41-0.75c0.68-1.19,1.36-2.66,1.93-4.17c0.1-0.2,0.2-0.4,0.28-0.58
				c0.64-1.34,0.87-2.47,0.95-3.73c0.15-0.83,0.21-1.6,0.16-2.23c-0.04-0.44-0.08-0.82-0.11-1.16c0.03-1.46,0.32-2.22,0.85-2.82
				c0.31-0.3,0.71-0.61,1.24-0.98c2.54-1.77,2.65-3.86,2.98-6.18c0.02-0.13,0.06-0.25,0.08-0.38c0.43-1.11,1.31-2.41,2.46-4.25
				c0.06-0.09,0.11-0.17,0.16-0.26c0.13-0.17,0.26-0.34,0.39-0.51c1.21-1.66,1.99-5.41,1.99-7.18c0-1.77,2.54-4.2,3.75-6.18
				c1.21-1.99,2.98-4.97,2.98-4.97s-0.07-0.1-0.32-0.36c1.17-1.22,2.82-1.05,4.18-1.73c1.55-0.77,3.22-3.49,3.77-4.59
				c0.07-0.13,0.18-0.35,0.32-0.62c0.02,1.95,0.07,4.74,0.21,6.22c0.22,2.43,1.21,8.28,1.1,11.92c-0.11,3.64,0.66,6.62,0.22,10.16
				c-0.44,3.53,0.57,8.6,0.46,10.47c-0.11,1.88-0.33,5.08,0.11,6.96C561.08,928.19,560.91,929.68,560.75,930.84z M604.46,858.92
				c-0.75,1.13-0.88,2.82-0.82,3.74c0,0.17,0,0.35,0,0.53c0.06,1.99,0.57,34.03,0.91,55.18c-0.8,0.26-1.41,0.52-1.94,0.86
				c-0.01,0.01-0.02,0.02-0.04,0.02c0,0-0.01,0-0.01,0.01c-0.43,0.25-0.82,0.56-1.13,0.96c-0.8,0.86-1.52,2.29-1.9,3.95
				c-0.28,1.02-0.43,2.11-0.36,3.2c0.16,2.63,1,6.62,1.07,8.84c-0.08-0.01-0.16-0.02-0.24-0.03c-4.06-0.77-8.23-1.33-12.44-1.73
				c0-0.01-0.01-0.02-0.01-0.03c0.12,0,0.19,0,0.19,0s-0.5-2.15-0.83-4.06c-0.33-1.9-0.75-6.62-0.99-9.36
				c-0.25-2.73-1.49-10.85-2.24-14.99c-0.75-4.14-1.99-9.27-1.99-9.27s-0.01,0.03-0.02,0.08c-0.24-1.19-0.44-2.34-0.55-3.42
				c-0.33-3.09-0.99-10.05-1.44-12.48c-0.44-2.43-1.88-4.53-1.55-7.51c0.33-2.98-0.33-4.08-0.33-4.08s-0.18-0.03-0.49-0.07
				c0.02-0.05,0.03-0.1,0.05-0.15c0.77-2.32,1.77-5.52,3.64-7.62c1.22-1.36,2.06-2.43,2.53-3.18c12.42,0.02,21.43,0.03,21.43,0.03
				S604.73,858.48,604.46,858.92z"/>
			<g>
				
					<linearGradient id="SVGID_00000026855685072552726720000009198620773622488983_" gradientUnits="userSpaceOnUse" x1="398.8995" y1="1060.9323" x2="398.8995" y2="85.1823">
					<stop  offset="0" style="stop-color:#FFFFFF"/>
					<stop  offset="1" style="stop-color:#000000"/>
				</linearGradient>
				<path style="fill:url(#SVGID_00000026855685072552726720000009198620773622488983_);" d="M476.02,999.71
					c0-0.08-0.01-0.15-0.03-0.21c0.13-0.5,0.25-1.01,0.34-1.55c0.22-1.55-0.44-2.54-1.21-3.64c-0.77-1.1-3.42-3.53-5.96-4.86
					c-2.54-1.32-13.25-4.64-16.45-5.74c-1.96-0.68-4.69-0.4-7.01,0.17c1.9-0.61,3.06-1.23,4.55-1.71
					c2.57-0.83,12.42-4.64,12.42-4.64s2.65-0.99,3.48-4.72c0.83-3.73,1.41-8.69,0.99-10.02c-0.28-0.88-2.16-1.25-3.95-1.42
					c0.21-25.55,0.56-97.36,0.56-97.36s0.17-6.96-3.39-9.61c-1.08-0.83-4.14-0.99-5.22-0.99c-1.08,0-131.16,0.41-131.16,0.41
					s-2.98-0.41-2.9,2.65c0.08,2.48,1.57,2.57,3.23,2.57l32.13-0.17c0,0,0.24-0.09,0.55,0.08c-0.03,0-0.05,0-0.05,0l0.06,0
					c0.46,0.26,1.08,1.07,1.43,3.56c0.56,4.08,0.04,70.25,0,74.84c-10.07,0.83-17.86,1.89-20.79,2.41
					c-5.55,0.99-4.97,11.18-5.05,16.39c-0.05,3.42-0.18,9.03-0.72,17.57c-0.7,0.13-7.73,1.45-9.38,2.47
					c-1.74,1.08-2.24,2.65-1.49,4.31c0.74,1.65,3.2,2.06,10.22,2.15c-0.18,2.23-0.38,4.6-0.61,7.12c-1.66,18.05-7.12,40.9-7.12,40.9
					c16.87-1.03,33.36-1.01,47.98-0.52c0.18,1.45,0.53,4.25,0.76,6.21c0.33,2.76,0.66,4.31,0.55,6.51
					c-0.04,0.72-0.02,1.87,0.25,3.19c0.02,0.17,0.05,0.37,0.1,0.59c-1.16,0.25-2.08,0.79-2.62,1.49c0.61-0.63,1.86-0.64,3.09-0.19
					c0.6,1.52,1.63,3.07,3.35,4.3c0.18,1.65,0.01,3.75,0.31,6.46c0.5,4.47,2.33,6.32,3.04,6.9c1.32,1.08,1.05,2.65,0.99,3.15
					c-0.94,6.79,4.58,8.17,5.91,9.11c1.32,0.94,2.68,1.24,2.98,2.21c0.72,2.32,1.78,2.93,2.33,3.26c0.55,0.33,1.86,0.94,1.37,1.16
					c-0.5,0.22-1.1,0-2.43-1.27c0.11,0.55,0.26,1.05,1.55,1.6c3.09,1.32,1.34,1.73,3.42,4.86c1.32,1.99,4.2,4.14,6.18,4.08
					c1.99-0.05,3.2-0.12,3.2-0.12c0.41,0.37-0.04,2.44,3.31,8.07c3.35,5.63,11.39,7.7,19.54,6.67c8.16-1.04,12.3-3.97,14.57-6.13
					c2.28-2.15,1.99-3.81,1.99-4.35s-0.12-0.5,0.5-1.7s1.12-3.68,1.04-5.22s0.08-4.18,0.29-4.76c0.21-0.58-0.12-1.24-0.25-1.9
					c-0.12-0.66-0.04-1.74,0.33-2.65c0.37-0.91,2.61-4.47,3.1-5.59s1.16-2.19,0.75-3.35c-0.41-1.16-2.44-0.87-3.64-0.91
					c-1.2-0.04-0.95-1.82-0.87-2.15c0.08-0.33-0.17-0.79-0.66-1.2c0.25-0.79,0.46-1.61-0.75-1.99c-1.2-0.37-1.12-2.07-1.04-2.86
					c0.08-0.79,0.17-2.11-0.41-2.82c-0.67-0.81-1.65-1.03-2.39-1.06c2.12-0.74,5.15-2.84,6.65-6.94c1.66-4.53,1.21-7.4,0.99-9.05
					c-0.22-1.66-0.33-2.54-0.22-4.08c0.11-1.55-0.44-2.87-0.77-4.75c-0.33-1.88,0.11-3.86,0.11-5.74c0-1.88,0.99-5.63,1.65-9.38
					c0.66-3.75,1.55-6.4,1.99-9.27c0.44-2.87,0.33-3.64,0.99-4.86c0.2-0.37,0.37-0.71,0.55-1.02c0.23-0.24,0.53-0.53,0.91-0.8
					c0.56-0.41,1.75-0.06,2.58,0.26c0.41,0.23,0.85,0.46,1.59,0.56c1.55,0.22,2.76-0.22,2.82,0.77c0,0,0.02,0.87,0,1.66
					c-0.03,1.38,2.1,2.4,2.71,1.63c0.61-0.77,1.16-0.48,1.93,0.3c0.44,0.44,0.72,1.6,1.6,1.71c1.5,0.19,1.56-0.65,2.51-0.93
					c1.05-0.31,1.12-0.39,1.68-0.4c0.82-0.02,2.01-0.45,2.63-1.65c0.66-1.29,1.43-1.04,1.93-1.76c0.5-0.72,1.63-2.49,0.86-4.42
					C476.55,1000.76,476.23,1000.11,476.02,999.71z M399.1,858.76c2.99-0.03,5.96-0.06,8.81-0.09c-1.73,1.01-3.64,2.06-5.19,2.52
					c-1.66,0.5-2.98,0.58-3.39,0C399.06,860.83,399.1,859.63,399.1,858.76z M419.28,934.39c-1.49,0.59-4.25,1.77-6.15,2.58
					c-7.1-0.36-15.33-0.63-24.07-0.76c-9.15-0.13-18.29,0.25-26.33,0.82l0.41-70.87c0,0,0-1.1-0.1-2.46
					c0.03-0.01,0.04-0.2,0.02-0.66c-0.06-1.25-0.34-2.25-0.59-2.92c-0.11-0.36-0.25-0.68-0.4-0.91c1.38-0.08,16.22-0.24,31.79-0.4
					c0.02,0.21,0.02,0.44,0.01,0.73c-0.08,1.57-0.08,2.73-0.58,4.22c-3.39,7.37,2.9,12.42,2.9,12.42l0.99,0.11c0,0,0,0,2.21,2.43
					c1.16,1.28,2.24,3.82,3.66,8.44c-0.02,0.04-0.06,0.08-0.08,0.11c-0.33,0.66-1.08,1.82-0.91,3.64c0.16,1.77,1.51,2.72,3.21,4.05
					c0.79,2.93,1.69,6.32,2.72,10.25c5.08,19.32,10.85,23.68,12.45,25.61c0.42,0.5,0.83,0.95,1.13,1.35
					C421.73,932.66,421.55,933.49,419.28,934.39z M422.8,892.68c1.44-1.81,3.76-3.23,5.84-3.92c2.98-0.99,5.63-1.66,6.79-3.64
					c2.57-3.23-5.46-6.96-10.27-6.96c-3.35,0-5.73,0.89-8.05,2.04c-0.57-2.75,0.04-4,0.43-5.02c0.66-1.74,3.81-5.22,5.88-6.96
					c2.07-1.74,8.03-6.71,10.85-8.28c0.93-0.52,1.48-1.01,1.8-1.42c0.74,0.01,1.4,0.01,1.84,0.01c1.74,0,18.38,0.25,18.38,0.25
					s2.73-0.41,2.73,7.12c0,4.96-0.39,46.83-0.66,74.85l-4.11-0.04c-0.35-0.77-0.66-1.28-0.66-1.28s-0.03,0.05-0.08,0.13
					c-1.28-7.57-9.11-17.38-16.1-26.63C430.24,903.45,426.77,899.45,422.8,892.68z M442.1,985.15c-2.1,1.1-5.52,6.51-7.62,9.39
					c-0.83-2.43-1.02-4.68-1.02-6.62c0.03-0.14,0.05-0.29,0.06-0.44c0.04-0.71,0.06-2.09,0.07-3.28c0.01-0.2,0.01-0.39,0.01-0.58
					c0-0.07,0-0.16,0-0.23c0.87,1.08,2.69,2.33,6.38,1.78c1.66-0.25,2.98-0.52,4.08-0.8C443.28,984.61,442.6,984.89,442.1,985.15z
					 M440.66,975.66c-3.24,0.96-5.95,1.76-6.69,1.97c0.18-1.13,0.45-2.15,0.85-2.87c1.1-1.99,4.2-8.72,5.52-12.14
					c1.32-3.42,1.88-4.86,1.88-4.86s2.5-1.21,4.93-2.57c1.18-0.57,2.27-1.21,3.25-2.02c0.03-0.02,0.07-0.05,0.1-0.07
					c2.57-1.9,4.97-6.46,4.8-8.78c-0.01-0.14-0.03-0.28-0.05-0.42l0.05,0.01l3.03,0.2c-0.07,7.25-0.13,13.32-0.17,17.24
					c-1.24,0.25-2.3,0.85-2.45,2.27c-0.25,2.4-0.58,5.96-1.66,6.87C453.16,971.24,444.78,974.27,440.66,975.66z"/>
				
					<linearGradient id="SVGID_00000101799402779699367870000003777218292709168313_" gradientUnits="userSpaceOnUse" x1="370.3977" y1="1060.8965" x2="370.3977" y2="87.9429">
					<stop  offset="0" style="stop-color:#FFFFFF"/>
					<stop  offset="1" style="stop-color:#000000"/>
				</linearGradient>
				<path style="fill:url(#SVGID_00000101799402779699367870000003777218292709168313_);" d="M370.49,1048.15
					c-0.07,0.08-0.14,0.16-0.19,0.25C370.36,1048.31,370.42,1048.23,370.49,1048.15z"/>
			</g>
			<g>
				
					<linearGradient id="SVGID_00000041291340942777095860000007772110958930947731_" gradientUnits="userSpaceOnUse" x1="646.3387" y1="1060.9672" x2="646.3387" y2="84.6025">
					<stop  offset="0" style="stop-color:#FFFFFF"/>
					<stop  offset="1" style="stop-color:#000000"/>
				</linearGradient>
				<path style="fill:url(#SVGID_00000041291340942777095860000007772110958930947731_);" d="M646.62,1005.57
					c-0.33,0.49-0.49,0.9-0.56,1.09C646.12,1006.49,646.27,1006.14,646.62,1005.57z"/>
				
					<linearGradient id="SVGID_00000183969333112341905270000011236368224311569043_" gradientUnits="userSpaceOnUse" x1="686.1093" y1="1060.9525" x2="686.1093" y2="84.7987">
					<stop  offset="0" style="stop-color:#FFFFFF"/>
					<stop  offset="1" style="stop-color:#000000"/>
				</linearGradient>
				<path style="fill:url(#SVGID_00000183969333112341905270000011236368224311569043_);" d="M685.79,1012.39
					c0.56,0.78,0.8,1.2,0.53,0.69C686.19,1012.85,686.01,1012.62,685.79,1012.39z"/>
				
					<linearGradient id="SVGID_00000002360748749136446450000007347554309538053788_" gradientUnits="userSpaceOnUse" x1="646.0386" y1="1060.9288" x2="646.0386" y2="85.2543">
					<stop  offset="0" style="stop-color:#FFFFFF"/>
					<stop  offset="1" style="stop-color:#000000"/>
				</linearGradient>
				<path style="fill:url(#SVGID_00000002360748749136446450000007347554309538053788_);" d="M646.06,1006.66
					c-0.03,0.08-0.04,0.12-0.04,0.12S646.03,1006.74,646.06,1006.66z"/>
				
					<linearGradient id="SVGID_00000161632604330901484680000008583240669577190836_" gradientUnits="userSpaceOnUse" x1="718.4861" y1="1060.9323" x2="718.4861" y2="85.1802">
					<stop  offset="0" style="stop-color:#FFFFFF"/>
					<stop  offset="1" style="stop-color:#000000"/>
				</linearGradient>
				<path style="fill:url(#SVGID_00000161632604330901484680000008583240669577190836_);" d="M790.15,971.23
					c-1.1-0.55-3.97-0.17-5.96-0.17c-0.19,0-1.16,0.02-2.76,0.06c-0.37-3.27-0.66-6.28-0.83-8.73c-0.66-9.61,0.11-20.09-2.76-24.51
					c-2.87-4.42-15.01-4.31-19.21-4.64c-0.55-0.04-2.07-0.13-4.33-0.23l-0.41-66.9c0,0-0.22-7.62,1.43-8.17
					c2.87-0.22,30.58-0.22,30.58-0.22s3.53,0,3.75-2.21c0.22-2.21-1.1-2.98-3.97-2.87c-2.87,0.11-123.43,0.49-125.42,0.55
					c-3.42,0.11-9.38-1.43-9.71,9.61c0,0,1.52,76.38,2.12,97.06c-0.61,0.01-1.09,0.04-1.24,0.09c-0.55,0.22-0.55,1.77-0.44,4.08
					c0.11,2.32,0.44,9.39,4.64,11.26c4.19,1.88,13.91,4.09,16.45,4.64c2.54,0.55,8.06,1.1,9.5-0.77c0.61-0.8,0.54-1.27,0.21-1.65
					c0.7,0.15,1.67,0.32,2.88,0.42c0,0.08,0,0.16,0,0.24c0.07,4.74,2,21.61,4.11,34.53c-0.06,2.27-0.35,4.02-0.91,3.12
					c-0.48-0.78-1.49-2.42-2.63-3.96c0.21,0.17,0.39,0.34,0.55,0.5c-1.03-1.43-3.14-4.07-5.21-4.5c-0.7-0.14-1.33-0.24-1.92-0.33
					c-1.48-0.31-2.95-0.55-3.78-0.86c-0.1-0.08-0.19-0.15-0.27-0.25c-0.77-0.99-2.43-4.09-3.31-4.42c-0.14-0.05-0.4-0.12-0.74-0.21
					c-0.01-0.01-0.02-0.01-0.03-0.01c-0.94-0.36-2.93-0.73-5.16-0.98c-1.35-0.21-2.7-0.39-3.78-0.46c-1.86-0.13-5.37,0.08-8.39,0.75
					c-0.8,0.14-1.53,0.34-2.21,0.62c-1.22,0.43-2.22,0.96-2.75,1.62c-0.77,0.95-1.28,1.67-1.61,2.21c0.05-0.08,0.11-0.16,0.17-0.24
					c-0.33,0.51-0.57,1-0.77,1.46c-0.55,1.21,0.11,1.99,0.55,3.97c0.44,1.99,0.88,4.97,1.88,5.74c0.99,0.77,5.08,2.21,6.96,3.42
					c1.88,1.21,4.64,6.18,7.07,9.5c2.43,3.31,4.64,6.73,8.28,11.26c3.64,4.53,6.62,7.18,7.95,8.39c1.32,1.21,1.55,3.09,2.21,3.97
					c0.66,0.88,3.64,2.98,7.07,4.75c3.42,1.77,9.5,4.31,12.48,5.74c1.23,0.59,2.29,0.99,3.31,1.33c-0.01,0.03-1.11,4.64-1.88,6.51
					c-0.77,1.88-1.66,5.08-0.66,7.51c0.99,2.43,0.72,2.15,0.44,2.87c-0.28,0.72-0.11,1.38,0.17,2.04c0.28,0.66-0.07,1.89-0.28,2.26
					c-0.66,1.19,0.06,2.02,0.25,2.76c0.41,1.66,0.64,1.55,0.58,1.88c-0.06,0.33-2.21,4.36,0.22,8.83c2.43,4.47,12.09,18,23.57,13.69
					c1.05,0.77,9.66,2.82,15.9-6.07c6.24-8.89,5.96-12.48,4.36-20.92c-1.52-8.02-3.44-13.2-5.76-15.92c0.08-0.07,0.17-0.13,0.23-0.2
					c1.74-1.68,0.61-3.7,1.49-3.81c0.88-0.11,4.64-1.65,8.17-2.43c3.53-0.77,5.96-0.44,8.39-1.66c2.43-1.21,6.51-3.31,9.16-5.96
					c2.65-2.65,3.75-4.86,5.52-10.27c1.77-5.41,4.64-17.55,5.63-21.64c0.13-0.53,0.25-1.08,0.36-1.64c4.74,0.03,8.52,0.2,10.79,0.53
					c-0.22-3.42-2.87-15.79-4.75-24.4c-1.2-5.49-2.66-14.88-3.74-23.45c0.17-0.01,0.26-0.01,0.26-0.01s4.93-0.1,7.08-0.37
					C791.6,974.71,791.64,971.9,790.15,971.23z M679.53,972.56c-4.33-0.87-17.72-4.2-18.93-4.86c-0.26-0.14-0.56-0.27-0.88-0.42
					c-0.21-0.12-0.4-0.24-0.58-0.37c-0.1-1.38-0.13-3.21-0.2-4.51c-0.11-1.99,0.22-2.21-1.88-2.43c0,0-0.06,0-0.14-0.01
					c-0.05-3.24-0.15-10.07-0.28-18.69c0.06,0.35,0.13,0.66,0.2,0.92c0.55,1.99,1.54,2.98,3.86,5.08
					c2.05,1.86,9.27,8.06,11.59,10.16c2.26,2.05,6.63,4.1,9.09,6.35c-0.34,2.04-0.03,5.01,1.61,9.33
					C681.86,972.97,680.69,972.79,679.53,972.56z M681.49,883.56c-1.11,2.81-0.69,3.66-0.69,3.66s0.32,0.21,0.91,0.66
					c-2.62,5.14-5.23,11.37-6.65,15.24c-1.99,5.41-7.51,9.61-10.49,13.47c-2.98,3.86-6.29,10.93-7.4,15.46
					c-0.3,1.23-0.49,2.4-0.61,3.5c-0.43-29.45-1.04-72.95-1.04-72.95s-0.02-0.48,0.02-1.11c0.01,0.01,0.01,0.03,0.02,0.04
					c0,0-0.01-0.13,0-0.34c0.08-0.84,0.28-1.84,0.76-2.42c0.19-0.2,0.42-0.35,0.7-0.44c0.08-0.02,0.17-0.04,0.26-0.04
					c0.47,0,5.95-0.02,14.02-0.05c-0.85,0.73-1.72,1.66-2.21,2.7c-1.21,2.54,1.55,4.53,4.08,6.4c2.54,1.88,7.07,5.08,7.84,5.85
					c0.77,0.77,3.42,3.31,3.42,4.08C684.44,877.28,682.55,880.53,681.49,883.56z M693.21,858.17c0.24,0.34,0.63,0.75,1.28,1.34
					c1.43,1.32,2.76,2.98,3.86,5.41c1.1,2.43,1.1,4.75,1.1,4.75s0,0-1.66-1.66c-0.64-0.64-1.04-0.73-1.37-0.46
					c-0.9-1.27-1.85-2.59-2.49-3.63c-1.43-2.32-0.99-2.21-1.66-4.2c-0.19-0.57-0.43-1.09-0.68-1.55
					C692.13,858.17,692.67,858.17,693.21,858.17z M697.85,933.62c-2.08-1.03-5.8-1.87-6.46-3.01c-0.88-1.54-0.11-2.43,2.21-4.19
					c2.32-1.77,5.63-8.61,7.29-11.37c0.21-0.34,0.4-0.69,0.59-1.05c1.39,1.73,2.66,3.5,2.94,4.58c0.64,2.44,7.49,9.26,9,13.61
					l0.16,0.53c0.01,0.02,0.01,0.04,0.02,0.06C708.36,932.95,703.04,933.22,697.85,933.62z M749.25,867.46
					c0.11,6.67,0.48,62.48,0.49,65.4c-0.49-0.02-0.99-0.03-1.51-0.05c-1.48-3.33-4.92-8.49-5.94-9.6c-0.17-0.18-0.34-0.38-0.52-0.58
					c-1.27-1.72-2.41-3.19-3.02-4.05c-0.15-0.23-0.3-0.45-0.43-0.66c-0.58-1.09-1.6-1.99-3.26-3.74c-0.46-0.52-0.98-1.13-1.6-1.89
					c-0.92-1.14-1.99-2.3-3-3.35c-2.67-2.98-4.16-3.9-6.05-6.26c-2.21-2.76-2.98-3.31-5.41-6.07c-0.42-0.48-0.74-0.87-1-1.21l0-0.01
					l-0.17-0.22c-0.42-0.58-0.64-1-0.86-1.45c0.25-0.21,0.46-0.36,0.59-0.43c1.43-0.77,0.66-2.1-0.55-3.31
					c-1.21-1.21-1.43-3.09-0.55-4.2c0.88-1.1,1.44-1.66,2.87-2.1c1.43-0.44,1.55-2.43,1.88-3.64c0.33-1.21,2.65-4.53,3.31-6.07
					c0.66-1.54,2.32-5.3,2.21-6.18c-0.11-0.88-2.32-2.43-4.53-3.97c-2.21-1.55-3.42-1.55-5.41-1.77c-0.48-1.27-1.3-3.06-1.72-3.96
					c18.87-0.07,35.06-0.13,35.06-0.13S749.14,860.61,749.25,867.46z"/>
			</g>
			
				<linearGradient id="SVGID_00000131336204310531212350000015423639105220988828_" gradientUnits="userSpaceOnUse" x1="857.3988" y1="1060.932" x2="857.3988" y2="85.1828">
				<stop  offset="0" style="stop-color:#FFFFFF"/>
				<stop  offset="1" style="stop-color:#000000"/>
			</linearGradient>
			<path style="fill:url(#SVGID_00000131336204310531212350000015423639105220988828_);" d="M930.86,970.02
				c2.26-0.28,3.92,0.06,4.03-2.1c0.11-2.15-1.6-2.59-2.93-2.54c-0.3,0.01-3.99,0.22-9.49,0.53c-0.42-3.84-0.66-7.76-0.66-11.68
				c0.11-11.7-0.44-19.65-4.86-22.3c-0.66-0.4-1.57-0.71-2.65-0.97c0.22-0.02,0.33-0.03,0.33-0.03s-0.32-0.03-0.85-0.08
				c-2.37-0.49-5.44-0.71-8.52-0.8c-1.27-0.11-2.36-0.19-3-0.22c-2.54-0.11-4.31,0.66-19.54-1.88c-3.79-0.63-7.71-1.04-11.59-1.27
				l0.17,0.01l0.25-61.85c0,0,0-4.08,1.46-6.48c0,0.02,0,0.04,0,0.05c0.07-0.16,0.16-0.29,0.25-0.43c0.55-0.75,1.29-1.28,2.26-1.34
				c4.06,0.08,53.49-0.08,53.49-0.08s3.23,0.17,3.39-2.4s-2.15-2.65-4.39-2.73c-2.24-0.08-58.13,0.83-61.94,0.75
				c-3.81-0.08-25.5-0.33-31.8-0.5c-6.29-0.17-36.93-0.25-39.58-0.08c-2.6,0.16-5.76,1.53-7.76,5.19c-5.53,2.37-8.64,6.31-8.64,6.65
				c0,0.41,0.33,1.16,0.99,1.49c0.08,1.9,3.24,2.13,6.05,1.94c0,0.23,0,0.47,0,0.71c0,4.7,0.09,29.53,0.18,51.61
				c-0.7,2.08-1.39,4.21-2.02,6.15c-0.67,1.83-1.34,3.58-1.97,5.17c-4.97,12.42-0.33,17.8,2.82,20.37c0.42,0.35,0.86,0.68,1.31,1.02
				c0.01,2.3,0.02,3.62,0.02,3.62s0,0.03,0,0.08c-0.94-0.05-2.57,0.15-2.65,2.18c-0.11,2.87,1.21,10.16,7.18,11.7
				c4.26,1.1,21.09,3.5,30.35,4.79c0.53,1.92,0.97,3.94,1.31,5.76c0.22,1.19,0.42,2.85,0.59,4.66l0.9,13.22c0,0-1.44-1.18-2.57-2.37
				c-0.7-0.99-2.94-3.92-4.96-4.2c-0.49-0.07-1.16-0.09-1.95-0.08c-2.91-0.11-6.73,0.32-7.66,0.44c-1.32,0.17-6.96,1.74-8.45,1.82
				c-1.17,0.07-4.09,0.64-6.12,1.29c-1.33,0.3-3.41,0.91-5.01,1.22c-1.17,0.08-2.11,0.06-2.11,0.06c-0.14,0.29,0,0.48,0.04,0.53
				c0.15,1.9,0.7,8.37,1.62,9.57c0.13,0.17,0.26,0.34,0.38,0.5c-0.06,1.54,0.09,3.72,0.67,4.3c0.88,0.88,2.1,1.88,2.98,1.1
				c0.59-0.52,1.48-1.18,2-1.56c0.01,0,0.02-0.01,0.04-0.01c0.2,0.11,0.38,0.23,0.56,0.39c0.75,0.66,1.82,0.5,2.73,0.5
				c0.91,0,2.48,0.08,3.23,0.33c0.11,0.05,0.22,0.1,0.33,0.16c0.07,0.04,0.14,0.08,0.22,0.13c0.04,0.03,0.09,0.05,0.13,0.08
				c0.03,0.02,0.06,0.04,0.09,0.06c0.75,0.51,1.53,1.26,2.93,1.92c1.51,0.71,2.58,0.99,2.95,1.07c0.81,0.53,1.54,1.2,1.8,1.8
				c0.5,1.16,0.75,2.9,2.4,4.22c1.66,1.32,3.56,2.9,4.55,4.14c0.99,1.24,2.73,1.9,3.23,2.4c0.5,0.5,0.33,1.24,1.16,2.15
				c0.83,0.91,1.49,1.57,1.74,3.23c0.25,1.66,0.58,2.65,2.15,5.05c1.57,2.4,3.39,3.06,4.22,3.56s0.75,1.9,1.08,4.22
				c1.74,7.62,6.79,7.78,9.44,8.11c2.65,0.33,11.68,1.99,13.33,2.24c0.5,0.08,0.82,0.17,1.06,0.29c-0.04,0.02-0.06,0.04-0.06,0.04
				s-1.9,2.32-2.24,5.05c-0.33,2.73-0.75,4.97-1.08,6.46c-0.33,1.49-0.08,3.06,0.08,4.47c0,0,0.25,0.58-0.41,0.99
				c-0.66,0.41-0.99,0.75-0.5,1.74c0.5,0.99,0.99,2.24,0.99,2.24s-0.5,1.41-0.83,3.31c-0.33,1.9-1.08,4.55-0.66,6.21
				c0.41,1.66,0.33,4.47,2.82,7.45c2.48,2.98,3.48,5.05,4.64,6.46c1.16,1.41,3.56,3.39,7.53,2.48c0.75,0.75,5.22,3.39,10.68,0.41
				c5.46-2.98,9.52-9.77,9.19-15.4c-0.33-5.63-0.75-7.62-0.41-7.45c0.33,0.17,1.41,0.08,1.08-2.57c-0.33-2.65-0.5-5.3-1.24-6.96
				c-0.75-1.66-1.99-3.89-2.48-3.39c-0.07-1.48-0.15-2.3-0.22-3.47c0.79-0.42,1.27-0.89,1.71-1.34c0.91-0.91,2.24-3.73,2.9-4.06
				c0.66-0.33,1.99-2.48,2.57-3.06c0.58-0.58,2.07-0.75,4.72-1.32s5.22-2.32,6.79-3.23c1.57-0.91,1.66-1.32,3.81-1.66
				c2.15-0.33,5.38-3.56,9.27-5.96s4.31-7.37,4.31-8.61c0-0.2,0.02-0.44,0.04-0.69c0.03,0.05,0.07-0.4,0.1-1.09
				c0.12-1.11,0.24-2.35,0.13-3.28c0.02-0.5,0.04-0.98,0.06-1.37c0.11-2.21,0.77-4.53,0.88-6.74c0.08-1.56,0.27-5.04,0.37-6.95
				c6.56-0.32,13.41-0.56,20.39-0.66c-2.98-6.22-10.47-23.83-13.44-44.13C927.46,970.25,930.39,970.08,930.86,970.02z M790.1,907.84
				c-0.05-16.95-0.09-33.56-0.1-40.8c2.26,0.32,4.77,0.91,7.11,1.6c3.97,1.16,8.28,3.89,9.52,4.64c1.24,0.75,1.41,0.5,1.99,1.16
				c0.58,0.66,1.08,1.66,1.08,1.66l-1.48-0.35c-2.16-0.69-3.74-0.89-3.74-0.89s-2.35,6.07-3.78,9.72c-1.43,3.64-3.09,6.63-4.08,8.17
				c-0.11,0.17-0.21,0.35-0.31,0.54c-0.63,1.08-1.18,2.13-1.43,3.02c-0.24,0.84-0.51,1.82-0.85,2.9c-0.02,0.05-0.04,0.11-0.06,0.16
				c-0.52,1.36-1.34,3.4-2.31,5.45c-0.17,0.31-0.33,0.61-0.51,0.92C790.83,906.27,790.48,906.99,790.1,907.84z M796.4,964
				c-3.22-0.59-4.36-2.42-5.03-3.53c-0.06-0.1-0.12-0.21-0.17-0.32c-0.49-1.09-0.84-2.5-0.88-4.31c0-0.23-0.01-0.55-0.01-0.94
				c1.5,0.85,2.99,1.58,4.32,2.1c2.17,0.86,14.43,5.54,21.88,8.44c0.14,0.25,0.28,0.48,0.41,0.67
				C807.13,965.11,798.43,964.21,796.4,964z M822.88,921.39c-0.18,0.09-0.37,0.19-0.55,0.28c-1.55,0.77-1.1,1.88-1.99,3.86
				c-0.88,1.99-2.65,2.98-4.2,4.08c-0.18,0.13-0.38,0.27-0.57,0.41c-1.33,0.86-2.68,1.77-3.82,2.89c-0.34,0.29-0.69,0.59-1.01,0.89
				c-0.21,0.2-0.43,0.42-0.64,0.66c-0.13,0-0.33,0-0.59,0c0.07-2.39,0.33-4.44,0.84-5.72c0.83-2.03,2.15-4.47,2.98-6.29
				c0.83-1.82,7.2-14.32,7.2-14.32s0.17,0.68,0.45,1.75c0.1,0.74,0.38,1.73,0.78,3c0.68,2.57,1.52,5.67,2.2,7.93
				C823.59,920.99,823.22,921.18,822.88,921.39z M826,871.87c-0.66,0.91-1.49,2.73-1.82,1.74c-0.33-0.99-0.41-2.73-1.24-4.39
				c-0.83-1.66-1.16-0.83-0.5-2.65c0.66-1.82-0.25-3.56-0.83-4.8s0.25-1.99,0.25-1.99s1.57,1.08,2.32,1.99
				c0.75,0.91,1.66,2.73,2.24,4.64C827,868.31,826.66,870.96,826,871.87z M866.74,863.76c-0.08,3.75-0.24,60.89-0.25,62.72
				c-3.66-0.1-7.24-0.08-10.61,0.04c-0.18-0.16-0.35-0.29-0.49-0.41c-1.08-0.83-4.8-2.48-5.71-4.06c-0.91-1.57-0.5-2.9-1.32-4.97
				c-0.83-2.07-3.64-9.85-4.39-11.51c-0.75-1.66-1.49-5.13-1.9-6.29c-0.41-1.16-1.57-5.46-2.9-8.94c-1.32-3.48-2.15-5.96-1.99-6.38
				s0.75-1.32,0.75-1.32l-1.02-1.05c0.44-0.6,4.11-5.05,4.53-4.75c1.32,0.97,2.43-0.44,4.31-2.32c2.23-2.23,6.13-8.34,6.73-9.94
				c0.64-1.68,0.08-1.57,0.83-2.48c0.75-0.91,0.11-1.66-0.55-2.4c-0.42-0.47-2.01-2.12-3.18-3.27c10.68,0.12,18.66,0.21,18.66,0.21
				S866.82,859.95,866.74,863.76z"/>
		</g>
		<g>
			<g>
				<path class="st15" d="M560.12,705.88c-232.31,0-420.64,11.86-420.64,26.5c0,0.82-0.49,3.62,0.66,4.42
					c19.43,13.5,200.53,21.31,419.86,21.31c225.05,0,409.37-7.75,420.64-21.75c0.36-0.45,0.11-3.52,0.11-3.97
					C980.76,717.74,792.44,705.88,560.12,705.88z"/>
				<ellipse class="st15" cx="560.12" cy="735.69" rx="420.64" ry="23.18"/>
			</g>
			<path class="st16" d="M1038.28,720.01c3.2-5.19,6.29-8.72,4.86-8.72s-4.86,0.22-12.7-1.32c-7.02-1.38-16.87-2.86-20.76-6.41
				c0-0.04,0.11-12.26,0.44-15.79c0.33-3.53,0-7.95-1.77-10.93c-1.77-2.98-7.18-8.17-10.38-10.6c-3.2-2.43-4.09-3.86-4.53-4.75
				c-0.44-0.88-0.33-2.76-1.43-4.64c-0.63-1.07-2.13-1.86-3.65-2.39c-0.17-0.26-0.33-0.49-0.38-0.64c-0.17-0.44,0.05-1.77,0.39-1.82
				c0.33,0,0.83,0.33,1.77,1.05c-0.11-0.39-0.17-0.61-1.21-1.21c0.99-0.05,1.99,0.61,2.76,1.49c-0.22-0.99-0.66-1.27-2.32-2.04
				c1.49-1.05,3.7-5.08,3.75-7.45c0.72-0.11,2.1-1.05,4.14-3.26c2.04-2.21,4.31-7.95,3.15-14.24c-1.16-6.29-5.24-5.8-5.52-5.52
				c-0.28,0.28-1.1-0.39-1.38-1.27c-0.28-0.88-1.43-1.1-1.88-1.38c-0.44-0.28-0.88-1.77-2.04-3.15c-1.16-1.38-4.75-0.22-5.52,0.17
				c-9.49-6.35-24.12,4.69-26.06,7.56c-1.93,2.87-1.05,3.7-1.43,4.53c-0.39,0.83-1.05,1.99-1.05,3.42c0,1.43-0.83,3.86-1.16,5.08
				c-0.33,1.21-0.39,2.1,0.06,2.76c0.44,0.66,0.5,1.82,0.44,2.65c-0.06,0.83-1.71,2.93-3.2,5.52c-1.49,2.6,1.99,2.15,2.93,1.99
				c0.94-0.17,1.05,0.39,1.05,1.21c0,0.83,0.06,1.38,0.83,1.49c0.77,0.11,1.1,1.27,0.72,1.88c-0.39,0.61,0,1.6,0.55,1.88
				c0.55,0.28,0.44,1.27,0.44,2.87c0,1.6,1.05,2.48,2.76,2.7c1.71,0.22,4.69,0.55,6.24,1.05c1.55,0.5,1.99,3.37,1.99,3.37
				c-4.97,0.99-7.62,5.52-9.94,8.72c-2.32,3.2-4.31,7.84-4.97,11.81c-0.66,3.97-0.22,7.29-0.22,8.5c0,1.21-1.43,3.75-2.1,4.86
				c-0.79,0.74-0.1,2.17,0.76,3.39c0.01,0.01,0.01,0.02,0.01,0.03c-1.32,3.31-0.99,7.4-0.77,9.6c0.09,0.93,0.16,1.99,0.2,3.11
				c-1.19,3.84-2.51,5.94-2.85,6.44c-0.39,0.55-1.49,0.22-6.79-0.22c-5.3-0.44-11.32-2.04-15.35-4.91
				c-4.03-2.87-6.57,0.55-7.51,1.99c-0.94,1.43,2.98,5.46,4.91,6.84c1.93,1.38,9.66,6.68,16.07,8.28c6.4,1.6,10.16,1.99,11.04,2.21
				c0.28,0.07,0.58,0.16,0.89,0.25c1,1.8,3.15,3.21,4.81,3.9c0.08,0.04,0.16,0.07,0.24,0.11c-0.14,0.67-0.45,2.12-0.74,3.6
				c-13.61,0.91-31.98,2.19-34.73,2.41c-4.31,0.33-1.21,3.64-0.33,3.97c0,0,0.05,0,0.16-0.01l-0.49,4.09c0,0,16.47-0.89,33.65-1.77
				c-0.28,0.66-0.61,1.22-0.97,1.55c-1.21,1.1-3.09,2.65-4.08,3.64s-3.42,1.1-5.19,1.1s-17.77-0.44-23.07-0.22
				c-5.3,0.22-17.11,0.88-20.98,7.51c-2.24,3.84-3.14,8.49-3.53,12.67c-4.65,0.98-7.58,2.19-0.22,3.25
				c-0.08,1.75-0.09,3.33-0.12,4.62c-0.11,4.86,0,13.36-0.22,17.11c-0.22,3.75-0.77,7.4-1.43,9.61c-0.66,2.21-1.32,4.42-1.32,4.42
				s1.57,1.48,4.56,2.98c0.17,1.63,0.91,8.94,0.52,11.49c-0.44,2.87-3.53,9.27-5.41,11.26c-1.88,1.99-3.75,4.08-5.3,6.18
				c-0.19,0.25-0.38,0.5-0.57,0.73c0.01-0.02,0.01-0.04,0.02-0.07c0,0-0.25,0.24-0.52,0.57c-2.79,2.91-5.5,3.43-8.31,3.95
				c-2.98,0.55-4.31,1.1-4.31,1.1c-4.53,5.41,23.41,0.33,25.06,0.33c1.66,0,3.64-1.1,5.3-1.99c0.52-0.28,1.02-0.43,1.48-0.52
				c1.25,2.87,3.6,4.4,7.02,4.83c5.3,0.66,42.06,0.99,49.9,0.99c7.84,0,75.96,0.22,75.96,0.22c1.99-0.11,3.42-0.77,2.87-2.54
				c-0.55-1.77-2.21-1.77-5.52-1.66c-3.08,0.1-68.56,0.11-81.65,0.11c-0.02-0.02-0.05-0.04-0.08-0.05l0.03,0c0,0-0.02,0-0.04,0
				c-0.8-0.54-3.16-2.36-3.16-5.02c0-3.18,0.22-62.67,0.22-63.36c0.99,0.12,1.84,0.22,2.54,0.32c9.05,1.21,32.02,3.09,45.26,1.1
				c13.25-1.99,21.2-0.77,22.41-9.72c0.89-6.53,1.15-12.73,2.6-20.76c-0.02,0.18-0.04,0.35-0.06,0.5
				c3.31-0.33,11.81-0.94,14.02-1.49c2.21-0.55,3.37-3.31,0.39-4.42c-1.29-0.48-6.76-1.68-12.54-2.89c0.12-0.48,0.24-0.95,0.37-1.44
				C1030.58,735.11,1035.08,725.2,1038.28,720.01z M923.46,832.29c-0.44,5.41-0.77,6.84-2.21,9.05c-1.19,1.83-3.21,3.66-3.87,4.23
				c-0.11-0.73-0.18-1.25-0.55-1.91c-0.99-2.54-1.88-3.2-2.65-4.75c-0.77-1.55-0.99-4.75-0.88-7.18c0.11-2.35,1.35-7.8,1.43-8.14
				c0.51-0.04,1.03-0.08,1.55-0.14c0,0,0.08-0.13,0.21-0.42c-0.01,0.02-0.03,0.04-0.04,0.06c0.04-0.07,0.07-0.14,0.11-0.21
				c-0.02,0.05-0.04,0.1-0.06,0.14c0.25-0.35,0.67-0.6,1.3-0.71c0.88,0.07,2.4,0.18,4.24,0.21
				C922.44,823.61,923.84,827.66,923.46,832.29z M937.21,855.43c-2.31-0.03-4.68-0.06-6.97-0.09c1.02-0.6,2.25-1.34,3.62-1.99
				c0.99-0.37,1.96-0.6,2.64-0.41c0.06,0.02,0.11,0.03,0.16,0.04c0.54,0.38,0.61,1.06,0.61,1.06L937.21,855.43z M944.43,855.52
				c0.1-0.88,0.25-2.31,0.45-4.02c0.22-1.9,0.39-4.08,0.19-5.86c0.08,0.38,0.11,0.57,0.08,0.34c-0.08-0.66,0-1.57-0.79-3.02
				c-0.17-0.27-0.37-0.51-0.57-0.73c-0.8-1.7-1.54-2.64-2.56-3.76c-1.1-1.21-2.32-4.64-2.76-6.84c-0.43-2.18-1.73-7.67-1.87-11.32
				c0.48-0.25,0.92-0.52,1.32-0.83c-0.99-3.97-1.54-4.86-2.1-7.18c-0.55-2.32-0.66-5.19-0.99-6.62c-0.33-1.43-1.77-5.08-1.88-6.84
				c-0.11-1.77-0.11-5.08-0.55-6.96c-0.44-1.88-2.43-5.52-0.88-6.85c0,0,0.01-0.01,0.02-0.01c5.69,0.56,11.5,1.14,16.1,1.63
				l-0.33,62.52c0,0,0.01,2.09,0.85,3.98c0.56,1.32,1.36,2.16,1.61,2.4C948.28,855.55,946.46,855.54,944.43,855.52z"/>
			<path class="st16" d="M266.56,809.88c-4.47-0.17-7.78-3.15-9.94-4.64c-2.15-1.49-5.13-3.97-5.13-3.97s1.32-0.66,0.66-2.32
				s-1.99-6.96-3.81-9.11c-1.82-2.15-1.99-7.95-3.97-11.59c-1.99-3.64-6.13-14.41-9.27-20.7c-3.15-6.29-4.64-11.26-9.11-12.75
				c-2.18-0.73-4.75-0.9-7.45-0.81c-0.83-0.7-1.7-1.26-2.55-1.6c-3.57-1.4-17.32-2.5-21.29-2.7c-1.82-0.09-7.75-0.41-14.21-0.77
				c0.17-0.01,0.34-0.02,0.52-0.04c2.98-0.22,5.41,0.22,5.41,0.22s-0.44-3.31-1.32-4.97c-0.88-1.66-3.64-4.75-5.19-6.07
				c-1.54-1.32-3.09-3.31-4.31-3.64c-1.21-0.33-1.99-0.33-2.87-1.32c-0.88-0.99-2.21-2.43-2.76-2.98c-0.55-0.55-1.65-2.54-3.75-3.86
				c-2.1-1.32-6.62-6.62-6.85-7.95c-0.22-1.32-0.77-4.31-4.53-8.72c-3.75-4.42-4.2-4.64-6.29-7.95c-2.1-3.31-3.09-6.96-8.61-9.05
				c-5.52-2.1-9.88-2.54-9.88-2.54s1.16-1.27,2.37-1.49c1.21-0.22,4.31-0.28,4.31-2.82c0,0-0.33-2.4-0.04-2.82
				c0.29-0.41,0.71-1.41,0.46-2.07c-0.25-0.66-0.41-1.04-0.54-1.32c0.66,0.08,0.99-0.54,1.16-0.95s-0.37-1.57-0.21-1.99
				c0.5-0.41,1.74-0.87,1.57-1.86c-0.17-0.99-0.75-2.28-0.58-3.19c0.62-0.54,2.28-1.16,2.4-3.73c0.29-0.04,0.29-0.25,0.29-0.95
				s-0.12-1.28-0.12-1.28l-3.19-0.66c0,0-0.31-0.01-0.17-0.87c0.18-1.05-0.43-1.49-0.81-2.37c-0.42-0.96-0.99-5.11-2.56-8.13
				c0.36-0.5,1.35-3.04,0.52-4.4c-1.51-2.44-5.03-5.47-7.73-7.18c-2.71-1.71-5.24-4.91-13.58-2.65c-1.38,0.33-3.15,0.44-5.13,0.55
				c-1.99,0.11-10.05,2.65-13.75,9.05c-3.7,6.4-2.65,7.45-2.82,8.72c-0.17,1.27-0.61,2.1-2.21,2.65c-1.6,0.55-3.75,2.76-0.72,6.84
				c3.04,4.09,3.81,6.57,2.37,7.89c-1.44,1.32-5.24,3.09-2.76,7.95c2.48,4.86,4.42,5.63,5.13,6.73c0.72,1.1,0.72,3.26,2.76,3.26
				c1.89,0,2.87-0.65,3.23-0.31c-0.2,0.09-0.3,0.14-0.3,0.14l0.51,1.13c-0.09,0.08-0.23,0.23-0.4,0.53
				c-0.28,0.5-0.22,0.88-0.17,1.44c0.06,0.55-0.61,1.32-0.94,2.1c-0.33,0.77-2.71,3.53-3.64,5.63c-0.94,2.1-0.99,4.14-1.55,4.86
				c-0.54,0.7-1.44,2.97-1.69,5.18c-4.91,1.28-8.85,1.99-10.78,1.89c-3.15-0.17-2.27,0.17-1.66,0.99c0,0,6.46,8.45,10.27,15.57
				c3.03,5.67,6.51,13.54,8.67,22.02c-5.94,1.19-11.89,2.4-13.53,2.82c-3.42,0.88-1.66,4.75,1.1,5.19c2.76,0.44,14.14,0.9,14.14,0.9
				c0-0.01,0-0.02,0-0.03c1.35,9.2,1.24,12.59,1.7,17.01c0.5,4.76,2.48,15.52,15.9,16.85c13.41,1.32,48.36-1.82,56.14-2.98
				c0.27-0.04,0.54-0.08,0.81-0.12c0.03,1.09,1.19,45.57,1.73,55.82c0.52,9.85-3.83,11.15-7.2,11.72c-1.9,0.09-3.97,0.21-4.59,0.24
				c-16.05,0.27-72.92-0.16-74.77-0.19c-2.1-0.04-5.08-0.18-5.08,2.19c0,2.37,2.21,2.64,2.21,2.64s115.04,0,124.74,0
				c3.3,0,5.95-1.66,7.55-3.62c8.51,0.21,17.03,0.37,17.36,0.2c0.66-0.33,2.65-0.33,2.15-2.15c-0.5-1.82-2.32-2.32-5.3-3.48
				c-1.12-0.43-2.42-1.13-3.75-1.9c-0.14-0.09-0.3-0.18-0.46-0.27c0,0,0.01,0,0.01,0.01c-2.06-1.23-4.13-2.6-5.58-3.47
				c-0.74-0.44-1.2-1.06-1.51-1.71c0.01-0.5,0.01-1.69-0.01-3.41c0.95-0.29,3.14-0.96,4.66-1.34c1.99-0.5,9.94-4.64,9.94-4.64
				s-0.83-7.95-1.66-11.26c-0.62-2.49-1.34-10.21-1.66-13.9c0.03-0.05,0.02-0.16-0.03-0.35c-0.09-1.02-0.14-1.65-0.14-1.65
				s2.48-0.83,1.99,0.66c-0.5,1.49-1.32,2.98-1.32,2.98s0,2.98,0.66,6.46c1.99,1.82,9.11,3.64,11.59,4.31s9.94,3.48,13.75,3.48
				c3.81,0,12.92-3.31,14.41-3.97c1.49-0.66,3.15-1.82,1.66-4.97C274.18,809.05,271.04,810.04,266.56,809.88z M138.05,656.86
				c0.88-0.11,2.21,0.55,2.21,0.55s0.66,2.87-1.66,3.2C138.61,660.61,137.17,656.97,138.05,656.86z M134.41,643
				c-0.05,0.15-0.08,0.27-0.11,0.37c-0.59-1.09-1.31-2.02-2.21-2.57C132.09,640.79,135.3,640.3,134.41,643z M98.97,748.38l-1.85,0.1
				c0.58-0.13,1.19-0.26,1.81-0.39c0.07,0.35,0.14,0.69,0.2,1.04L98.97,748.38z M99.27,749.93
				C99.27,749.93,99.27,749.93,99.27,749.93c0.05,0.28,0.1,0.55,0.15,0.83c0,0.03,0.01,0.06,0.01,0.09
				C99.37,750.51,99.31,750.19,99.27,749.93z M204.46,840.35c-1.49,0-1.82-0.17-2.82,2.32c-1.87,5.03-0.49,8.44-0.1,9.25
				c-8.03,0-19.99-0.09-24.3-0.09c0,0,2.06-2.22,2.58-5.89c0.56-3.25,0.29-7.07,0.29-11.89c0-7.92-0.92-49.55-0.95-50.97
				c3.72-0.48,7.48-0.88,10.46-1.04c0.39,0.09,3.6,0.78,6.69,0.64c1.3,1.72,2.5,3.36,3.18,4.17c1.82,2.15,1.82,4.14,1.66,6.04
				c-0.17,1.9-1.32,3.4-0.5,5.5c0.83,2.1,2.98,2.87,2.32,4.86c-0.66,1.99-0.33,4.31-0.17,5.71c0.17,1.41,0.99,7.86,1.16,10.02
				c0.17,2.15-0.83,6.96-0.83,9.77s1.32,8.78,1.32,8.78C204.46,838.36,205.12,839.19,204.46,840.35z"/>
			<path class="st15" d="M348.07,768.81c-0.25-4.06-1.82-9.52-6.38-12.17c-1.11-0.65-2.8-1.42-4.87-2.27
				c-0.03-0.77-0.08-1.56-0.16-2.37c1.44,1.14,3.22,0.08,3.37-0.99c0.17-1.16-0.25-5.13-2.9-9.19c-2.65-4.06-7.45-4.39-11.18-4.89
				c-3.73-0.5-25.01-3.81-27.49-3.97c-1.29-0.09-3.27-0.37-5.24-0.49c-0.09-0.53-0.16-1.07-0.17-1.64c-0.08-2.72-1.32-5.3-0.66-8.83
				c0.46-2.44,0.49-6.09,0.76-9.24c0.94-4.72,2.41-10.93,2.41-10.93s1.41,1.9,4.89,4.39c3.48,2.48,8.59,6.37,12.59,7.95
				c3.64,1.43,9.52,0.91,11.01,0.41c1.49-0.5,4.31-0.25,6.29-0.41c1.99-0.17,4.06-0.58,5.46-1.49c1.41-0.91,4.8-0.99,6.54-2.32
				c1.74-10.76-2.48-19.62-2.48-19.62s-4.34,1.36-5.8,1.9c-1.77,0.66-5.99,1.34-7.54,1.66c-2.68,0.55-4.39,0.78-6.62-0.83
				c-2.07-1.49-3.06-1.99-3.73-2.65c-0.66-0.66-3.23-2.73-4.31-4.31c-1.08-1.57-2.99-3.71-4.31-4.97c-1.82-1.74-1.99-2.24-2.82-3.39
				c-0.83-1.16-1.24-2.4-1.99-4.06c-0.44-0.98-1.32-2.07-1.9-3.15c1.66-6.29,0.33-11.43-1.66-14.41c-1.62-2.43-3.73-3.43-5.62-3.98
				c0.16-0.27,0.27-0.73,0.07-1.56c0.66-0.83,0.58-1.82,0.5-2.4c-0.08-0.58-0.5-1.24-0.25-1.57c0.25-0.33,0.91-0.83,1.74-1.41
				s1.82-1.82,0.5-3.56c-1.32-1.74-2.9-3.31-3.15-4.06c0,0,0.41-1.9,0.25-2.65c-0.17-0.75-0.33-2.4-0.25-3.23
				c0.08-0.83-0.17-5.45-2.07-9.61c-2.24-4.89-6.87-9.99-13-11.57c-6.13-1.57-11.92-0.52-13.08,0.47c-0.99-0.66-6.04-1.74-9.11-1.16
				c-3.06,0.58-10.68,3.39-11.76,12.17c-0.41,3.23-0.41,5.38-0.08,10.1c0.19,2.73,0.25,5.63,0.41,7.29c0.23,2.31,0.58,5.3,1.08,6.71
				c0.01,0.04,0.04,0.07,0.07,0.1c-2.12,0.82-5.34,3.76-8.43,5.94c-3.39,2.4-7.45,3.97-9.44,5.63c-1.99,1.66-3.48,3.31-4.8,4.22
				c-1.32,0.91-3.15,2.48-3.73,3.73c-0.58,1.24-0.75,6.21-0.41,9.44c0.33,3.23,0.66,6.38,0.75,7.95c0.03,0.61,0.16,1.23,0.33,1.86
				c-0.11-0.14-0.16-0.29-0.16-0.29s0.17,0.62,0.46,1.34c0.2,0.69,0.4,1.4,0.53,2.14c0.23,1.25,0.03,3.05-0.12,4.05
				c-11.41,0.75-23.5,0.95-34.57-0.08c0,0,9.29,19.26,13.22,45c-5.15,0.21-8.48,0.35-8.48,0.35s-5.19-0.44-4.31,3.97
				c0.55,1.21,1.88,1.88,3.64,2.1c1.68,0.21,9.34,0.92,10.09,0.99c0.02,0.2,0.04,0.39,0.06,0.59c0.5,5.88,1.08,17.89,1.32,21.03
				s1.66,9.69,10.27,10.27c0.06,0,0.13,0.01,0.19,0.01c2.82,1.55,6.74,3.62,9.17,4.54c4.14,1.57,6.46,1.32,7.78-0.25
				c0.55-0.66,1.08-1.43,1.5-2.11c6.33,0.78,13.04,1.52,18.78,1.78l-0.44,61.3c0,0,0.55,9.72-4.75,9.83
				c-5.3,0.11-52.33,0.44-52.33,0.44s-4.25-0.86-4.42,2.46c-0.11,2.15,1.74,2.48,2.98,2.62c0,0,133.81,0.55,139.99-0.55
				c2.22-0.4,3.73-1.33,4.77-2.49c0.16-0.08,0.34-0.16,0.5-0.23c1.13-0.01,1.99-0.01,2.45-0.01c3.73,0,9.39-0.14,9.39-0.14
				s2.43-3.75-3.97-5.08c-1.46-0.3-4.16-0.97-6.06-1.57c0.01-0.88,0.01-2.66,0.01-5.13c0.14-0.02,0.27-0.05,0.38-0.09
				c0.01,0,0.01,0,0.02,0c0,0,0.01-0.01,0.01-0.01c0.69-0.23,0.86-0.66,0.98-1.32c0.02-0.11,0.06-0.37,0.11-0.76
				c0.02-0.1,0.04-0.2,0.06-0.32c0.07-0.42,0.17-1.26,0.29-2.35c0.38-2.89,0.95-7.1,1.55-10.7c0.34-1.71,0.68-3.43,0.98-5.12
				c0.1-0.51,0.19-1.03,0.27-1.55c0.35-2.06,0.64-4.07,0.79-5.94c0.33-4.14,0.5-7.78,1.24-14.57c0.75-6.79,1.66-12.34,1.66-12.34
				l-0.08,0.27c0.4-2.45,0.8-4.78,1.08-6.23C346.99,779.07,348.32,772.86,348.07,768.81z M276.94,846.72
				c-0.33,0.99-1.08,2.48-1.24,4.39c-0.06,0.72-0.07,1.3-0.05,1.74c-13.62,0.16-24.55,0.3-24.55,0.3c1.24-1.33,1.62-2.88,1.52-2.95
				c0.44-1.28,0.82-3,0.91-5.22c0.22-5.73,0.22-63.87,0.22-64.08c0.16,0,0.33,0,0.5,0c1.92-0.04,3.83-0.11,5.72-0.21
				c1.61,4.06,3.41,8.84,3.89,10.89c0.83,3.56,1.24,9.61,1.82,11.34c0.58,1.74,2.4,15.9,3.31,18.88c0.91,2.98,1.82,6.71,1.66,8.61
				c-0.17,1.9,0.25,5.46,0.99,7.29c0.75,1.82,3.06,2.98,3.64,4.55c0.42,1.13,0.79,1.92,1.09,2.27c-0.07,0.12-0.09,0.21-0.02,0.22
				c0.11,0.01,0.22,0.01,0.34,0C277.03,844.76,277.27,845.74,276.94,846.72z M325.63,745.29c0,0,5.24,0.75,6.11,7.14
				c-5.98-2.15-13.37-4.45-19.8-6.15c-6.41-1.69-12.43-2.99-16.55-3.82c-0.49-0.28-0.86-0.49-0.97-0.57
				c-0.09-0.07-0.19-0.22-0.3-0.42C305.49,742.78,325.63,745.29,325.63,745.29z M315.69,793.98c0,2.87-1.1,12.36-1.99,16.01
				c-0.88,3.64-5.08,17-5.52,21.42c-0.44,4.42-0.69,4.89-0.69,5.3c0,0.19,0.29,0.4,0.84,0.62c-0.59,4.18-2.85,2.65-3.9,8.98
				c-0.49,2.95-0.01,4.92,0.5,6.2c-1.3,0.01-2.62,0.03-3.97,0.05c-0.38-0.96-1.04-2.48-1.74-3.35c-1.08-1.32-3.81-4.64-3.64-6.54
				c0.17-1.9,1.24-1.66,1.74-1.74c0.5-0.08,1.9-0.91,1.82-2.24c-0.08-1.32,0-3.81-0.33-5.3c-0.33-1.49-3.39-6.46-3.48-8.86
				s-0.33-5.13-1.24-7.87c-0.91-2.73-2.98-10.52-2.9-12.5c0.08-1.99,0.25-4.31-0.08-6.62c-0.33-2.32-0.08-10.76-0.25-12.5
				c-0.15-1.58-0.3-5.15-0.58-7.34c5.16-0.53,10.95-1.13,16.48-1.7c2.38,0.33,5.52,0.81,7.28,1.2c1.99,0.44,3.31,0.55,3.42,3.09
				C317.57,782.83,315.69,791.11,315.69,793.98z M329.47,842.36c1.05,0.12,2.13,0.2,3.21,0.21c0,1.32,0.01,2.37,0.01,3.08
				C331.65,845.14,330.5,844.21,329.47,842.36z"/>
			<path class="st15" d="M623.29,677.19c-1.43-3.53-1.66-3.75-1.99-5.52c-0.33-1.77-0.99-2.65-0.88-4.97
				c0.11-2.32-0.11-2.65-0.44-6.07c-0.33-3.42-0.77-6.62-2.43-9.49c-1.66-2.87-3.42-3.09-6.4-4.64c-2.98-1.55-13.25-5.85-14.35-6.29
				c-1.1-0.44-3.31-1.77-3.97-2.54c-0.66-0.77-3.64-1.88-5.41-2.65c-1.77-0.77-5.63-5.74-6.4-7.18c-0.06-0.03-0.12-0.05-0.18-0.08
				c0.5-1.9,2.47-7.43,3.69-10.66c1.41-3.73,3.06-14.74-3.56-21.11c-6.62-6.38-13.83-6.21-18.88-6.04
				c-14.74,0.66-16.56,12.75-16.81,14.74c-1.16,0.83-0.75,2.57-0.66,3.64c0.08,1.08,0.17,2.15-0.33,2.98
				c-0.5,0.83-0.25,1.41-0.75,2.32c-0.5,0.91-3.81,3.56-5.38,6.54c-1.57,2.98,0.5,3.97,1.32,3.89c0.83-0.08,1.41,0.17,1.66,0.66
				c0.25,0.5-0.66,1.99-1.16,3.48c-0.5,1.49,0.58,2.15,1.16,2.4c-1.57,0.17-1.32,1.32-0.25,2.48c0.75,1.78,2.09,3.9,2.54,4.59
				c-5.92,2.18-11.84,4.39-13.52,5.07c-2.1-0.44-4.42,1.55-5.19,3.09c-0.77,1.54-2.54,6.84-3.42,9.71c-0.88,2.87-1.32,4.31-2.1,7.18
				c-0.77,2.87-1.1,7.51-1.1,10.49s-0.77,2.87-1.88,5.63c-1.1,2.76-2.21,4.31-4.2,6.62c-1.99,2.32-3.97,4.42-4.75,6.73
				c-0.77,2.32-1.44,3.53-2.65,4.86c-1.21,1.32-2.21,2.65-2.65,2.54c-0.3-0.07-0.6,0.05-1.36,0.38l-0.96-0.74c0,0-0.04,0-0.09,0
				c-0.76-0.9-2.77-3.11-5.54-4.72c-3.56-2.07-5.63-2.76-7.29-4.36c-1.66-1.6-3.15-2.76-4.64-3.2c-1.49-0.44-1.88,0.11-2.15,0.55
				c-0.28,0.44,0.06,2.1,1.38,3.31c1.32,1.21,2.81,2.43,3.7,2.93c0.88,0.5,1.82,1.33,2.32,2.21c0.5,0.88,1.49,2.15-0.77,2.76
				c-1.77,0.55-3.05,0.54-3.27,0.1c-0.22-0.44,0.18-2.19-1.75-3.08c-1.93-0.88-1.05,2.65-1.1,3.59c-0.06,0.94-0.11,2.87,1.16,3.2
				c1.27,0.33,1.54,0.72,1.1,1.49c-0.44,0.77-0.83,1.6-0.55,2.65c0.28,1.05,1.16,1.49,2.32,1.32c1.16-0.17,3.31,0.06,3.86,0.39
				c0.5,0.3,1.61,0.99,1.95,1.17c-0.01,0.15,0,0.28,0.01,0.38c0.03,0.25,0.18,0.54,0.35,0.81c-0.16,0.8-0.2,1.41-0.04,1.56
				c0.44,0.44,4.42,8.06,5.41,9.72c0.99,1.66,3.87,2.17,5.19,1.99c2.43-0.33,6.29-0.77,9.38-0.88c2.34-0.08,4.81-0.48,6.4-0.58
				c-0.1,2.54-0.2,5.06-0.3,7.52c-0.63,0.01-1.17,0.02-1.61,0.03c-0.1-2.15-5.1-1.26-6.61-1.36c-1.54-0.11-3.42,1.38-4.31,2.15
				c-0.88,0.77-3.09,2.59-4.31,4.14c-1.21,1.55-1.82,7.62-1.82,10.93c0,3.31,2.28,3.49,2.28,3.49s0.03,0,0.09,0.01l-0.01,2.83
				c-0.61,0.44-1.13,0.86-1.53,1.28c-1.88,1.99-2.97,6.86-2.3,8.85c0.45,1.35,2,6.43,3.75,10.15l-0.33,82.64
				c0,3.64,3.75,3.86,3.75,3.86s4.53,0,5.74-0.11c1.21-0.11,110.51,0.22,114.16-0.11c3.64-0.33,3.97-1.77,3.87-3.86
				c-0.11-2.1-3.42-1.99-3.42-1.99s-13.03,0.22-14.57,0.11c-1.55-0.11-1.55-4.25-1.55-4.25l0.63-54.29
				c0.03,0.01,0.06,0.01,0.09,0.02c0.05,0.01,0.1,0.02,0.14,0.03c0.04,0.01,0.08,0.02,0.12,0.03c0,0,0,0,0,0
				c1.21,0.29,2.35,0.32,3.97-0.03c2.32-0.5,5.88-3.39,7.45-4.8c0.85-0.76,1.11-1.11,1.07-1.5c0.78-1.41,0.55-2.85,0.31-5.15
				c-0.33-3.2-0.88-10.71-1.43-18.11c-0.43-5.76-1.59-11.7-2.4-15.73c0.05-2.13,0.11-4.06,0.19-5.53c0.05-0.97,0.13-2.41,0.22-4.17
				c0.69-0.12,6.18-1.06,7.73-1.68c1.66-0.66,2.76-3.53,1.21-5.41c-1.33-1.62-6.93-1.76-8.45-1.77c0.44-7.51,1.01-16.38,1.61-22.57
				c0.06,0,0.13,0,0.2,0c1.29,0.41,2.66-0.09,3.92-0.98c1.79-1.17,3.63-3.42,4.71-5.43c1.43-2.65,1.32-6.18-0.11-11.04
				C627.71,685.91,624.73,680.72,623.29,677.19z M506.8,748.11c0.14-3.23,0.4-7.53,1.08-9.77c1.7-1.34,4.04-2.69,6.22-3.23
				c1.11-0.18,2.13-0.23,2.39-0.25c-0.09,2.58-0.17,5.05-0.24,7.36c-1.98,1-4.52,2.21-7.02,4.19c-0.79,0.63-1.62,1.22-2.46,1.78
				C506.78,748.16,506.8,748.14,506.8,748.11z M535.41,836.94c-1.1,2.32-2.87,5.63-4.09,7.62c-1.21,1.99-3.2,3.97-4.86,5.3
				c-1.28,1.02-4.9,2.56-7.06,3.93c-3.01,0.02-5.28,0.04-6.56,0.06c-1.76-0.02-4.65-0.05-6.05,0.02c-1.12,0.06-1.73-0.49-2.07-1.09
				c-0.02-0.04-0.05-0.09-0.07-0.13c-0.01-0.03-0.02-0.05-0.03-0.08c-0.03-0.06-0.05-0.12-0.08-0.18c-0.01-0.02-0.01-0.04-0.02-0.06
				c-0.02-0.07-0.05-0.13-0.07-0.19c-0.01-0.02-0.01-0.03-0.02-0.05c-0.02-0.06-0.03-0.11-0.04-0.16c-0.05-0.21-0.07-0.38-0.09-0.48
				c-0.02-0.18-0.03-1.15-0.02-2.31c0.07-7.65,0.32-37.32,0.54-62.95c1.72,4.21,3.96,8.63,4.75,10.9c0.99,2.87,1.54,7.51,2.76,9.82
				c1.21,2.32,4.2,11.26,5.08,14.46c0.88,3.2,2.21,6.85,3.75,10.82c1.39,3.57,1.8,5.27,2.43,5.89c0.02,0.08,0.09,0.14,0.22,0.18
				c0.77,0.44,2.54,0.33,4.97-0.55c0.64-0.23,1.69-0.69,2.99-1.31c0.03-0.01,0.06-0.02,0.08-0.03c1.4-0.52,2.49-1.17,3.07-1.56
				c0.15-0.08,0.3-0.16,0.46-0.24C535.63,835.5,535.7,836.34,535.41,836.94z M558.04,851.51c-0.39,0.85-0.66,1.54-0.64,2.13
				c-3.19,0.01-6.37,0.02-9.49,0.02c0.56-0.66,1.06-1.29,1.52-1.71c1.21-1.1,3.75-0.55,5.63-1.54c1.13-0.6,1.82-1.04,2.75-1.8
				c0,0.01,0.01,0.03,0.01,0.04c-0.02,0.02-0.04,0.03-0.06,0.05c0,0,0.15,0.32,0.28,0.73C558.23,850.19,558.29,850.97,558.04,851.51
				z M560.91,784.94c-0.44,1.88-0.22,5.08-0.11,6.96c0.11,1.88-0.9,6.94-0.46,10.47c0.44,3.53-0.33,6.51-0.22,10.16
				c0.11,3.64-0.88,9.49-1.1,11.92c-0.13,1.48-0.19,4.27-0.21,6.22c-0.14-0.27-0.25-0.49-0.32-0.62c-0.55-1.1-2.22-3.82-3.77-4.59
				c-1.36-0.68-3.01-0.51-4.18-1.73c0.25-0.27,0.32-0.36,0.32-0.36s-1.77-2.98-2.98-4.97c-1.21-1.99-3.75-4.42-3.75-6.18
				c0-1.77-0.77-5.52-1.99-7.18c-0.13-0.17-0.26-0.34-0.39-0.51c-0.05-0.09-0.1-0.17-0.16-0.26c-1.15-1.84-2.02-3.15-2.46-4.25
				c-0.03-0.13-0.06-0.25-0.08-0.38c-0.33-2.32-0.44-4.42-2.98-6.18c-0.53-0.37-0.94-0.69-1.24-0.98c-0.53-0.6-0.82-1.36-0.85-2.82
				c0.03-0.34,0.07-0.72,0.11-1.16c0.05-0.63-0.01-1.39-0.16-2.23c-0.08-1.26-0.31-2.39-0.95-3.73c-0.09-0.18-0.19-0.39-0.28-0.58
				c-0.57-1.51-1.25-2.98-1.93-4.17c-0.15-0.27-0.29-0.52-0.41-0.75c-0.27-0.63-0.51-1.23-0.68-1.78
				c8.02,1.15,18.82,2.38,30.62,2.84c0.14,0.88,0.34,2.23,0.45,2.97C560.91,782.21,561.08,783.7,560.91,784.94z M583.54,853.59
				c-0.47-0.74-1.31-1.82-2.53-3.18c-1.88-2.1-2.87-5.3-3.64-7.62c-0.02-0.05-0.03-0.1-0.05-0.15c0.31-0.04,0.49-0.07,0.49-0.07
				s0.66-1.1,0.33-4.08c-0.33-2.98,1.1-5.08,1.55-7.51c0.44-2.43,1.1-9.39,1.44-12.48c0.12-1.08,0.32-2.23,0.55-3.42
				c0.01,0.05,0.02,0.08,0.02,0.08s1.24-5.13,1.99-9.27c0.75-4.14,1.99-12.25,2.24-14.99c0.25-2.73,0.66-7.45,0.99-9.36
				c0.33-1.9,0.83-4.06,0.83-4.06s-0.07,0-0.19,0c0-0.01,0.01-0.02,0.01-0.03c4.21-0.4,8.38-0.97,12.44-1.73
				c0.08-0.01,0.16-0.02,0.24-0.03c-0.07,2.22-0.91,6.21-1.07,8.84c-0.07,1.09,0.09,2.18,0.36,3.2c0.38,1.65,1.1,3.09,1.9,3.95
				c0.31,0.41,0.69,0.72,1.13,0.96c0,0,0.01,0,0.01,0.01c0.01,0.01,0.02,0.02,0.04,0.02c0.53,0.34,1.14,0.6,1.94,0.86
				c-0.34,21.14-0.85,53.18-0.91,55.18c-0.01,0.19,0,0.36,0,0.53c-0.06,0.93,0.07,2.61,0.82,3.74c0.27,0.43,0.51,0.58,0.51,0.58
				S595.96,853.57,583.54,853.59z"/>
			<g>
				<path class="st15" d="M474.09,704.12c-0.61-1.19-1.81-1.63-2.63-1.65c-0.56-0.01-0.63-0.09-1.68-0.4
					c-0.96-0.29-1.01-1.12-2.51-0.93c-0.88,0.11-1.16,1.26-1.6,1.71c-0.77,0.79-1.32,1.08-1.93,0.3c-0.61-0.77-2.74,0.25-2.71,1.63
					c0.02,0.79,0,1.66,0,1.66c-0.06,0.99-1.27,0.55-2.82,0.77c-0.74,0.11-1.18,0.34-1.59,0.56c-0.83,0.33-2.02,0.67-2.58,0.26
					c-0.38-0.28-0.68-0.56-0.91-0.8c-0.18-0.3-0.35-0.65-0.55-1.02c-0.66-1.21-0.55-1.99-0.99-4.86c-0.44-2.87-1.32-5.52-1.99-9.27
					c-0.66-3.75-1.65-7.51-1.65-9.38c0-1.88-0.44-3.86-0.11-5.74s0.88-3.2,0.77-4.75c-0.11-1.55,0-2.43,0.22-4.08
					c0.22-1.66,0.66-4.53-0.99-9.05c-1.5-4.1-4.54-6.2-6.65-6.94c0.74-0.03,1.72-0.25,2.39-1.06c0.58-0.7,0.5-2.03,0.41-2.82
					c-0.08-0.79-0.17-2.48,1.03-2.86c1.2-0.37,0.99-1.2,0.75-1.99c0.5-0.41,0.75-0.87,0.66-1.2c-0.08-0.33-0.33-2.11,0.87-2.15
					c1.2-0.04,3.23,0.25,3.64-0.91c0.41-1.16-0.25-2.24-0.75-3.35c-0.5-1.12-2.73-4.68-3.11-5.59c-0.37-0.91-0.46-1.99-0.33-2.65
					s0.46-1.32,0.25-1.9c-0.21-0.58-0.37-3.23-0.29-4.76s-0.41-4.02-1.04-5.22c-0.62-1.2-0.5-1.16-0.5-1.7s0.29-2.19-1.99-4.35
					c-2.28-2.15-6.42-5.09-14.57-6.13c-8.16-1.04-16.19,1.04-19.54,6.67c-3.35,5.63-2.9,7.7-3.31,8.07c0,0-1.21-0.07-3.2-0.12
					c-1.99-0.06-4.86,2.1-6.18,4.08c-2.08,3.12-0.33,3.53-3.42,4.86c-1.28,0.55-1.44,1.05-1.55,1.6c1.32-1.27,1.93-1.49,2.43-1.27
					c0.5,0.22-0.82,0.83-1.37,1.16c-0.55,0.33-1.61,0.94-2.33,3.26c-0.3,0.97-1.66,1.27-2.98,2.21c-1.32,0.94-6.85,2.32-5.91,9.11
					c0.06,0.5,0.33,2.07-0.99,3.15c-0.71,0.58-2.54,2.43-3.04,6.9c-0.3,2.71-0.13,4.81-0.31,6.47c-1.72,1.23-2.75,2.78-3.35,4.3
					c-1.23,0.45-2.47,0.45-3.09-0.18c0.54,0.7,1.46,1.23,2.62,1.49c-0.05,0.22-0.08,0.42-0.1,0.59c-0.27,1.32-0.28,2.47-0.25,3.19
					c0.11,2.21-0.22,3.75-0.55,6.51c-0.24,1.96-0.58,4.76-0.76,6.21c-14.62,0.49-31.11,0.51-47.98-0.52c0,0,5.46,22.85,7.12,40.9
					c0.23,2.52,0.43,4.89,0.61,7.12c-7.02,0.09-9.48,0.51-10.22,2.15c-0.75,1.66-0.25,3.23,1.49,4.31c1.65,1.02,8.67,2.34,9.38,2.47
					c0.54,8.54,0.67,14.15,0.72,17.57c0.08,5.22-0.5,15.4,5.05,16.39c2.93,0.52,10.71,1.58,20.79,2.41c0.04,4.59,0.56,70.77,0,74.84
					c-0.34,2.48-0.97,3.3-1.43,3.56l-0.06,0c0,0,0.02,0,0.05,0c-0.32,0.17-0.55,0.08-0.55,0.08l-32.13-0.17
					c-1.66,0-3.15,0.08-3.23,2.57c-0.08,3.06,2.9,2.65,2.9,2.65s130.08,0.41,131.16,0.41c1.08,0,4.14-0.17,5.22-0.99
					c3.56-2.65,3.39-9.61,3.39-9.61s-0.35-71.81-0.56-97.36c1.79-0.17,3.68-0.54,3.95-1.42c0.41-1.32-0.17-6.29-0.99-10.02
					c-0.83-3.73-3.48-4.72-3.48-4.72s-9.85-3.81-12.42-4.64c-1.49-0.48-2.65-1.1-4.55-1.71c2.31,0.57,5.05,0.84,7.01,0.17
					c3.2-1.1,13.91-4.42,16.45-5.74c2.54-1.32,5.19-3.75,5.96-4.86c0.77-1.1,1.44-2.1,1.21-3.64c-0.09-0.54-0.21-1.05-0.34-1.55
					c0.02-0.06,0.03-0.13,0.03-0.21c0.21-0.4,0.53-1.05,0.86-1.88c0.77-1.93-0.36-3.7-0.86-4.42
					C475.52,705.16,474.76,705.4,474.09,704.12z M434.49,717.36c2.1,2.87,5.52,8.28,7.62,9.38c0.5,0.26,1.17,0.54,1.96,0.8
					c-1.1-0.28-2.42-0.55-4.08-0.8c-3.68-0.55-5.5,0.7-6.38,1.78c0-0.08,0-0.16,0-0.23c0-0.19,0-0.38-0.01-0.58
					c-0.01-1.2-0.03-2.58-0.07-3.28c-0.01-0.15-0.03-0.3-0.06-0.44C433.46,722.03,433.66,719.79,434.49,717.36z M399.1,853.13
					c0-0.87-0.03-2.07,0.23-2.44c0.41-0.58,1.74-0.5,3.39,0c1.55,0.46,3.46,1.51,5.19,2.52
					C405.05,853.19,402.09,853.16,399.1,853.13z M405.27,816.92c-1.7,1.34-3.05,2.29-3.21,4.05c-0.17,1.82,0.58,2.98,0.91,3.64
					c0.02,0.04,0.05,0.08,0.08,0.11c-1.42,4.62-2.5,7.16-3.66,8.44c-2.21,2.43-2.21,2.43-2.21,2.43l-0.99,0.11
					c0,0-6.29,5.05-2.9,12.42c0.5,1.49,0.5,2.65,0.58,4.22c0.02,0.29,0.01,0.52-0.01,0.73c-15.57-0.16-30.41-0.32-31.79-0.4
					c0.16-0.23,0.29-0.55,0.4-0.91c0.25-0.67,0.53-1.68,0.59-2.92c0.02-0.46,0.01-0.65-0.02-0.66c0.1-1.35,0.1-2.46,0.1-2.46
					l-0.41-70.87c8.04,0.57,17.18,0.95,26.33,0.82c8.74-0.13,16.98-0.4,24.07-0.76c1.89,0.8,4.66,1.99,6.15,2.58
					c2.27,0.9,2.45,1.72,2.29,2.21c-0.3,0.41-0.71,0.85-1.13,1.35c-1.6,1.93-7.37,6.29-12.45,25.61
					C406.96,810.61,406.06,813.99,405.27,816.92z M459.02,845.98c0,7.53-2.73,7.12-2.73,7.12s-16.64,0.25-18.38,0.25
					c-0.44,0-1.1,0.01-1.84,0.01c-0.32-0.42-0.87-0.9-1.8-1.42c-2.82-1.57-8.78-6.54-10.85-8.28c-2.07-1.74-5.22-5.22-5.88-6.96
					c-0.39-1.02-1-2.27-0.43-5.02c2.32,1.15,4.7,2.04,8.05,2.04c4.8,0,12.83-3.73,10.27-6.96c-1.16-1.99-3.81-2.65-6.79-3.64
					c-2.08-0.69-4.4-2.11-5.84-3.92c3.97-6.77,7.45-10.77,14.61-20.26c6.99-9.25,14.82-19.06,16.1-26.63
					c0.05,0.08,0.08,0.13,0.08,0.13s0.31-0.51,0.66-1.28l4.11-0.04C458.63,799.15,459.02,841.02,459.02,845.98z M454.06,741.4
					c1.08,0.91,1.41,4.47,1.66,6.87c0.15,1.41,1.21,2.02,2.45,2.27c0.04,3.92,0.1,9.99,0.17,17.24l-3.03,0.2l-0.05,0.01
					c0.02-0.14,0.04-0.28,0.05-0.42c0.17-2.32-2.24-6.87-4.8-8.78c-0.03-0.02-0.07-0.05-0.1-0.07c-0.98-0.81-2.06-1.44-3.25-2.02
					c-2.43-1.37-4.93-2.57-4.93-2.57s-0.55-1.44-1.88-4.86c-1.32-3.42-4.42-10.16-5.52-12.14c-0.4-0.72-0.67-1.74-0.85-2.87
					c0.74,0.22,3.45,1.02,6.69,1.97C444.78,737.62,453.16,740.65,454.06,741.4z"/>
				<path class="st15" d="M370.5,663.74c-0.07-0.08-0.14-0.16-0.19-0.25C370.36,663.58,370.42,663.66,370.5,663.74z"/>
			</g>
			<g>
				<path class="st15" d="M646.62,706.32c-0.35-0.57-0.5-0.92-0.56-1.09C646.13,705.42,646.29,705.83,646.62,706.32z"/>
				<path class="st15" d="M685.79,699.5c0.22-0.23,0.4-0.46,0.53-0.69C686.59,698.3,686.35,698.72,685.79,699.5z"/>
				<path class="st15" d="M646.06,705.23c-0.03-0.08-0.04-0.12-0.04-0.12S646.03,705.14,646.06,705.23z"/>
				<path class="st15" d="M789.28,736.89c-2.15-0.27-7.08-0.37-7.08-0.37s-0.09,0-0.26-0.01c1.08-8.58,2.54-17.96,3.74-23.45
					c1.88-8.61,4.53-20.98,4.75-24.4c-2.27,0.34-6.06,0.5-10.79,0.53c-0.11-0.56-0.23-1.11-0.36-1.64
					c-0.99-4.09-3.86-16.23-5.63-21.64c-1.77-5.41-2.87-7.62-5.52-10.27c-2.65-2.65-6.73-4.75-9.16-5.96
					c-2.43-1.21-4.86-0.88-8.39-1.66c-3.53-0.77-7.29-2.32-8.17-2.43c-0.88-0.11,0.25-2.13-1.49-3.81c-0.07-0.07-0.15-0.13-0.23-0.2
					c2.32-2.72,4.23-7.9,5.76-15.92c1.6-8.45,1.88-12.03-4.36-20.92c-6.24-8.89-14.85-6.84-15.9-6.07
					c-11.48-4.31-21.14,9.22-23.57,13.69c-2.43,4.47-0.28,8.5-0.22,8.83c0.06,0.33-0.17,0.22-0.58,1.88
					c-0.19,0.74-0.91,1.57-0.25,2.76c0.21,0.38,0.55,1.6,0.28,2.26c-0.28,0.66-0.44,1.32-0.17,2.04c0.28,0.72,0.55,0.44-0.44,2.87
					c-0.99,2.43-0.11,5.63,0.66,7.51c0.77,1.87,1.87,6.48,1.88,6.51c-1.02,0.33-2.08,0.73-3.31,1.33
					c-2.98,1.43-9.05,3.97-12.48,5.74c-3.42,1.77-6.4,3.86-7.07,4.75c-0.66,0.88-0.88,2.76-2.21,3.97
					c-1.32,1.21-4.31,3.86-7.95,8.39c-3.64,4.53-5.85,7.95-8.28,11.26c-2.43,3.31-5.19,8.28-7.07,9.5
					c-1.88,1.21-5.96,2.65-6.96,3.42c-0.99,0.77-1.43,3.75-1.88,5.74c-0.44,1.99-1.1,2.76-0.55,3.97c0.21,0.46,0.45,0.94,0.77,1.46
					c-0.06-0.08-0.12-0.16-0.17-0.24c0.33,0.54,0.83,1.26,1.61,2.21c0.54,0.66,1.53,1.19,2.75,1.62c0.68,0.27,1.41,0.47,2.21,0.62
					c3.02,0.67,6.54,0.88,8.39,0.75c1.08-0.07,2.43-0.25,3.78-0.46c2.23-0.25,4.23-0.61,5.16-0.97c0.01,0,0.02-0.01,0.03-0.01
					c0.34-0.08,0.61-0.15,0.74-0.21c0.88-0.33,2.54-3.42,3.31-4.42c0.07-0.1,0.17-0.17,0.27-0.25c0.82-0.31,2.3-0.56,3.78-0.86
					c0.58-0.08,1.22-0.18,1.92-0.33c2.07-0.43,4.19-3.07,5.21-4.5c-0.16,0.17-0.35,0.34-0.55,0.5c1.14-1.54,2.14-3.17,2.63-3.96
					c0.55-0.9,0.85,0.85,0.91,3.12c-2.11,12.92-4.04,29.79-4.11,34.53c0,0.07,0,0.16,0,0.24c-1.2,0.1-2.18,0.27-2.88,0.42
					c0.33-0.38,0.4-0.86-0.21-1.65c-1.44-1.88-6.96-1.32-9.5-0.77c-2.54,0.55-12.25,2.76-16.45,4.64c-4.2,1.88-4.53,8.94-4.64,11.26
					c-0.11,2.32-0.11,3.86,0.44,4.08c0.15,0.06,0.63,0.09,1.24,0.09c-0.6,20.68-2.12,97.06-2.12,97.06
					c0.33,11.04,6.29,9.5,9.72,9.61c1.99,0.06,122.55,0.44,125.42,0.55c2.87,0.11,4.19-0.66,3.97-2.87
					c-0.22-2.21-3.75-2.21-3.75-2.21s-27.71,0-30.58-0.22c-1.66-0.55-1.43-8.17-1.43-8.17l0.41-66.9c2.27-0.1,3.79-0.19,4.33-0.23
					c4.2-0.33,16.34-0.22,19.21-4.64c2.87-4.42,2.1-14.9,2.76-24.51c0.17-2.45,0.46-5.46,0.83-8.73c1.6,0.04,2.57,0.06,2.76,0.06
					c1.99,0,4.86,0.39,5.96-0.17C791.64,739.99,791.6,737.18,789.28,736.89z M656.92,751.92c0.08,0,0.14-0.01,0.14-0.01
					c2.1-0.22,1.77-0.44,1.88-2.43c0.07-1.3,0.1-3.13,0.2-4.51c0.17-0.13,0.37-0.25,0.58-0.37c0.32-0.15,0.62-0.28,0.88-0.42
					c1.21-0.66,14.6-3.99,18.93-4.86c1.17-0.23,2.34-0.41,3.47-0.56c-1.64,4.32-1.95,7.29-1.61,9.33c-2.47,2.25-6.83,4.3-9.09,6.35
					c-2.32,2.1-9.54,8.3-11.59,10.16c-2.32,2.1-3.31,3.09-3.86,5.08c-0.07,0.26-0.14,0.57-0.2,0.92
					C656.77,761.99,656.87,755.16,656.92,751.92z M681.02,838.69c-0.77,0.77-5.3,3.97-7.84,5.85c-2.54,1.88-5.3,3.86-4.08,6.4
					c0.5,1.04,1.36,1.96,2.21,2.7c-8.08-0.03-13.55-0.05-14.02-0.05c-0.09,0-0.17-0.02-0.26-0.04c-0.29-0.09-0.52-0.24-0.7-0.44
					c-0.49-0.58-0.69-1.58-0.76-2.42c-0.01-0.2,0-0.34,0-0.34c-0.01,0.01-0.01,0.03-0.02,0.04c-0.04-0.63-0.02-1.11-0.02-1.11
					s0.62-43.49,1.04-72.95c0.12,1.1,0.31,2.28,0.61,3.5c1.1,4.53,4.42,11.59,7.4,15.46c2.98,3.86,8.5,8.06,10.49,13.47
					c1.42,3.87,4.03,10.1,6.65,15.24c-0.59,0.45-0.91,0.66-0.91,0.66s-0.42,0.85,0.69,3.66c1.07,3.03,2.95,6.28,2.95,6.28
					C684.44,835.38,681.79,837.92,681.02,838.69z M698.35,846.97c-1.1,2.43-2.43,4.08-3.86,5.41c-0.64,0.59-1.03,1-1.28,1.34
					c-0.54,0-1.08,0-1.61-0.01c0.25-0.47,0.49-0.98,0.68-1.55c0.66-1.99,0.22-1.88,1.66-4.2c0.64-1.03,1.59-2.35,2.49-3.63
					c0.34,0.27,0.73,0.19,1.37-0.46c1.66-1.66,1.66-1.66,1.66-1.66S699.45,844.54,698.35,846.97z M713.59,779.17l-0.16,0.53
					c-1.51,4.35-8.37,11.17-9,13.61c-0.28,1.08-1.55,2.84-2.94,4.58c-0.19-0.35-0.39-0.7-0.59-1.05c-1.66-2.76-4.97-9.61-7.29-11.37
					c-2.32-1.77-3.09-2.65-2.21-4.19c0.65-1.14,4.38-1.98,6.46-3.01c5.19,0.4,10.51,0.67,15.76,0.84
					C713.6,779.13,713.6,779.15,713.59,779.17z M715.07,853.8c0.42-0.9,1.24-2.68,1.72-3.96c1.99-0.22,3.2-0.22,5.41-1.77
					c2.21-1.54,4.42-3.09,4.53-3.97c0.11-0.88-1.55-4.64-2.21-6.18c-0.66-1.55-2.98-4.86-3.31-6.07c-0.33-1.21-0.44-3.2-1.88-3.64
					c-1.43-0.44-1.99-0.99-2.87-2.1c-0.88-1.1-0.66-2.98,0.55-4.2c1.21-1.21,1.99-2.54,0.55-3.31c-0.13-0.07-0.33-0.22-0.59-0.43
					c0.22-0.45,0.44-0.87,0.86-1.45l0.17-0.22c0,0,0,0,0-0.01c0.26-0.34,0.57-0.73,1-1.21c2.43-2.76,3.2-3.31,5.41-6.07
					c1.89-2.36,3.38-3.28,6.05-6.26c1.01-1.05,2.08-2.21,3-3.35c0.61-0.75,1.14-1.37,1.6-1.89c1.66-1.75,2.68-2.65,3.26-3.74
					c0.13-0.21,0.28-0.43,0.43-0.66c0.62-0.87,1.75-2.34,3.02-4.06c0.18-0.21,0.35-0.4,0.52-0.58c1.02-1.11,4.46-6.27,5.94-9.6
					c0.52-0.02,1.02-0.03,1.51-0.05c-0.02,2.91-0.39,58.73-0.49,65.4c-0.11,6.85,0.88,9.5,0.88,9.5S733.93,853.87,715.07,853.8z"/>
			</g>
			<path class="st15" d="M915.73,689.65c-0.11-2.21-0.77-4.53-0.88-6.73c-0.02-0.39-0.04-0.87-0.06-1.37
				c0.1-0.93-0.02-2.18-0.13-3.28c-0.03-0.69-0.07-1.13-0.1-1.09c-0.02-0.25-0.04-0.49-0.04-0.69c0-1.24-0.41-6.21-4.31-8.61
				c-3.89-2.4-7.12-5.63-9.27-5.96c-2.15-0.33-2.24-0.75-3.81-1.66c-1.57-0.91-4.14-2.65-6.79-3.23c-2.65-0.58-4.14-0.75-4.72-1.32
				c-0.58-0.58-1.9-2.73-2.57-3.06c-0.66-0.33-1.99-3.15-2.9-4.06c-0.44-0.44-0.92-0.92-1.71-1.33c0.07-1.16,0.15-1.99,0.22-3.47
				c0.5,0.5,1.74-1.74,2.48-3.39c0.75-1.66,0.91-4.31,1.24-6.96c0.33-2.65-0.75-2.73-1.08-2.57c-0.33,0.17,0.08-1.82,0.41-7.45
				c0.33-5.63-3.73-12.42-9.19-15.4c-5.46-2.98-9.94-0.33-10.68,0.41c-3.97-0.91-6.38,1.08-7.54,2.48
				c-1.16,1.41-2.15,3.48-4.64,6.46c-2.48,2.98-2.4,5.8-2.82,7.45c-0.41,1.66,0.33,4.31,0.66,6.21c0.33,1.9,0.83,3.31,0.83,3.31
				s-0.5,1.24-0.99,2.24c-0.5,0.99-0.17,1.32,0.5,1.74c0.66,0.41,0.41,0.99,0.41,0.99c-0.17,1.41-0.41,2.98-0.08,4.47
				c0.33,1.49,0.75,3.73,1.08,6.46c0.33,2.73,2.24,5.05,2.24,5.05s0.03,0.02,0.06,0.04c-0.24,0.12-0.56,0.22-1.06,0.29
				c-1.66,0.25-10.68,1.9-13.33,2.24c-2.65,0.33-7.7,0.5-9.44,8.11c-0.33,2.32-0.25,3.73-1.08,4.22c-0.83,0.5-2.65,1.16-4.22,3.56
				c-1.57,2.4-1.9,3.39-2.15,5.05c-0.25,1.66-0.91,2.32-1.74,3.23c-0.83,0.91-0.66,1.66-1.16,2.15c-0.5,0.5-2.24,1.16-3.23,2.4
				c-0.99,1.24-2.9,2.82-4.55,4.14c-1.66,1.32-1.9,3.06-2.4,4.22c-0.26,0.6-0.99,1.27-1.8,1.8c-0.36,0.08-1.43,0.36-2.95,1.07
				c-1.4,0.66-2.19,1.41-2.93,1.92c-0.03,0.02-0.06,0.04-0.09,0.06c-0.04,0.03-0.09,0.05-0.13,0.08c-0.08,0.05-0.15,0.09-0.22,0.13
				c-0.11,0.06-0.22,0.11-0.33,0.16c-0.75,0.25-2.32,0.33-3.23,0.33c-0.91,0-1.99-0.17-2.73,0.5c-0.18,0.16-0.36,0.28-0.56,0.39
				c-0.01,0-0.02-0.01-0.04-0.01c-0.52-0.38-1.41-1.04-2-1.56c-0.88-0.77-2.1,0.22-2.98,1.1c-0.58,0.58-0.73,2.77-0.67,4.3
				c-0.12,0.16-0.25,0.33-0.38,0.5c-0.92,1.2-1.47,7.67-1.62,9.57c-0.04,0.05-0.18,0.24-0.04,0.53c0,0,0.95-0.02,2.11,0.06
				c1.6,0.31,3.68,0.92,5.01,1.22c2.04,0.65,4.95,1.23,6.12,1.29c1.49,0.08,7.12,1.66,8.45,1.82c0.93,0.12,4.76,0.55,7.66,0.44
				c0.79,0.01,1.46-0.01,1.95-0.08c2.02-0.28,4.26-3.21,4.96-4.2c1.13-1.19,2.57-2.37,2.57-2.37l-0.9,13.22
				c-0.18,1.82-0.38,3.47-0.59,4.66c-0.33,1.82-0.78,3.83-1.31,5.76c-9.26,1.28-26.09,3.68-30.35,4.79
				c-5.96,1.55-7.29,8.83-7.18,11.7c0.08,2.03,1.7,2.24,2.65,2.18c0,0.05,0,0.08,0,0.08s-0.01,1.32-0.02,3.62
				c-0.45,0.33-0.89,0.67-1.31,1.02c-3.15,2.57-7.78,7.95-2.82,20.37c0.63,1.58,1.3,3.34,1.97,5.17c0.62,1.94,1.32,4.08,2.02,6.16
				c-0.09,22.08-0.18,46.91-0.18,51.61c0,0.24,0,0.48,0,0.71c-2.81-0.2-5.97,0.04-6.05,1.94c-0.66,0.33-0.99,1.08-0.99,1.49
				c0,0.34,3.11,4.28,8.64,6.65c1.99,3.66,5.15,5.02,7.76,5.19c2.65,0.17,33.29,0.08,39.58-0.08c6.29-0.17,27.99-0.41,31.8-0.5
				c3.81-0.08,59.7,0.83,61.94,0.75c2.24-0.08,4.55-0.17,4.39-2.73s-3.39-2.4-3.39-2.4s-49.43-0.17-53.49-0.08
				c-0.97-0.06-1.71-0.58-2.26-1.34c-0.09-0.13-0.18-0.27-0.25-0.43c0,0.02,0,0.04,0,0.05c-1.46-2.41-1.46-6.49-1.46-6.49
				l-0.25-61.85l-0.16,0.01c3.89-0.24,7.8-0.64,11.59-1.27c15.24-2.54,17-1.77,19.54-1.88c0.63-0.03,1.72-0.11,3-0.22
				c3.08-0.09,6.15-0.31,8.52-0.8c0.53-0.05,0.85-0.08,0.85-0.08s-0.12-0.01-0.33-0.03c1.08-0.25,1.99-0.57,2.65-0.97
				c4.42-2.65,4.97-10.6,4.86-22.3c0-3.93,0.24-7.84,0.66-11.68c5.5,0.31,9.19,0.52,9.49,0.53c1.32,0.05,3.04-0.39,2.93-2.54
				c-0.11-2.15-1.77-1.82-4.03-2.1c-0.47-0.06-3.4-0.23-7.81-0.47c2.97-20.3,10.46-37.91,13.44-44.13
				c-6.98-0.1-13.83-0.34-20.39-0.66C916,694.69,915.81,691.21,915.73,689.65z M790.32,756.06c0.04-1.81,0.38-3.22,0.87-4.31
				c0.05-0.11,0.11-0.22,0.17-0.32c0.68-1.11,1.81-2.93,5.03-3.52c2.03-0.21,10.73-1.11,20.51-2.1c-0.13,0.19-0.27,0.41-0.41,0.67
				c-7.45,2.9-19.71,7.58-21.88,8.44c-1.33,0.53-2.82,1.25-4.32,2.1C790.31,756.6,790.31,756.28,790.32,756.06z M808.61,837.45
				c-0.58,0.66-0.75,0.41-1.99,1.16c-1.24,0.75-5.55,3.48-9.52,4.64c-2.34,0.68-4.85,1.27-7.11,1.6c0.02-7.24,0.06-23.85,0.1-40.8
				c0.38,0.85,0.73,1.57,1.05,2.1c0.18,0.31,0.34,0.62,0.51,0.92c0.97,2.06,1.79,4.09,2.31,5.45c0.02,0.05,0.04,0.11,0.06,0.16
				c0.34,1.08,0.61,2.06,0.85,2.9c0.25,0.88,0.8,1.94,1.43,3.02c0.1,0.19,0.2,0.38,0.31,0.54c0.99,1.54,2.65,4.53,4.08,8.17
				c1.43,3.64,3.78,9.72,3.78,9.72s1.58-0.2,3.74-0.89l1.48-0.35C809.69,835.79,809.19,836.79,808.61,837.45z M820.54,803.75
				c0,0-6.38-12.5-7.2-14.32c-0.83-1.82-2.16-4.26-2.98-6.29c-0.52-1.27-0.77-3.33-0.84-5.72c0.26,0,0.46,0,0.59,0
				c0.21,0.24,0.43,0.46,0.64,0.66c0.33,0.31,0.67,0.6,1.01,0.89c1.14,1.13,2.5,2.03,3.82,2.89c0.2,0.14,0.39,0.28,0.57,0.41
				c1.55,1.1,3.31,2.1,4.2,4.08c0.88,1.99,0.44,3.09,1.99,3.86c0.18,0.09,0.36,0.18,0.55,0.28c0.34,0.2,0.71,0.39,1.09,0.56
				c-0.69,2.26-1.53,5.36-2.21,7.93c-0.4,1.27-0.68,2.26-0.78,3C820.71,803.07,820.54,803.75,820.54,803.75z M826.42,845.48
				c-0.58,1.9-1.49,3.73-2.24,4.64c-0.75,0.91-2.32,1.99-2.32,1.99s-0.83-0.75-0.25-1.99c0.58-1.24,1.49-2.98,0.83-4.8
				c-0.66-1.82-0.33-0.99,0.5-2.65c0.83-1.66,0.91-3.39,1.24-4.39c0.33-0.99,1.16,0.83,1.82,1.74
				C826.67,840.93,827,843.58,826.42,845.48z M849.57,855.46c1.17-1.16,2.76-2.8,3.18-3.27c0.66-0.75,1.3-1.49,0.55-2.4
				c-0.75-0.91-0.19-0.8-0.83-2.48c-0.61-1.6-4.51-7.71-6.73-9.94c-1.88-1.88-2.99-3.29-4.31-2.32c-0.41,0.3-4.09-4.15-4.53-4.75
				l1.02-1.05c0,0-0.58-0.91-0.75-1.32s0.66-2.9,1.99-6.38c1.32-3.48,2.48-7.78,2.9-8.94c0.41-1.16,1.16-4.64,1.9-6.29
				c0.75-1.66,3.56-9.44,4.39-11.51c0.83-2.07,0.41-3.39,1.32-4.97c0.91-1.57,4.64-3.23,5.71-4.06c0.14-0.11,0.31-0.25,0.49-0.41
				c3.37,0.11,6.95,0.14,10.61,0.04c0.01,1.83,0.17,58.97,0.25,62.72c0.08,3.81,1.49,7.12,1.49,7.12S860.25,855.34,849.57,855.46z"
				/>
		</g>
	</g>
	<g class="st0">
		<path class="st17" d="M617.88,376.2c1.33-34.23-25.35-63.06-59.58-64.39c-34.23-1.33-63.06,25.35-64.39,59.58
			c-1.23,31.78,21.68,58.9,52.37,63.67l-7.6,27.44l30.31-28.07C596.02,428.62,616.76,405.1,617.88,376.2z"/>
		<path class="st18" d="M799.28,354.15c2.5-64.33-47.64-118.52-111.97-121.02c-64.33-2.5-118.52,47.64-121.02,111.97
			c-2.32,59.74,40.75,110.7,98.42,119.67l-14.29,51.58l56.96-52.75C758.2,452.68,797.17,408.48,799.28,354.15z"/>
		<path class="st18" d="M318.03,383.12c1.56-40.17-29.75-74.01-69.92-75.57c-40.17-1.56-74.01,29.75-75.56,69.92
			c-1.45,37.3,25.44,69.12,61.45,74.72l-8.92,32.21l35.57-32.94C292.38,444.64,316.72,417.04,318.03,383.12z"/>
		<path class="st19" d="M339.71,289.17c2.95-75.93,66.9-135.1,142.83-132.16c75.93,2.95,135.1,66.9,132.16,142.83
			c-2.74,70.51-58.08,126.53-126.76,131.81l12.1,62l-62.2-67.29C379.04,408.86,337.22,353.29,339.71,289.17z"/>
		<path class="st20" d="M561.19,242.14c0.98-35.49,30.54-63.46,66.03-62.48c35.49,0.98,63.46,30.55,62.48,66.03
			c-0.91,32.95-26.47,59.41-58.53,62.24l5.98,28.9l-29.41-31.11C580.19,297.84,560.37,272.1,561.19,242.14z"/>
		<path class="st21" d="M738.5,408.31c0.84-30.33,26.1-54.24,56.43-53.4c30.33,0.84,54.24,26.11,53.4,56.43
			c-0.78,28.16-22.62,50.78-50.02,53.19l5.11,24.7l-25.14-26.59C754.74,455.92,737.79,433.92,738.5,408.31z"/>
		<path class="st17" d="M832.87,222.75c2.44-48.8-35.14-90.35-83.95-92.79c-48.8-2.44-90.35,35.15-92.8,83.95
			c-2.27,45.32,29.99,84.35,73.68,91.65l-11.28,39.02l43.68-39.55C800.86,297.17,830.81,263.97,832.87,222.75z"/>
		<path class="st21" d="M122.36,363.18c0.89-22.81,20.1-40.59,42.91-39.71c22.81,0.89,40.59,20.1,39.71,42.92
			c-0.82,21.19-17.45,38.02-38.09,39.6l3.63,18.63l-18.69-20.22C134.18,399.15,121.62,382.45,122.36,363.18z"/>
		<path class="st21" d="M216.12,283.22c1.86-48.02,42.31-85.44,90.33-83.58c48.02,1.86,85.44,42.31,83.58,90.33
			c-1.73,44.59-36.73,80.02-80.17,83.36l7.65,39.21l-39.34-42.55C240.99,358.91,214.54,323.77,216.12,283.22z"/>
		<path class="st22" d="M654.86,436.64c0.75-19.29-14.28-35.53-33.56-36.28c-19.28-0.75-35.53,14.28-36.28,33.57
			c-0.7,17.91,12.22,33.18,29.5,35.87l-4.28,15.46l17.08-15.81C642.55,466.17,654.23,452.92,654.86,436.64z"/>
		<path class="st23" d="M964.58,329.37c2.03-52.43-38.82-96.59-91.25-98.62c-52.43-2.04-96.59,38.82-98.62,91.25
			c-1.89,48.69,33.21,90.21,80.21,97.53l-11.65,42.03l46.42-42.99C931.1,409.66,962.86,373.65,964.58,329.37z"/>
		<path class="st17" d="M443.63,372.6c1.35-34.81-25.77-64.12-60.58-65.47c-34.81-1.35-64.12,25.77-65.48,60.58
			c-1.25,32.32,22.05,59.89,53.25,64.74l-7.73,27.9l30.82-28.54C421.41,425.91,442.49,402,443.63,372.6z"/>
		<path class="st19" d="M253.63,285.54c1.23-31.66-23.44-58.33-55.1-59.55c-31.66-1.23-58.33,23.44-59.56,55.1
			c-1.14,29.4,20.06,54.47,48.44,58.89l-7.03,25.38l28.03-25.96C233.41,334.03,252.59,312.28,253.63,285.54z"/>
		<path class="st19" d="M887.36,396.53c0.86-22.06,19.43-39.25,41.49-38.39c22.06,0.86,39.25,19.43,38.39,41.49
			c-0.79,20.48-16.87,36.76-36.82,38.29l3.51,18.01l-18.07-19.55C898.79,431.3,886.64,415.15,887.36,396.53z"/>
		<path class="st24" d="M139.7,343.82c0.68-17.47-12.93-32.18-30.4-32.86c-17.47-0.68-32.18,12.93-32.86,30.4
			c-0.63,16.22,11.06,30.05,26.72,32.49l-3.88,14l15.47-14.32C128.55,370.57,139.13,358.57,139.7,343.82z"/>
		<path class="st17" d="M1045.54,331.34c1.09-28.09-20.8-51.76-48.89-52.85c-28.09-1.09-51.76,20.8-52.85,48.9
			c-1.01,26.09,17.79,48.34,42.98,52.26l-6.24,22.52l24.88-23.04C1027.6,374.36,1044.62,355.06,1045.54,331.34z"/>
	</g>
</g>
</svg>
