<?xml version="1.0" encoding="utf-8"?>
<!-- Generator: Adobe Illustrator 25.4.1, SVG Export Plug-In . SVG Version: 6.00 Build 0)  -->
<svg version="1.1" xmlns="http://www.w3.org/2000/svg" xmlns:xlink="http://www.w3.org/1999/xlink" x="0px" y="0px"
	 viewBox="0 0 500 500" style="enable-background:new 0 0 500 500;" xml:space="preserve">
<style type="text/css">
	.st0{fill:#DBDEF2;}
	.st1{display:none;}
	.st2{display:inline;}
	.st3{opacity:0.6;}
	
		.st4{clip-path:url(#SVGID_00000060010993011440239940000013228321070668849583_);fill:url(#SVGID_00000069379626166600613780000018092520174904534922_);}
	.st5{fill:#ABB0DA;}
	.st6{fill:#0E4376;}
	.st7{fill:#093356;}
	.st8{fill:#C20513;}
	.st9{fill:#FCA388;}
	.st10{fill:#EF6159;}
	.st11{fill:none;stroke:#EF6159;stroke-linecap:round;stroke-miterlimit:10;}
	.st12{fill:#FFFFFF;}
	.st13{fill:#F9FFFF;}
	.st14{fill:#FA1C2E;}
	.st15{fill:#155A9C;}
	.st16{fill:none;stroke:#093356;stroke-linecap:round;stroke-miterlimit:10;}
	.st17{fill:#AF4700;}
	.st18{fill:#8E3900;}
	.st19{opacity:0.3;fill:#8E3900;}
	.st20{fill:#EAA300;}
	.st21{fill:#CC6000;}
	.st22{fill:#DB7C00;}
	.st23{fill:#E40513;}
	.st24{fill-rule:evenodd;clip-rule:evenodd;fill:#FFFFFF;}
	.st25{fill-rule:evenodd;clip-rule:evenodd;fill:#DA0017;}
	.st26{fill-rule:evenodd;clip-rule:evenodd;fill:#0B437F;}
	.st27{fill-rule:evenodd;clip-rule:evenodd;fill:#EAA300;}
	.st28{font-family:'Roboto-Black';}
	.st29{font-size:26.1724px;}
	.st30{font-family:'Yellowtail';}
	.st31{font-size:46.3192px;}
</style>
<g id="BACKGROUND">
	<rect class="st0" width="500" height="500"/>
</g>
<g id="OBJECTS" class="st1">
	<g class="st2">
		<g class="st3">
			<defs>
				<rect id="SVGID_1_" class="st3" width="500" height="500"/>
			</defs>
			<clipPath id="SVGID_00000131365167086503622360000000788094097719439236_">
				<use xlink:href="#SVGID_1_"  style="overflow:visible;"/>
			</clipPath>
			
				<radialGradient id="SVGID_00000110459836388040872960000014275810672941747354_" cx="250" cy="250" r="358.6172" gradientUnits="userSpaceOnUse">
				<stop  offset="0" style="stop-color:#ABB0DA"/>
				<stop  offset="1" style="stop-color:#DBDEF2"/>
			</radialGradient>
			
				<polygon style="clip-path:url(#SVGID_00000131365167086503622360000000788094097719439236_);fill:url(#SVGID_00000110459836388040872960000014275810672941747354_);" points="
				605.45,229.09 274.19,246.82 598.75,178.2 587.92,137.81 272.54,240.66 568.28,90.38 547.37,54.17 269.36,235.15 516.12,13.45 
				486.55,-16.12 264.85,230.64 445.83,-47.37 409.62,-68.28 259.34,227.46 362.19,-87.92 321.8,-98.75 253.18,225.81 
				270.91,-105.45 229.09,-105.45 246.82,225.81 178.2,-98.75 137.81,-87.92 240.66,227.46 90.38,-68.28 54.17,-47.37 
				235.15,230.64 13.45,-16.12 -16.12,13.45 230.64,235.15 -47.37,54.17 -68.28,90.38 227.46,240.66 -87.92,137.81 -98.75,178.2 
				225.81,246.82 -105.45,229.09 -105.45,270.91 225.81,253.18 -98.75,321.8 -87.92,362.19 227.46,259.34 -68.28,409.62 
				-47.37,445.83 230.64,264.85 -16.12,486.55 13.45,516.12 235.15,269.36 54.17,547.37 90.38,568.28 240.66,272.54 137.81,587.92 
				178.2,598.75 246.82,274.19 229.09,605.45 270.91,605.45 253.18,274.19 321.8,598.75 362.19,587.92 259.34,272.54 409.62,568.28 
				445.83,547.37 264.85,269.36 486.55,516.12 516.12,486.55 269.36,264.85 547.37,445.83 568.28,409.62 272.54,259.34 
				587.92,362.19 598.75,321.8 274.19,253.18 605.45,270.91 			"/>
		</g>
		<g>
			<g>
				<g>
					<g>
						<g>
							<path class="st5" d="M57.67,222.65c-14.52-7.71-25.41-11.12-25.41-11.12v-13.16c0,0,6.13-6.13,9.53-17.7
								c0,0,5.44-3.55,6.16-9.25c0.7-5.5-2.65-7.42-5.63-6.97c0,0-0.42-1.93,0.6-6.47c0.49-2.18,3.25-7.23,5.05-12.84
								c2.27-7.08-3.35-14.14-10.78-13.68c-1.76,0.11-3.79-0.02-6.07-0.52c-14.92-3.3-24.71-2.14-31.12,1.08v201.69l15.7-42.85h57.4
								v-41.67C73.1,249.19,72.19,230.36,57.67,222.65z"/>
						</g>
						<g>
							<path class="st5" d="M442.33,222.65c14.52-7.71,25.41-11.12,25.41-11.12v-13.16c0,0-6.13-6.13-9.53-17.7
								c0,0-5.44-3.55-6.16-9.25c-0.7-5.5,2.65-7.42,5.63-6.97c0,0,0.42-1.93-0.6-6.47c-0.49-2.18-3.25-7.23-5.05-12.84
								c-2.27-7.08,3.35-14.14,10.78-13.68c1.76,0.11,3.79-0.02,6.07-0.52c14.92-3.3,24.71-2.14,31.12,1.08v201.69l-15.7-42.85
								h-57.4v-41.67C426.9,249.19,427.81,230.36,442.33,222.65z"/>
						</g>
						<path class="st5" d="M99.37,288.58c-14.52-7.71-25.41-11.12-25.41-11.12v-13.16c0,0,6.13-6.13,9.53-17.7
							c0,0,5.44-3.55,6.16-9.25c0.7-5.5-2.65-7.42-5.63-6.97c0,0-0.42-1.93,0.6-6.47s11.91-21.59,3.4-30.1c0,0-5,5.32-15.2,3.06
							c-49.46-10.93-42.65,27.04-42.65,27.04c1.02,4.54,0.6,6.47,0.6,6.47c-2.99-0.45-6.33,1.47-5.63,6.97
							c0.73,5.7,6.16,9.25,6.16,9.25c3.4,11.57,9.53,17.7,9.53,17.7v13.16c0,0-10.89,3.4-25.41,11.12C0.91,296.3,0,315.13,0,315.13
							v41.67h57.4h57.4v-41.67C114.8,315.13,113.89,296.3,99.37,288.58z"/>
						<path class="st5" d="M256,297.96c-12.52-6.65-21.92-9.59-21.92-9.59v-11.35c0,0,5.28-5.28,8.22-15.26c0,0,4.69-3.06,5.32-7.98
							c0.6-4.74-2.28-6.4-4.86-6.01c0,0-0.36-1.66,0.52-5.58c0.88-3.91,0.91-19.76-10.18-23.32c-41.6-13.36-36.79,23.32-36.79,23.32
							c0.88,3.91,0.52,5.58,0.52,5.58c-2.58-0.39-5.46,1.27-4.86,6.01c0.63,4.92,5.32,7.98,5.32,7.98
							c2.94,9.98,8.22,15.26,8.22,15.26v11.35c0,0-9.39,2.94-21.92,9.59c-12.52,6.65-13.31,22.9-13.31,22.9v35.95h49.51h49.51
							v-35.95C269.31,320.85,268.52,304.61,256,297.96z"/>
						<g>
							<g>
								<g>
									<path class="st5" d="M94.45,294.77c13.2-7.01,23.1-10.11,23.1-10.11V272.7c0,0-5.57-5.57-8.66-16.09
										c0,0-4.95-3.23-5.6-8.41c-0.64-5,2.41-6.75,5.12-6.34c0,0,0.38-1.75-0.55-5.88s-10.83-19.63-3.09-27.37
										c0,0,4.54,4.83,13.82,2.78c44.97-9.94,38.78,24.58,38.78,24.58c-0.93,4.13-0.55,5.88-0.55,5.88
										c2.72-0.41,5.76,1.34,5.12,6.34c-0.66,5.18-5.6,8.41-5.6,8.41c-3.09,10.52-8.66,16.09-8.66,16.09v11.96
										c0,0,9.9,3.09,23.1,10.11c13.2,7.01,14.03,24.14,14.03,24.14v37.89h-52.19H80.42v-37.89
										C80.42,318.91,81.25,301.79,94.45,294.77z"/>
								</g>
							</g>
						</g>
						<g>
							<path class="st5" d="M400.63,288.58c14.52-7.71,25.41-11.12,25.41-11.12v-13.16c0,0-6.13-6.13-9.53-17.7
								c0,0-5.44-3.55-6.16-9.25c-0.7-5.5,2.65-7.42,5.63-6.97c0,0,0.42-1.93-0.6-6.47c-1.02-4.54,1.59-24.78,11.8-27.04
								c49.46-10.93,42.65,27.04,42.65,27.04c-1.02,4.54-0.6,6.47-0.6,6.47c2.99-0.45,6.33,1.47,5.63,6.97
								c-0.73,5.7-6.16,9.25-6.16,9.25c-3.4,11.57-9.53,17.7-9.53,17.7v13.16c0,0,10.89,3.4,25.41,11.12
								c14.52,7.71,15.43,26.54,15.43,26.54v41.67h-57.4h-57.4v-41.67C385.2,315.13,386.11,296.3,400.63,288.58z"/>
							<path class="st5" d="M423.88,198.39c0,0-9.82-7.71-16.97,4.29c-7.15,12-8.94,28.6-2.3,46.21
								c6.64,17.62-17.62,32.17-0.77,52.34c16.85,20.17,69.96,4.34,76.34-24c6.38-28.34-5.36-28.6,0-43.4
								C485.55,219.02,463.83,168.82,423.88,198.39z"/>
							<g>
								<path class="st5" d="M330.03,297.96c12.52-6.65,21.92-9.59,21.92-9.59v-11.35c0,0-5.28-5.28-8.22-15.26
									c0,0-4.69-3.06-5.32-7.98c-0.6-4.74,2.28-6.4,4.86-6.01c0,0,0.36-1.66-0.52-5.58s-0.91-19.76,10.18-23.32
									c41.6-13.36,36.79,23.32,36.79,23.32c-0.88,3.91-0.52,5.58-0.52,5.58c2.58-0.39,5.46,1.27,4.86,6.01
									c-0.63,4.92-5.32,7.98-5.32,7.98c-2.94,9.98-8.22,15.26-8.22,15.26v11.35c0,0,9.39,2.94,21.92,9.59
									c12.52,6.65,13.31,22.9,13.31,22.9v35.95h-49.51h-49.51v-35.95C316.72,320.85,317.5,304.61,330.03,297.96z"/>
							</g>
						</g>
						<g>
							<g>
								<path class="st5" d="M260.77,298.49c12.41-6.59,21.72-9.5,21.72-9.5v-11.25c0,0-5.24-5.24-8.15-15.13
									c0,0-4.65-3.03-5.27-7.91c-0.6-4.7,2.26-6.35,4.82-5.96c0,0,0.36-1.65-0.52-5.53c-0.87-3.88-10.18-18.46-2.91-25.73
									c0,0,4.27,4.55,12.99,2.62c42.28-9.34,36.46,23.11,36.46,23.11c-0.87,3.88-0.52,5.53-0.52,5.53
									c2.55-0.39,5.41,1.26,4.82,5.96c-0.62,4.87-5.27,7.91-5.27,7.91c-2.91,9.89-8.15,15.13-8.15,15.13v11.25
									c0,0,9.31,2.91,21.72,9.5c12.41,6.59,13.19,22.69,13.19,22.69v35.62h-49.07h-49.07v-35.62
									C247.59,321.18,248.36,305.08,260.77,298.49z"/>
							</g>
						</g>
					</g>
				</g>
				<rect y="356.8" class="st5" width="500" height="143.2"/>
			</g>
			<g>
				<g>
					<g>
						<g>
							<g>
								<g>
									<path class="st5" d="M87.97,150.14c6.36-4,19.03-12.65,15.84-16.07c-2.52-2.71-9.09,1.95-9.09,1.95s13.13-18.94,9.71-20.88
										c-2.68-1.52-12.06,12.19-12.06,12.19s9.39-22.52,5.69-22.97c-3.69-0.45-11.92,19.68-11.92,19.68s4.83-20.55,1.03-20.28
										c-3.8,0.27-8.36,18.81-8.36,18.81s2.98-17.37-1.85-14.77c-3.88,2.09-7,25.04-8.08,34.05c0,0-0.37,3.67,2.8,6.13
										C81.35,155.51,87.97,150.14,87.97,150.14z"/>
								</g>
							</g>
						</g>
					</g>
					<polygon class="st5" points="69.01,140.67 26.92,239.72 53.06,244.44 87.61,148.77 					"/>
				</g>
				<g>
					<g>
						<g>
							<g>
								<g>
									<path class="st5" d="M112.83,186.39c-4.76-4.45-14.14-13.9-10.86-16.29c2.59-1.89,7.43,3.15,7.43,3.15
										s-8.08-18.3-4.84-19.39c2.53-0.85,8.28,12.37,8.28,12.37s-4.3-20.73-1.08-20.51c3.22,0.22,6.93,18.73,6.93,18.73
										s-0.74-18.3,2.45-17.45c3.19,0.86,4.04,17.4,4.04,17.4s0.31-15.29,4-12.28c2.96,2.42,1.85,22.48,1.29,30.34
										c0,0-0.28,3.19-3.39,4.77C117.59,192.05,112.83,186.39,112.83,186.39z"/>
								</g>
							</g>
						</g>
					</g>
					<polygon class="st5" points="130.54,181.43 150.15,272.74 127.1,272.47 113.37,185.28 					"/>
				</g>
			</g>
			<g>
				<g>
					<g>
						<g>
							<g>
								<g>
									<path class="st5" d="M387.17,186.39c4.76-4.45,14.14-13.9,10.86-16.29c-2.59-1.89-7.43,3.15-7.43,3.15
										s8.08-18.3,4.84-19.39c-2.53-0.85-8.28,12.37-8.28,12.37s4.3-20.73,1.08-20.51c-3.22,0.22-6.93,18.73-6.93,18.73
										s0.74-18.3-2.45-17.45c-3.19,0.86-4.04,17.4-4.04,17.4s-0.31-15.29-4-12.28c-2.96,2.42-1.85,22.48-1.29,30.34
										c0,0,0.28,3.19,3.39,4.77C382.41,192.05,387.17,186.39,387.17,186.39z"/>
								</g>
							</g>
						</g>
					</g>
					<polygon class="st5" points="369.46,181.43 349.85,272.74 372.9,272.47 386.63,185.28 					"/>
				</g>
			</g>
			<g>
				
					<rect x="354.8" y="45.52" transform="matrix(0.9866 -0.1631 0.1631 0.9866 -7.7149 68.9101)" class="st5" width="121.9" height="71.83"/>
				
					<rect x="422.07" y="59.2" transform="matrix(0.9866 -0.1631 0.1631 0.9866 -18.1616 71.5308)" class="st5" width="8.82" height="174.3"/>
			</g>
			<g>
				
					<rect x="19.28" y="25.61" transform="matrix(0.971 0.2393 -0.2393 0.971 16.8268 -9.5723)" class="st5" width="57.11" height="77.8"/>
				
					<rect x="30.74" y="44.79" transform="matrix(0.971 0.2393 -0.2393 0.971 29.403 -4.8037)" class="st5" width="7.48" height="147.81"/>
			</g>
		</g>
		<g>
			<ellipse class="st5" cx="250" cy="420.93" rx="118.79" ry="13.94"/>
			<g>
				<g>
					<g>
						<polygon class="st6" points="292.23,99.65 259.93,94.04 250.03,103.87 240.14,94.04 207.84,99.65 200.01,258.63 
							245.12,258.63 250.03,245.01 254.95,258.63 300.06,258.63 						"/>
						<polygon class="st7" points="231.51,95.54 216.35,121.1 220.74,122.5 215.76,125.69 249.97,163.65 						"/>
						<polygon class="st7" points="268.56,95.54 283.72,121.1 279.33,122.5 284.31,125.69 249.97,163.65 						"/>
						<polygon class="st0" points="259.79,94.04 249.97,103.8 240.14,94.04 231.51,95.54 249.97,163.65 268.42,95.52 						"/>
						<polygon class="st8" points="253.07,111.03 250.07,111.03 249.94,111.03 246.94,111.03 244.34,142.89 249.97,163.65 
							255.65,142.67 						"/>
						<g>
							<path class="st7" d="M261.48,32.13c15.75-1.15,11.26,22.83,11.26,22.83l-10.99,8.63c0,0-23.06,13.58-34.43-8.61
								c0,0-5.94-23.3,12.56-29.06C249.81,22.83,257.03,25.8,261.48,32.13z"/>
							<g>
								<g>
									<g>
										<path class="st9" d="M249.97,103.87L249.97,103.87c5.43,0,9.82-4.4,9.82-9.82v-30.5h-19.65v30.5
											C240.14,99.47,244.54,103.87,249.97,103.87z"/>
									</g>
									<path class="st10" d="M240.14,83.33c2.13,2.58,5.27,4.59,9.88,4.59c4.53,0,7.64-1.94,9.77-4.46V69.84h-19.65V83.33z"/>
								</g>
								<g>
									<g>
										<path class="st9" d="M250.03,36.08c0,0,23.29-2.04,18.25,32.05c0,0-1.77,16-18.25,16c-16.48,0-18.25-16-18.25-16
											C226.75,34.04,250.03,36.08,250.03,36.08z"/>
										<polyline class="st11" points="250.03,56.25 248.4,66.68 252.37,65.89 										"/>
										<path class="st10" d="M243.44,71.23h13.06c0,0-1.23,5.65-6.51,5.65S243.44,71.23,243.44,71.23z"/>
										<path class="st12" d="M255.89,72.87c0.44-0.92,0.6-1.65,0.6-1.65h-13.06c0,0,0.17,0.72,0.62,1.65H255.89z"/>
									</g>
								</g>
							</g>
							<g>
								<path class="st9" d="M231.19,56.09c-0.27-0.2-3.34-2.43-6.56-0.04c-4.14,3.07-0.86,12.43,7.31,10.32L231.19,56.09z"/>
								<path class="st11" d="M229.68,58.87c0,0-0.4-1.25-2.29-0.95c-1.89,0.3-2.48,3.6-0.72,4.93c1.76,1.33,2.88,0.31,2.88,0.31"/>
							</g>
							<g>
								<path class="st9" d="M268.88,56.09c0.27-0.2,3.34-2.43,6.56-0.04c4.14,3.07,0.86,12.43-7.31,10.32L268.88,56.09z"/>
								<path class="st11" d="M270.39,58.87c0,0,0.4-1.25,2.29-0.95s2.48,3.6,0.72,4.93s-2.88,0.31-2.88,0.31"/>
							</g>
						</g>
						<g>
							<polygon class="st13" points="240.14,91.48 249.97,103.87 241.89,111.57 237.5,95.04 							"/>
							<polygon class="st13" points="259.86,91.48 250.03,103.87 258.11,111.57 262.5,95.04 							"/>
						</g>
						<polygon class="st14" points="244.68,108.91 249.97,113.95 255.32,108.91 250.03,103.87 						"/>
						<polygon class="st15" points="231.51,95.54 220.74,120.08 230.44,122.12 222.01,126.08 249.97,163.65 						"/>
						<polygon class="st15" points="268.42,95.52 279.19,120.08 269.49,122.12 277.92,126.08 249.97,163.65 						"/>
						<g>
							<g>
								<path class="st9" d="M194.98,97.48c0,0-30.2-14.16-33.7-16.36c-3.49-2.2-27.24-15.5-27.24-15.5l-8.32,10.04
									c0,0,25.99,19.08,27.18,19.82c11.4,7.06,32.53,15.95,32.53,15.95L194.98,97.48z"/>
								<polygon class="st9" points="119.24,71.37 125.72,75.66 134.05,65.62 126.94,56.79 116.52,65.31 								"/>
								<path class="st10" d="M123.82,74.4l1.91,1.26c0,0,3.73,2.74,8.42,6.17l3.91-7.71l1.55-4.6l-3.03-2.48L123.82,74.4z"/>
								<path class="st10" d="M128.53,58.77c-2.81,1.5-7.43,4.34-7.15,4.99c0,0,1.09,3.25,2.77,2.58c1.24-0.49,5.21-2.47,7.21-4.05
									L128.53,58.77z"/>
								<g>
									<path class="st9" d="M112.27,62.18c0,0-2.58,2.25-1.32,3.54c1.25,1.29,6.94,6.16,8.29,5.64c1.36-0.51,2.53-2.15,2-3
										C120.72,67.52,112.93,61.5,112.27,62.18z"/>
									<path class="st10" d="M121.24,68.37c-0.52-0.85-8.31-6.87-8.97-6.19c0,0-0.16,0.14-0.39,0.38
										c1.99,0.77,7.91,5.39,8.36,6.13c0.45,0.72-0.34,2.01-1.42,2.7c0.16,0.02,0.3,0.03,0.41-0.01
										C120.59,70.86,121.76,69.22,121.24,68.37z"/>
									<path class="st9" d="M114.86,58.66c0,0-2.58,2.25-1.32,3.54c1.25,1.29,6.94,6.16,8.29,5.64s2.53-2.15,2-3
										C123.31,64,115.53,57.98,114.86,58.66z"/>
									<path class="st10" d="M123.89,64.83c-0.52-0.85-8.31-6.87-8.97-6.19c0,0-0.16,0.14-0.39,0.38
										c1.99,0.77,7.91,5.39,8.36,6.13c0.45,0.72-0.34,2.01-1.42,2.7c0.16,0.02,0.3,0.03,0.41-0.01
										C123.24,67.31,124.41,65.68,123.89,64.83z"/>
									<path class="st9" d="M117.46,55.13c0,0-2.58,2.25-1.32,3.54c1.25,1.29,6.94,6.16,8.29,5.64c1.36-0.51,2.53-2.15,2-3
										C125.91,60.47,118.12,54.45,117.46,55.13z"/>
									<path class="st10" d="M126.43,61.32c-0.18-0.29-1.19-1.17-2.48-2.18c-1.92,1.18-3.65,2.4-3.84,2.94
										c1.48,1.12,2.98,2.09,3.85,2.25c0.51-0.24,1.11-0.54,1.75-0.87C126.39,62.75,126.77,61.87,126.43,61.32z"/>
									<path class="st10" d="M126.43,61.32c-0.52-0.85-8.31-6.87-8.97-6.19c0,0-0.16,0.14-0.39,0.38
										c1.99,0.77,7.91,5.39,8.36,6.13c0.45,0.72-0.34,2.01-1.42,2.7c0.16,0.02,0.3,0.03,0.41-0.01
										C125.79,63.8,126.96,62.17,126.43,61.32z"/>
									<path class="st9" d="M128.86,57.54c-0.42-0.68-9.68-7.77-13.65-10.17c-0.91-0.55-2.1-0.32-2.75,0.53l0,0
										c-0.69,0.89-0.55,2.17,0.32,2.9c3.78,3.19,13,10.43,14.13,10C128.27,60.28,129.39,58.39,128.86,57.54z"/>
									<path class="st10" d="M126.91,60.79c1.36-0.52,2.48-2.41,1.95-3.25c-0.06-0.1-0.34-0.36-0.77-0.73
										c-1.12,0.56-2.79,1.5-4.31,2.44C125.34,60.29,126.54,60.94,126.91,60.79z"/>
									<path class="st9" d="M121.09,62.69c0,0,1.09,3.25,2.77,2.58c1.67-0.66,8.35-4.05,8.39-5.5s-1.02-3.16-2-3
										C129.26,56.93,120.72,61.81,121.09,62.69z"/>
								</g>
							</g>
							<path class="st12" d="M132.68,82.02l-4.42-3.01c0,0,3.06-5.71,8.99-12.78l6.82,3.85l-0.3,7.42l-5.37,4.52H132.68z"/>
							<g>
								<g>
									<path class="st6" d="M207.84,99.65c-25.1-7.95-63.69-31.79-63.69-31.79s-1.67,1.79-5.79,6.92
										c-4.12,5.13-5.96,9.46-5.96,9.46s27.85,26.64,74.01,48.7L207.84,99.65z"/>
								</g>
							</g>
							<path class="st7" d="M206.41,132.94l0.25-5.85c-12.95-2.63-25.48-7.71-26.19-8C188.31,123.72,196.97,128.43,206.41,132.94z"
								/>
						</g>
						<g>
							<g>
								<g>
									<path class="st16" d="M240.18,54.26c0,0,2.44-1.68,4.84,0.35"/>
								</g>
								<g>
									<ellipse class="st7" cx="242.6" cy="59.02" rx="2.05" ry="2.77"/>
								</g>
							</g>
						</g>
						<g>
							<g>
								<g>
									<path class="st16" d="M259.89,54.26c0,0-2.44-1.68-4.84,0.35"/>
								</g>
								<g>
									<ellipse class="st7" cx="257.47" cy="59.02" rx="2.05" ry="2.77"/>
								</g>
							</g>
						</g>
						<path class="st7" d="M250.03,31.57c0,0-22.43,0.88-18.84,24.53c0,0,5-3.28,5-14.16c0,0,6.21,2.13,13.84,2.13
							c7.64,0,13.84-2.13,13.84-2.13c0,10.88,5,14.16,5,14.16C272.46,32.45,250.03,31.57,250.03,31.57z"/>
					</g>
					<g>
						<polygon class="st17" points="326.05,386.13 173.95,386.13 163.95,183.73 336.05,183.73 						"/>
						<polygon class="st18" points="326.05,386.13 250,386.13 250,183.73 336.05,183.73 						"/>
						<polygon class="st19" points="169.2,290.07 330.8,290.07 331.8,269.83 168.2,269.83 						"/>
						<rect x="162.57" y="386.13" class="st20" width="174.87" height="17.16"/>
						<rect x="250" y="386.13" class="st21" width="87.43" height="17.16"/>
						<rect x="145.94" y="403.29" class="st17" width="208.11" height="17.16"/>
						<rect x="250" y="403.29" class="st18" width="104.06" height="17.16"/>
						<rect x="152.57" y="166.56" class="st17" width="194.87" height="17.16"/>
						<rect x="249.97" y="166.56" class="st18" width="97.43" height="17.16"/>
						<rect x="145.94" y="175.15" class="st20" width="208.11" height="8.58"/>
						<rect x="250.01" y="175.15" class="st21" width="104.05" height="8.58"/>
					</g>
					<g>
						<g>
							<g>
								<g>
									<rect x="248.54" y="121.48" class="st13" width="2.91" height="40.15"/>
								</g>
							</g>
							<g>
								<g>
									<rect x="249.9" y="121.48" class="st0" width="1.56" height="40.15"/>
								</g>
							</g>
							<g>
								<circle class="st20" cx="250" cy="124.7" r="2.65"/>
								<path class="st22" d="M248.21,122.76c-0.12,0.31-0.2,0.64-0.2,0.99c0,1.46,1.18,2.65,2.65,2.65c0.69,0,1.32-0.27,1.79-0.71
									c-0.39,0.97-1.34,1.66-2.45,1.66c-1.46,0-2.65-1.18-2.65-2.65C247.35,123.93,247.69,123.24,248.21,122.76z"/>
							</g>
						</g>
						<circle class="st6" cx="250" cy="121" r="4.2"/>
						<path class="st7" d="M246.63,118.56c-0.02,0.18-0.05,0.36-0.05,0.54c0,2.32,1.88,4.2,4.2,4.2c1.4,0,2.64-0.69,3.4-1.75
							c-0.27,2.06-2.01,3.65-4.14,3.65c-2.32,0-4.2-1.88-4.2-4.2C245.83,120.09,246.13,119.25,246.63,118.56z"/>
					</g>
					<g>
						<g>
							
								<rect x="239.13" y="161.63" transform="matrix(-1 -2.651802e-11 2.651802e-11 -1 500 328.1929)" class="st22" width="21.74" height="4.94"/>
							
								<rect x="239.13" y="161.63" transform="matrix(-1 -5.295199e-11 5.295199e-11 -1 489.1277 328.1929)" class="st20" width="10.87" height="4.94"/>
						</g>
						<g>
							
								<rect x="244.11" y="156.69" transform="matrix(-1 -4.884194e-11 4.884194e-11 -1 499.9999 318.32)" class="st22" width="11.79" height="4.94"/>
							
								<rect x="244.11" y="156.69" transform="matrix(-1 -9.768376e-11 9.768376e-11 -1 494.1063 318.32)" class="st20" width="5.89" height="4.94"/>
						</g>
					</g>
					<g>
						<g>
							<polygon class="st23" points="271.52,215.94 284.8,208.91 298.08,215.94 298.08,183.73 271.52,183.73 							"/>
							<polygon class="st8" points="284.8,208.91 271.52,215.94 271.52,183.73 284.8,183.73 							"/>
						</g>
						<g>
							<polygon class="st13" points="236.72,215.94 250,208.91 263.28,215.94 263.28,183.73 236.72,183.73 							"/>
							<polygon class="st0" points="250,208.91 236.72,215.94 236.72,183.73 250,183.73 							"/>
						</g>
						<g>
							<polygon class="st15" points="201.92,215.94 215.2,208.91 228.48,215.94 228.48,183.73 201.92,183.73 							"/>
							<polygon class="st6" points="215.2,208.91 201.92,215.94 201.92,183.73 215.2,183.73 							"/>
						</g>
					</g>
					<polygon class="st6" points="292.23,99.65 325.98,166.56 300.06,166.56 294.99,155.76 					"/>
					<polygon class="st7" points="293.7,129.58 300.06,166.56 295,156.03 					"/>
					<g>
						<g>
							<g>
								
									<rect x="150.08" y="105.22" transform="matrix(-1 -4.488555e-11 4.488555e-11 -1 339.2355 233.8359)" class="st24" width="39.07" height="23.39"/>
								<g>
									<g>
										<rect x="150.08" y="126.85" class="st25" width="39.07" height="1.76"/>
									</g>
									<g>
										<rect x="150.08" y="123.25" class="st25" width="39.07" height="1.76"/>
									</g>
									<g>
										<rect x="150.08" y="119.64" class="st25" width="39.07" height="1.76"/>
									</g>
									<g>
										<rect x="150.08" y="116.04" class="st25" width="39.07" height="1.76"/>
									</g>
									<g>
										<rect x="150.08" y="112.43" class="st25" width="39.07" height="1.76"/>
									</g>
									<g>
										<rect x="150.08" y="105.22" class="st25" width="39.07" height="1.76"/>
									</g>
									<g>
										<rect x="150.08" y="108.83" class="st25" width="39.07" height="1.76"/>
									</g>
									<g>
										<g>
											<rect x="171.45" y="105.22" class="st26" width="17.7" height="12.58"/>
										</g>
									</g>
									<polygon class="st24" points="187.65,105.71 187.47,106.21 186.94,106.22 187.37,106.54 187.21,107.05 187.65,106.74 
										188.08,107.05 187.92,106.54 188.35,106.22 187.82,106.21 									"/>
									<polygon class="st24" points="186.18,106.99 186,107.49 185.47,107.5 185.9,107.82 185.74,108.33 186.18,108.03 
										186.61,108.33 186.46,107.82 186.88,107.5 186.35,107.49 									"/>
									<polygon class="st24" points="184.71,108.28 184.53,108.78 184,108.79 184.43,109.11 184.27,109.61 184.71,109.31 
										185.14,109.61 184.99,109.11 185.41,108.79 184.88,108.78 									"/>
									<polygon class="st24" points="183.24,109.56 183.07,110.06 182.53,110.07 182.96,110.39 182.8,110.9 183.24,110.59 
										183.67,110.9 183.52,110.39 183.94,110.07 183.41,110.06 									"/>
									<polygon class="st24" points="181.77,110.84 181.6,111.34 181.07,111.35 181.49,111.67 181.33,112.18 181.77,111.88 
										182.2,112.18 182.05,111.67 182.47,111.35 181.94,111.34 									"/>
									<polygon class="st24" points="180.3,112.12 180.13,112.63 179.6,112.64 180.02,112.96 179.86,113.46 180.3,113.16 
										180.73,113.46 180.58,112.96 181,112.64 180.47,112.63 									"/>
									<polygon class="st24" points="178.83,113.41 178.66,113.91 178.13,113.92 178.55,114.24 178.4,114.75 178.83,114.44 
										179.27,114.75 179.11,114.24 179.53,113.92 179,113.91 									"/>
									<polygon class="st24" points="177.36,114.69 177.19,115.19 176.66,115.2 177.08,115.52 176.93,116.03 177.36,115.72 
										177.8,116.03 177.64,115.52 178.07,115.2 177.53,115.19 									"/>
									<polygon class="st24" points="175.89,115.97 175.72,116.48 175.19,116.49 175.61,116.81 175.46,117.31 175.89,117.01 
										176.33,117.31 176.17,116.81 176.6,116.49 176.06,116.48 									"/>
									<polygon class="st24" points="187.65,108.28 187.47,108.78 186.94,108.79 187.37,109.11 187.21,109.61 187.65,109.31 
										188.08,109.61 187.92,109.11 188.35,108.79 187.82,108.78 									"/>
									<polygon class="st24" points="186.18,109.56 186,110.06 185.47,110.07 185.9,110.39 185.74,110.9 186.18,110.59 
										186.61,110.9 186.46,110.39 186.88,110.07 186.35,110.06 									"/>
									<polygon class="st24" points="184.71,110.84 184.53,111.34 184,111.35 184.43,111.67 184.27,112.18 184.71,111.88 
										185.14,112.18 184.99,111.67 185.41,111.35 184.88,111.34 									"/>
									<polygon class="st24" points="183.24,112.12 183.07,112.63 182.53,112.64 182.96,112.96 182.8,113.46 183.24,113.16 
										183.67,113.46 183.52,112.96 183.94,112.64 183.41,112.63 									"/>
									<polygon class="st24" points="181.77,113.41 181.6,113.91 181.07,113.92 181.49,114.24 181.33,114.75 181.77,114.44 
										182.2,114.75 182.05,114.24 182.47,113.92 181.94,113.91 									"/>
									<polygon class="st24" points="180.3,114.69 180.13,115.19 179.6,115.2 180.02,115.52 179.86,116.03 180.3,115.72 
										180.73,116.03 180.58,115.52 181,115.2 180.47,115.19 									"/>
									<polygon class="st24" points="178.83,115.97 178.66,116.48 178.13,116.49 178.55,116.81 178.4,117.31 178.83,117.01 
										179.27,117.31 179.11,116.81 179.53,116.49 179,116.48 									"/>
									<polygon class="st24" points="187.65,110.84 187.47,111.34 186.94,111.35 187.37,111.67 187.21,112.18 187.65,111.88 
										188.08,112.18 187.92,111.67 188.35,111.35 187.82,111.34 									"/>
									<polygon class="st24" points="186.18,112.12 186,112.63 185.47,112.64 185.9,112.96 185.74,113.46 186.18,113.16 
										186.61,113.46 186.46,112.96 186.88,112.64 186.35,112.63 									"/>
									<polygon class="st24" points="184.71,113.41 184.53,113.91 184,113.92 184.43,114.24 184.27,114.75 184.71,114.44 
										185.14,114.75 184.99,114.24 185.41,113.92 184.88,113.91 									"/>
									<polygon class="st24" points="183.24,114.69 183.07,115.19 182.53,115.2 182.96,115.52 182.8,116.03 183.24,115.72 
										183.67,116.03 183.52,115.52 183.94,115.2 183.41,115.19 									"/>
									<polygon class="st24" points="181.77,115.97 181.6,116.48 181.07,116.49 181.49,116.81 181.33,117.31 181.77,117.01 
										182.2,117.31 182.05,116.81 182.47,116.49 181.94,116.48 									"/>
									<polygon class="st24" points="187.65,113.41 187.47,113.91 186.94,113.92 187.37,114.24 187.21,114.75 187.65,114.44 
										188.08,114.75 187.92,114.24 188.35,113.92 187.82,113.91 									"/>
									<polygon class="st24" points="186.18,114.69 186,115.19 185.47,115.2 185.9,115.52 185.74,116.03 186.18,115.72 
										186.61,116.03 186.46,115.52 186.88,115.2 186.35,115.19 									"/>
									<polygon class="st24" points="184.71,115.97 184.53,116.48 184,116.49 184.43,116.81 184.27,117.31 184.71,117.01 
										185.14,117.31 184.99,116.81 185.41,116.49 184.88,116.48 									"/>
									<polygon class="st24" points="187.65,115.97 187.47,116.48 186.94,116.49 187.37,116.81 187.21,117.31 187.65,117.01 
										188.08,117.31 187.92,116.81 188.35,116.49 187.82,116.48 									"/>
									<polygon class="st24" points="184.71,105.71 184.53,106.21 184,106.22 184.43,106.54 184.27,107.05 184.71,106.74 
										185.14,107.05 184.99,106.54 185.41,106.22 184.88,106.21 									"/>
									<polygon class="st24" points="183.24,106.99 183.07,107.49 182.53,107.5 182.96,107.82 182.8,108.33 183.24,108.03 
										183.67,108.33 183.52,107.82 183.94,107.5 183.41,107.49 									"/>
									<polygon class="st24" points="181.77,108.28 181.6,108.78 181.07,108.79 181.49,109.11 181.33,109.61 181.77,109.31 
										182.2,109.61 182.05,109.11 182.47,108.79 181.94,108.78 									"/>
									<polygon class="st24" points="180.3,109.56 180.13,110.06 179.6,110.07 180.02,110.39 179.86,110.9 180.3,110.59 
										180.73,110.9 180.58,110.39 181,110.07 180.47,110.06 									"/>
									<polygon class="st24" points="178.83,110.84 178.66,111.34 178.13,111.35 178.55,111.67 178.4,112.18 178.83,111.88 
										179.27,112.18 179.11,111.67 179.53,111.35 179,111.34 									"/>
									<polygon class="st24" points="177.36,112.12 177.19,112.63 176.66,112.64 177.08,112.96 176.93,113.46 177.36,113.16 
										177.8,113.46 177.64,112.96 178.07,112.64 177.53,112.63 									"/>
									<polygon class="st24" points="175.89,113.41 175.72,113.91 175.19,113.92 175.61,114.24 175.46,114.75 175.89,114.44 
										176.33,114.75 176.17,114.24 176.6,113.92 176.06,113.91 									"/>
									<polygon class="st24" points="174.42,114.69 174.25,115.19 173.72,115.2 174.14,115.52 173.99,116.03 174.42,115.72 
										174.86,116.03 174.7,115.52 175.13,115.2 174.6,115.19 									"/>
									<polygon class="st24" points="172.95,115.97 172.78,116.48 172.25,116.49 172.68,116.81 172.52,117.31 172.95,117.01 
										173.39,117.31 173.23,116.81 173.66,116.49 173.13,116.48 									"/>
									<polygon class="st24" points="181.77,105.71 181.6,106.21 181.07,106.22 181.49,106.54 181.33,107.05 181.77,106.74 
										182.2,107.05 182.05,106.54 182.47,106.22 181.94,106.21 									"/>
									<polygon class="st24" points="180.3,106.99 180.13,107.49 179.6,107.5 180.02,107.82 179.86,108.33 180.3,108.03 
										180.73,108.33 180.58,107.82 181,107.5 180.47,107.49 									"/>
									<polygon class="st24" points="178.83,108.28 178.66,108.78 178.13,108.79 178.55,109.11 178.4,109.61 178.83,109.31 
										179.27,109.61 179.11,109.11 179.53,108.79 179,108.78 									"/>
									<polygon class="st24" points="177.36,109.56 177.19,110.06 176.66,110.07 177.08,110.39 176.93,110.9 177.36,110.59 
										177.8,110.9 177.64,110.39 178.07,110.07 177.53,110.06 									"/>
									<polygon class="st24" points="175.89,110.84 175.72,111.34 175.19,111.35 175.61,111.67 175.46,112.18 175.89,111.88 
										176.33,112.18 176.17,111.67 176.6,111.35 176.06,111.34 									"/>
									<polygon class="st24" points="174.42,112.12 174.25,112.63 173.72,112.64 174.14,112.96 173.99,113.46 174.42,113.16 
										174.86,113.46 174.7,112.96 175.13,112.64 174.6,112.63 									"/>
									<polygon class="st24" points="172.95,113.41 172.78,113.91 172.25,113.92 172.68,114.24 172.52,114.75 172.95,114.44 
										173.39,114.75 173.23,114.24 173.66,113.92 173.13,113.91 									"/>
									<polygon class="st24" points="178.83,105.71 178.66,106.21 178.13,106.22 178.55,106.54 178.4,107.05 178.83,106.74 
										179.27,107.05 179.11,106.54 179.53,106.22 179,106.21 									"/>
									<polygon class="st24" points="177.36,106.99 177.19,107.49 176.66,107.5 177.08,107.82 176.93,108.33 177.36,108.03 
										177.8,108.33 177.64,107.82 178.07,107.5 177.53,107.49 									"/>
									<polygon class="st24" points="175.89,108.28 175.72,108.78 175.19,108.79 175.61,109.11 175.46,109.61 175.89,109.31 
										176.33,109.61 176.17,109.11 176.6,108.79 176.06,108.78 									"/>
									<polygon class="st24" points="174.42,109.56 174.25,110.06 173.72,110.07 174.14,110.39 173.99,110.9 174.42,110.59 
										174.86,110.9 174.7,110.39 175.13,110.07 174.6,110.06 									"/>
									<polygon class="st24" points="172.95,110.84 172.78,111.34 172.25,111.35 172.68,111.67 172.52,112.18 172.95,111.88 
										173.39,112.18 173.23,111.67 173.66,111.35 173.13,111.34 									"/>
									<polygon class="st24" points="175.89,105.71 175.72,106.21 175.19,106.22 175.61,106.54 175.46,107.05 175.89,106.74 
										176.33,107.05 176.17,106.54 176.6,106.22 176.06,106.21 									"/>
									<polygon class="st24" points="174.42,106.99 174.25,107.49 173.72,107.5 174.14,107.82 173.99,108.33 174.42,108.03 
										174.86,108.33 174.7,107.82 175.13,107.5 174.6,107.49 									"/>
									<polygon class="st24" points="172.95,108.28 172.78,108.78 172.25,108.79 172.68,109.11 172.52,109.61 172.95,109.31 
										173.39,109.61 173.23,109.11 173.66,108.79 173.13,108.78 									"/>
									<polygon class="st24" points="172.95,105.71 172.78,106.21 172.25,106.22 172.68,106.54 172.52,107.05 172.95,106.74 
										173.39,107.05 173.23,106.54 173.66,106.22 173.13,106.21 									"/>
								</g>
							</g>
							<rect x="189.15" y="103.15" class="st27" width="2.16" height="58.48"/>
							<g>
								<g>
									
										<rect x="179.36" y="161.63" transform="matrix(-1 -2.651802e-11 2.651802e-11 -1 380.4622 328.1929)" class="st22" width="21.74" height="4.94"/>
									
										<rect x="179.36" y="161.63" transform="matrix(-1 -5.295199e-11 5.295199e-11 -1 369.5899 328.1929)" class="st20" width="10.87" height="4.94"/>
								</g>
								<g>
									
										<rect x="184.34" y="156.69" transform="matrix(-1 -4.884194e-11 4.884194e-11 -1 380.4622 318.32)" class="st22" width="11.79" height="4.94"/>
									
										<rect x="184.34" y="156.69" transform="matrix(-1 -9.768376e-11 9.768376e-11 -1 374.5686 318.32)" class="st20" width="5.89" height="4.94"/>
								</g>
							</g>
						</g>
						<g>
							<circle class="st20" cx="190.23" cy="101.72" r="2.65"/>
							<path class="st22" d="M188.44,99.78c-0.12,0.31-0.2,0.64-0.2,0.99c0,1.46,1.18,2.65,2.65,2.65c0.69,0,1.32-0.27,1.79-0.71
								c-0.39,0.97-1.34,1.66-2.45,1.66c-1.46,0-2.65-1.18-2.65-2.65C187.58,100.95,187.92,100.26,188.44,99.78z"/>
						</g>
					</g>
					<g>
						<g>
							<g>
								<rect x="310.85" y="105.22" class="st24" width="39.07" height="23.39"/>
								<g>
									<g>
										<rect x="310.85" y="126.85" class="st25" width="39.07" height="1.76"/>
									</g>
									<g>
										<rect x="310.85" y="123.25" class="st25" width="39.07" height="1.76"/>
									</g>
									<g>
										<rect x="310.85" y="119.64" class="st25" width="39.07" height="1.76"/>
									</g>
									<g>
										<rect x="310.85" y="116.04" class="st25" width="39.07" height="1.76"/>
									</g>
									<g>
										<rect x="310.85" y="112.43" class="st25" width="39.07" height="1.76"/>
									</g>
									<g>
										<rect x="310.85" y="105.22" class="st25" width="39.07" height="1.76"/>
									</g>
									<g>
										<rect x="310.85" y="108.83" class="st25" width="39.07" height="1.76"/>
									</g>
									<g>
										<g>
											<rect x="310.85" y="105.22" class="st26" width="17.7" height="12.58"/>
										</g>
									</g>
									<polygon class="st24" points="312.35,105.71 312.53,106.21 313.06,106.22 312.63,106.54 312.79,107.05 312.35,106.74 
										311.92,107.05 312.08,106.54 311.65,106.22 312.18,106.21 									"/>
									<polygon class="st24" points="313.82,106.99 314,107.49 314.53,107.5 314.1,107.82 314.26,108.33 313.82,108.03 
										313.39,108.33 313.54,107.82 313.12,107.5 313.65,107.49 									"/>
									<polygon class="st24" points="315.29,108.28 315.47,108.78 316,108.79 315.57,109.11 315.73,109.61 315.29,109.31 
										314.86,109.61 315.01,109.11 314.59,108.79 315.12,108.78 									"/>
									<polygon class="st24" points="316.76,109.56 316.93,110.06 317.47,110.07 317.04,110.39 317.2,110.9 316.76,110.59 
										316.33,110.9 316.48,110.39 316.06,110.07 316.59,110.06 									"/>
									<polygon class="st24" points="318.23,110.84 318.4,111.34 318.93,111.35 318.51,111.67 318.67,112.18 318.23,111.88 
										317.8,112.18 317.95,111.67 317.53,111.35 318.06,111.34 									"/>
									<polygon class="st24" points="319.7,112.12 319.87,112.63 320.4,112.64 319.98,112.96 320.14,113.46 319.7,113.16 
										319.27,113.46 319.42,112.96 319,112.64 319.53,112.63 									"/>
									<polygon class="st24" points="321.17,113.41 321.34,113.91 321.87,113.92 321.45,114.24 321.6,114.75 321.17,114.44 
										320.73,114.75 320.89,114.24 320.47,113.92 321,113.91 									"/>
									<polygon class="st24" points="322.64,114.69 322.81,115.19 323.34,115.2 322.92,115.52 323.07,116.03 322.64,115.72 
										322.2,116.03 322.36,115.52 321.93,115.2 322.47,115.19 									"/>
									<polygon class="st24" points="324.11,115.97 324.28,116.48 324.81,116.49 324.39,116.81 324.54,117.31 324.11,117.01 
										323.67,117.31 323.83,116.81 323.4,116.49 323.94,116.48 									"/>
									<polygon class="st24" points="312.35,108.28 312.53,108.78 313.06,108.79 312.63,109.11 312.79,109.61 312.35,109.31 
										311.92,109.61 312.08,109.11 311.65,108.79 312.18,108.78 									"/>
									<polygon class="st24" points="313.82,109.56 314,110.06 314.53,110.07 314.1,110.39 314.26,110.9 313.82,110.59 
										313.39,110.9 313.54,110.39 313.12,110.07 313.65,110.06 									"/>
									<polygon class="st24" points="315.29,110.84 315.47,111.34 316,111.35 315.57,111.67 315.73,112.18 315.29,111.88 
										314.86,112.18 315.01,111.67 314.59,111.35 315.12,111.34 									"/>
									<polygon class="st24" points="316.76,112.12 316.93,112.63 317.47,112.64 317.04,112.96 317.2,113.46 316.76,113.16 
										316.33,113.46 316.48,112.96 316.06,112.64 316.59,112.63 									"/>
									<polygon class="st24" points="318.23,113.41 318.4,113.91 318.93,113.92 318.51,114.24 318.67,114.75 318.23,114.44 
										317.8,114.75 317.95,114.24 317.53,113.92 318.06,113.91 									"/>
									<polygon class="st24" points="319.7,114.69 319.87,115.19 320.4,115.2 319.98,115.52 320.14,116.03 319.7,115.72 
										319.27,116.03 319.42,115.52 319,115.2 319.53,115.19 									"/>
									<polygon class="st24" points="321.17,115.97 321.34,116.48 321.87,116.49 321.45,116.81 321.6,117.31 321.17,117.01 
										320.73,117.31 320.89,116.81 320.47,116.49 321,116.48 									"/>
									<polygon class="st24" points="312.35,110.84 312.53,111.34 313.06,111.35 312.63,111.67 312.79,112.18 312.35,111.88 
										311.92,112.18 312.08,111.67 311.65,111.35 312.18,111.34 									"/>
									<polygon class="st24" points="313.82,112.12 314,112.63 314.53,112.64 314.1,112.96 314.26,113.46 313.82,113.16 
										313.39,113.46 313.54,112.96 313.12,112.64 313.65,112.63 									"/>
									<polygon class="st24" points="315.29,113.41 315.47,113.91 316,113.92 315.57,114.24 315.73,114.75 315.29,114.44 
										314.86,114.75 315.01,114.24 314.59,113.92 315.12,113.91 									"/>
									<polygon class="st24" points="316.76,114.69 316.93,115.19 317.47,115.2 317.04,115.52 317.2,116.03 316.76,115.72 
										316.33,116.03 316.48,115.52 316.06,115.2 316.59,115.19 									"/>
									<polygon class="st24" points="318.23,115.97 318.4,116.48 318.93,116.49 318.51,116.81 318.67,117.31 318.23,117.01 
										317.8,117.31 317.95,116.81 317.53,116.49 318.06,116.48 									"/>
									<polygon class="st24" points="312.35,113.41 312.53,113.91 313.06,113.92 312.63,114.24 312.79,114.75 312.35,114.44 
										311.92,114.75 312.08,114.24 311.65,113.92 312.18,113.91 									"/>
									<polygon class="st24" points="313.82,114.69 314,115.19 314.53,115.2 314.1,115.52 314.26,116.03 313.82,115.72 
										313.39,116.03 313.54,115.52 313.12,115.2 313.65,115.19 									"/>
									<polygon class="st24" points="315.29,115.97 315.47,116.48 316,116.49 315.57,116.81 315.73,117.31 315.29,117.01 
										314.86,117.31 315.01,116.81 314.59,116.49 315.12,116.48 									"/>
									<polygon class="st24" points="312.35,115.97 312.53,116.48 313.06,116.49 312.63,116.81 312.79,117.31 312.35,117.01 
										311.92,117.31 312.08,116.81 311.65,116.49 312.18,116.48 									"/>
									<polygon class="st24" points="315.29,105.71 315.47,106.21 316,106.22 315.57,106.54 315.73,107.05 315.29,106.74 
										314.86,107.05 315.01,106.54 314.59,106.22 315.12,106.21 									"/>
									<polygon class="st24" points="316.76,106.99 316.93,107.49 317.47,107.5 317.04,107.82 317.2,108.33 316.76,108.03 
										316.33,108.33 316.48,107.82 316.06,107.5 316.59,107.49 									"/>
									<polygon class="st24" points="318.23,108.28 318.4,108.78 318.93,108.79 318.51,109.11 318.67,109.61 318.23,109.31 
										317.8,109.61 317.95,109.11 317.53,108.79 318.06,108.78 									"/>
									<polygon class="st24" points="319.7,109.56 319.87,110.06 320.4,110.07 319.98,110.39 320.14,110.9 319.7,110.59 
										319.27,110.9 319.42,110.39 319,110.07 319.53,110.06 									"/>
									<polygon class="st24" points="321.17,110.84 321.34,111.34 321.87,111.35 321.45,111.67 321.6,112.18 321.17,111.88 
										320.73,112.18 320.89,111.67 320.47,111.35 321,111.34 									"/>
									<polygon class="st24" points="322.64,112.12 322.81,112.63 323.34,112.64 322.92,112.96 323.07,113.46 322.64,113.16 
										322.2,113.46 322.36,112.96 321.93,112.64 322.47,112.63 									"/>
									<polygon class="st24" points="324.11,113.41 324.28,113.91 324.81,113.92 324.39,114.24 324.54,114.75 324.11,114.44 
										323.67,114.75 323.83,114.24 323.4,113.92 323.94,113.91 									"/>
									<polygon class="st24" points="325.58,114.69 325.75,115.19 326.28,115.2 325.86,115.52 326.01,116.03 325.58,115.72 
										325.14,116.03 325.3,115.52 324.87,115.2 325.4,115.19 									"/>
									<polygon class="st24" points="327.05,115.97 327.22,116.48 327.75,116.49 327.32,116.81 327.48,117.31 327.05,117.01 
										326.61,117.31 326.77,116.81 326.34,116.49 326.87,116.48 									"/>
									<polygon class="st24" points="318.23,105.71 318.4,106.21 318.93,106.22 318.51,106.54 318.67,107.05 318.23,106.74 
										317.8,107.05 317.95,106.54 317.53,106.22 318.06,106.21 									"/>
									<polygon class="st24" points="319.7,106.99 319.87,107.49 320.4,107.5 319.98,107.82 320.14,108.33 319.7,108.03 
										319.27,108.33 319.42,107.82 319,107.5 319.53,107.49 									"/>
									<polygon class="st24" points="321.17,108.28 321.34,108.78 321.87,108.79 321.45,109.11 321.6,109.61 321.17,109.31 
										320.73,109.61 320.89,109.11 320.47,108.79 321,108.78 									"/>
									<polygon class="st24" points="322.64,109.56 322.81,110.06 323.34,110.07 322.92,110.39 323.07,110.9 322.64,110.59 
										322.2,110.9 322.36,110.39 321.93,110.07 322.47,110.06 									"/>
									<polygon class="st24" points="324.11,110.84 324.28,111.34 324.81,111.35 324.39,111.67 324.54,112.18 324.11,111.88 
										323.67,112.18 323.83,111.67 323.4,111.35 323.94,111.34 									"/>
									<polygon class="st24" points="325.58,112.12 325.75,112.63 326.28,112.64 325.86,112.96 326.01,113.46 325.58,113.16 
										325.14,113.46 325.3,112.96 324.87,112.64 325.4,112.63 									"/>
									<polygon class="st24" points="327.05,113.41 327.22,113.91 327.75,113.92 327.32,114.24 327.48,114.75 327.05,114.44 
										326.61,114.75 326.77,114.24 326.34,113.92 326.87,113.91 									"/>
									<polygon class="st24" points="321.17,105.71 321.34,106.21 321.87,106.22 321.45,106.54 321.6,107.05 321.17,106.74 
										320.73,107.05 320.89,106.54 320.47,106.22 321,106.21 									"/>
									<polygon class="st24" points="322.64,106.99 322.81,107.49 323.34,107.5 322.92,107.82 323.07,108.33 322.64,108.03 
										322.2,108.33 322.36,107.82 321.93,107.5 322.47,107.49 									"/>
									<polygon class="st24" points="324.11,108.28 324.28,108.78 324.81,108.79 324.39,109.11 324.54,109.61 324.11,109.31 
										323.67,109.61 323.83,109.11 323.4,108.79 323.94,108.78 									"/>
									<polygon class="st24" points="325.58,109.56 325.75,110.06 326.28,110.07 325.86,110.39 326.01,110.9 325.58,110.59 
										325.14,110.9 325.3,110.39 324.87,110.07 325.4,110.06 									"/>
									<polygon class="st24" points="327.05,110.84 327.22,111.34 327.75,111.35 327.32,111.67 327.48,112.18 327.05,111.88 
										326.61,112.18 326.77,111.67 326.34,111.35 326.87,111.34 									"/>
									<polygon class="st24" points="324.11,105.71 324.28,106.21 324.81,106.22 324.39,106.54 324.54,107.05 324.11,106.74 
										323.67,107.05 323.83,106.54 323.4,106.22 323.94,106.21 									"/>
									<polygon class="st24" points="325.58,106.99 325.75,107.49 326.28,107.5 325.86,107.82 326.01,108.33 325.58,108.03 
										325.14,108.33 325.3,107.82 324.87,107.5 325.4,107.49 									"/>
									<polygon class="st24" points="327.05,108.28 327.22,108.78 327.75,108.79 327.32,109.11 327.48,109.61 327.05,109.31 
										326.61,109.61 326.77,109.11 326.34,108.79 326.87,108.78 									"/>
									<polygon class="st24" points="327.05,105.71 327.22,106.21 327.75,106.22 327.32,106.54 327.48,107.05 327.05,106.74 
										326.61,107.05 326.77,106.54 326.34,106.22 326.87,106.21 									"/>
								</g>
							</g>
							
								<rect x="308.69" y="103.15" transform="matrix(-1 -4.504276e-11 4.504276e-11 -1 619.5378 264.7772)" class="st27" width="2.16" height="58.48"/>
							<g>
								<g>
									<rect x="298.9" y="161.63" class="st22" width="21.74" height="4.94"/>
									<rect x="309.77" y="161.63" class="st20" width="10.87" height="4.94"/>
								</g>
								<g>
									<rect x="303.88" y="156.69" class="st22" width="11.79" height="4.94"/>
									<rect x="309.77" y="156.69" class="st20" width="5.89" height="4.94"/>
								</g>
							</g>
						</g>
						<g>
							<circle class="st20" cx="309.77" cy="101.72" r="2.65"/>
							<path class="st22" d="M311.56,99.78c0.12,0.31,0.2,0.64,0.2,0.99c0,1.46-1.18,2.65-2.65,2.65c-0.69,0-1.32-0.27-1.79-0.71
								c0.39,0.97,1.34,1.66,2.45,1.66c1.46,0,2.65-1.18,2.65-2.65C312.42,100.95,312.08,100.26,311.56,99.78z"/>
						</g>
					</g>
				</g>
				<g>
					<path class="st23" d="M365.57,244.65H134.43l10,20.24l-10,20.24h231.15l-10-20.24L365.57,244.65z M146.98,280.79
						c-0.94,0-1.7-0.76-1.7-1.7s0.76-1.7,1.7-1.7c0.94,0,1.7,0.76,1.7,1.7S147.92,280.79,146.98,280.79z M353.02,280.79
						c-0.94,0-1.7-0.76-1.7-1.7s0.76-1.7,1.7-1.7c0.94,0,1.7,0.76,1.7,1.7S353.96,280.79,353.02,280.79z"/>
					<path class="st8" d="M355.57,264.89H144.43l-10,20.24h231.15L355.57,264.89z"/>
					<text transform="matrix(1 0 0 1 180.085 273.6051)" class="st12 st28 st29">PRESIDENT’S</text>
					<text transform="matrix(1 0 0 1 207.5234 314.1269)" class="st12 st30 st31">Day</text>
				</g>
			</g>
		</g>
		<g>
			<g>
				<g>
					<g>
						<g>
							<g>
								<g>
									<g>
										<path class="st6" d="M416.91,299.4c-5.63-4.97-16.75-15.54-13.05-18.41c2.92-2.27,8.66,3.38,8.66,3.38
											s-9.92-20.81-6.23-22.17c2.89-1.07,9.95,13.97,9.95,13.97s-5.65-23.73-1.93-23.59c3.72,0.14,8.61,21.34,8.61,21.34
											s-1.47-21.06,2.24-20.18c3.71,0.88,5.23,19.9,5.23,19.9s-0.15-17.63,4.2-14.28c3.49,2.68,2.88,25.84,2.51,34.91
											c0,0-0.22,3.68-3.75,5.6C422.57,305.76,416.91,299.4,416.91,299.4z"/>
									</g>
								</g>
							</g>
						</g>
					</g>
					<g>
						<polygon class="st6" points="437.14,293.1 470.99,415.3 441.49,426.23 417.48,298.11 						"/>
					</g>
				</g>
			</g>
			<g>
				<g>
					<g>
						<g>
							<g>
								<path class="st7" d="M95.13,319.46c-4.95-5.65-14.64-17.55-10.6-19.92c3.19-1.87,8.16,4.46,8.16,4.46s-7.19-21.9-3.35-22.78
									c3-0.69,8.09,15.12,8.09,15.12s-2.58-24.26,1.09-23.64c3.67,0.62,5.82,22.26,5.82,22.26s1.23-21.07,4.79-19.73
									c3.57,1.34,2.65,20.41,2.65,20.41s2.09-17.5,5.98-13.63c3.12,3.11-0.43,25.99-1.96,34.94c0,0-0.69,3.62-4.43,5.08
									C99.94,326.5,95.13,319.46,95.13,319.46z"/>
							</g>
						</g>
					</g>
				</g>
				<polygon class="st7" points="116,315.79 134.02,441.3 103.37,448.39 95.87,318.26 				"/>
			</g>
			<path class="st6" d="M150.7,411.89c12.52-6.65,21.92-9.59,21.92-9.59v-11.35c0,0-5.28-5.28-8.22-15.26c0,0-4.69-3.06-5.32-7.98
				c-0.6-4.74,2.28-6.4,4.86-6.01c0,0,0.36-1.66-0.52-5.58c-0.88-3.91-0.91-19.76,10.18-23.32c41.6-13.36,36.79,23.32,36.79,23.32
				c-0.88,3.91-0.52,5.58-0.52,5.58c2.58-0.39,5.46,1.27,4.86,6.01c-0.63,4.92-5.32,7.98-5.32,7.98
				c-2.94,9.98-8.22,15.26-8.22,15.26v11.35c0,0,9.39,2.94,21.92,9.59c12.52,6.65,13.31,22.9,13.31,22.9v35.95H186.9h-49.51v-35.95
				C137.39,434.78,138.17,418.54,150.7,411.89z"/>
			<path class="st7" d="M293.04,405.85c12.52-6.65,21.92-9.59,21.92-9.59v-11.35c0,0-5.28-5.28-8.22-15.26c0,0-4.69-3.06-5.32-7.98
				c-0.6-4.74,2.28-6.4,4.86-6.01c0,0,0.36-1.66-0.52-5.58s-0.91-19.76,10.18-23.32c41.6-13.36,36.79,23.32,36.79,23.32
				c-0.88,3.91-0.52,5.58-0.52,5.58c2.58-0.39,5.46,1.27,4.86,6.01c-0.63,4.92-5.32,7.98-5.32,7.98
				c-2.94,9.98-8.22,15.26-8.22,15.26v11.35c0,0,9.39,2.94,21.92,9.59c12.52,6.65,13.31,22.9,13.31,22.9v35.95h-49.51h-49.51v-35.95
				C279.73,428.75,280.52,412.51,293.04,405.85z"/>
			<path class="st15" d="M220.87,429.05c12.52-6.65,9.88-23.16,9.88-23.16l4.54,0.83c0,0,2.22-3.9-0.71-13.88
				c0,0-4.69-3.06-5.32-7.98c-0.6-4.74,2.28-6.4,4.86-6.01c0,0,0.36-1.66-0.52-5.58s-0.91-19.76,10.18-23.32
				c41.6-13.36,36.79,23.32,36.79,23.32c-0.88,3.91-0.52,5.58-0.52,5.58c2.58-0.39,5.46,1.27,4.86,6.01
				c-0.63,4.92-5.32,7.98-5.32,7.98c-2.94,9.98,4.44,14.24,4.44,14.24l6.98,10.37c0,0-10.25,4.94,2.28,11.59
				c12.52,6.65,13.31,22.9,13.31,22.9v35.95h-49.51h-49.51v-35.95C207.56,451.95,208.34,435.7,220.87,429.05z"/>
			<g>
				<g>
					<g>
						<g>
							<g>
								<path class="st7" d="M385.79,342.04c5.08-5.53,15.05-17.19,11.07-19.66c-3.14-1.95-8.27,4.26-8.27,4.26
									s7.71-21.72,3.89-22.7c-2.99-0.76-8.44,14.92-8.44,14.92s3.16-24.19-0.53-23.66c-3.68,0.53-6.34,22.12-6.34,22.12
									s-0.73-21.1-4.32-19.84s-3.14,20.34-3.14,20.34s-1.68-17.55-5.66-13.77c-3.19,3.03-0.19,26,1.13,34.98
									c0,0,0.6,3.64,4.31,5.19C380.81,348.96,385.79,342.04,385.79,342.04z"/>
							</g>
						</g>
					</g>
				</g>
				<polygon class="st7" points="365.01,337.87 344.02,462.92 374.5,470.73 385.08,340.82 				"/>
			</g>
			<g>
				<path class="st6" d="M57.67,404.99c-14.52-7.71-25.41-11.12-25.41-11.12v-13.16c0,0,6.13-6.13,9.53-17.7
					c0,0,5.44-3.55,6.16-9.25c0.7-5.5-2.65-7.42-5.63-6.97c0,0-0.42-1.93,0.6-6.47c0.49-2.18,3.25-7.23,5.05-12.84
					c2.27-7.08-3.35-14.14-10.78-13.68c-1.76,0.11-3.79-0.02-6.07-0.52C16.2,310,6.41,311.15,0,314.37V473.2h15.7h57.4v-41.67
					C73.1,431.53,72.19,412.7,57.67,404.99z"/>
				<path class="st6" d="M442.33,404.99c14.52-7.71,25.41-11.12,25.41-11.12v-13.16c0,0-6.13-6.13-9.53-17.7
					c0,0-5.44-3.55-6.16-9.25c-0.7-5.5,2.65-7.42,5.63-6.97c0,0,0.42-1.93-0.6-6.47c-0.49-2.18-3.25-7.23-5.05-12.84
					c-2.27-7.08,3.35-14.14,10.78-13.68c1.76,0.11,3.79-0.02,6.07-0.52c14.92-3.3,24.71-2.14,31.12,1.08V473.2h-15.7h-57.4v-41.67
					C426.9,431.53,427.81,412.7,442.33,404.99z"/>
				<path class="st7" d="M99.37,433.08c-14.52-7.71-25.41-11.12-25.41-11.12V408.8c0,0,6.13-6.13,9.53-17.7c0,0,5.44-3.55,6.16-9.25
					c0.7-5.5-2.65-7.42-5.63-6.97c0,0-0.42-1.93,0.6-6.47c1.02-4.54,11.91-21.59,3.4-30.1c0,0-5,5.32-15.2,3.06
					c-49.46-10.93-42.65,27.04-42.65,27.04c1.02,4.54,0.6,6.47,0.6,6.47c-2.99-0.45-6.33,1.47-5.63,6.97
					c0.73,5.7,6.16,9.25,6.16,9.25c3.4,11.57,9.53,17.7,9.53,17.7v13.16c0,0-10.89,3.4-25.41,11.12C0.91,440.79,0,459.62,0,459.62
					v41.67h57.4h57.4v-41.67C114.8,459.62,113.89,440.79,99.37,433.08z"/>
				<path class="st7" d="M256,442.45c-12.52-6.65-21.92-9.59-21.92-9.59v-11.35c0,0,5.28-5.28,8.22-15.26c0,0,4.69-3.06,5.32-7.98
					c0.6-4.74-2.28-6.4-4.86-6.01c0,0-0.36-1.66,0.52-5.58c0.88-3.91,0.91-19.76-10.18-23.32c-41.6-13.36-36.79,23.32-36.79,23.32
					c0.88,3.91,0.52,5.58,0.52,5.58c-2.58-0.39-5.46,1.27-4.86,6.01c0.63,4.92,5.32,7.98,5.32,7.98c2.94,9.98,8.22,15.26,8.22,15.26
					v11.35c0,0-9.39,2.94-21.92,9.59c-12.52,6.65-13.31,22.9-13.31,22.9v35.95h49.51h49.51v-35.95
					C269.31,465.35,268.52,449.1,256,442.45z"/>
				<g>
					<g>
						<g>
							<path class="st15" d="M108.36,439.26c13.2-7.01,23.1-10.11,23.1-10.11v-11.96c0,0-5.57-5.57-8.66-16.09
								c0,0-4.95-3.23-5.6-8.41c-0.64-5,2.41-6.75,5.12-6.34c0,0,0.38-1.75-0.55-5.88c-0.93-4.13-10.83-19.63-3.09-27.37
								c0,0,4.54,4.83,13.82,2.78c44.97-9.94,38.78,24.58,38.78,24.58c-0.93,4.13-0.55,5.88-0.55,5.88
								c2.72-0.41,5.76,1.34,5.12,6.34c-0.66,5.18-5.6,8.41-5.6,8.41c-3.09,10.52-8.66,16.09-8.66,16.09v11.96
								c0,0,9.9,3.09,23.1,10.11c13.2,7.01,14.03,24.14,14.03,24.14v37.89h-52.19H94.33V463.4
								C94.33,463.4,95.16,446.28,108.36,439.26z"/>
						</g>
						<g>
							<path class="st15" d="M163.95,358.84c0,0,21.16-2.67,17.3,16.84c-3.86,19.51-5.44,38.55,3.4,44.12s-8.85,16.68-46.06,14.87
								c-37.21-1.82-31.54-65.11-20.19-73.73S163.95,358.84,163.95,358.84z"/>
						</g>
					</g>
				</g>
				<g>
					<path class="st7" d="M400.63,433.08c14.52-7.71,25.41-11.12,25.41-11.12V408.8c0,0-6.13-6.13-9.53-17.7
						c0,0-5.44-3.55-6.16-9.25c-0.7-5.5,2.65-7.42,5.63-6.97c0,0,0.42-1.93-0.6-6.47c-1.02-4.54,1.59-24.78,11.8-27.04
						c49.46-10.93,42.65,27.04,42.65,27.04c-1.02,4.54-0.6,6.47-0.6,6.47c2.99-0.45,6.33,1.47,5.63,6.97
						c-0.73,5.7-6.16,9.25-6.16,9.25c-3.4,11.57-9.53,17.7-9.53,17.7v13.16c0,0,10.89,3.4,25.41,11.12
						c14.52,7.71,15.43,26.54,15.43,26.54v41.67h-57.4h-57.4v-41.67C385.2,459.62,386.11,440.79,400.63,433.08z"/>
					<path class="st7" d="M423.88,342.88c0,0-9.82-7.71-16.97,4.29c-7.15,12-8.94,28.6-2.3,46.21c6.64,17.62-17.62,32.17-0.77,52.34
						c16.85,20.17,69.96,4.34,76.34-24c6.38-28.34-5.36-28.6,0-43.4C485.55,363.51,463.83,313.31,423.88,342.88z"/>
					<path class="st15" d="M330.03,442.45c12.52-6.65,21.92-9.59,21.92-9.59v-11.35c0,0-5.28-5.28-8.22-15.26
						c0,0-4.69-3.06-5.32-7.98c-0.6-4.74,2.28-6.4,4.86-6.01c0,0,0.36-1.66-0.52-5.58s-0.91-19.76,10.18-23.32
						c41.6-13.36,36.79,23.32,36.79,23.32c-0.88,3.91-0.52,5.58-0.52,5.58c2.58-0.39,5.46,1.27,4.86,6.01
						c-0.63,4.92-5.32,7.98-5.32,7.98c-2.94,9.98-8.22,15.26-8.22,15.26v11.35c0,0,9.39,2.94,21.92,9.59
						c12.52,6.65,13.31,22.9,13.31,22.9v35.95h-49.51h-49.51v-35.95C316.72,465.35,317.5,449.1,330.03,442.45z"/>
				</g>
				<g>
					<path class="st6" d="M260.77,442.98c12.41-6.59,21.72-9.5,21.72-9.5v-11.25c0,0-5.24-5.24-8.15-15.13c0,0-4.65-3.03-5.27-7.91
						c-0.6-4.7,2.26-6.35,4.82-5.96c0,0,0.36-1.65-0.52-5.53c-0.87-3.88-10.18-18.46-2.91-25.73c0,0,4.27,4.55,12.99,2.62
						c42.28-9.34,36.46,23.11,36.46,23.11c-0.87,3.88-0.52,5.53-0.52,5.53c2.55-0.39,5.41,1.26,4.82,5.96
						c-0.62,4.87-5.27,7.91-5.27,7.91c-2.91,9.89-8.15,15.13-8.15,15.13v11.25c0,0,9.31,2.91,21.72,9.5
						c12.41,6.59,13.19,22.69,13.19,22.69v35.62h-49.07h-49.07v-35.62C247.59,465.67,248.36,449.57,260.77,442.98z"/>
				</g>
			</g>
			<g>
				<g>
					<g>
						<g>
							<g>
								<g>
									<g>
										<path class="st6" d="M44.17,254.53c5.54-5.07,16.48-15.83,12.73-18.63c-2.96-2.21-8.6,3.53-8.6,3.53
											s9.56-20.97,5.84-22.28c-2.91-1.02-9.7,14.14-9.7,14.14s5.24-23.83,1.52-23.62c-3.71,0.21-8.23,21.49-8.23,21.49
											s1.1-21.08-2.59-20.14s-4.88,19.99-4.88,19.99s-0.15-17.63-4.45-14.21c-3.44,2.74-2.44,25.88-1.9,34.95
											c0,0,0.29,3.67,3.84,5.54C38.61,260.99,44.17,254.53,44.17,254.53z"/>
									</g>
								</g>
							</g>
						</g>
					</g>
					<g>
						<polygon class="st6" points="23.83,248.58 0,353.53 26.57,353.53 43.57,253.25 						"/>
					</g>
				</g>
			</g>
			<g>
				<g>
					<g>
						<g>
							<g>
								<g>
									<g>
										<path class="st6" d="M455.83,254.53c-5.54-5.07-16.48-15.83-12.73-18.63c2.96-2.21,8.6,3.53,8.6,3.53
											s-9.56-20.97-5.84-22.28c2.91-1.02,9.7,14.14,9.7,14.14s-5.24-23.83-1.52-23.62c3.71,0.21,8.23,21.49,8.23,21.49
											s-1.1-21.08,2.59-20.14s4.88,19.99,4.88,19.99s0.15-17.63,4.45-14.21c3.44,2.74,2.44,25.88,1.9,34.95
											c0,0-0.29,3.67-3.84,5.54C461.39,260.99,455.83,254.53,455.83,254.53z"/>
									</g>
								</g>
							</g>
						</g>
					</g>
					<g>
						<polygon class="st6" points="476.17,248.58 500,353.53 473.43,353.53 456.43,253.25 						"/>
					</g>
				</g>
			</g>
		</g>
	</g>
</g>
</svg>
