<?xml version="1.0" encoding="utf-8"?>
<!-- Generator: Adobe Illustrator 25.4.1, SVG Export Plug-In . SVG Version: 6.00 Build 0)  -->
<svg version="1.1" xmlns="http://www.w3.org/2000/svg" xmlns:xlink="http://www.w3.org/1999/xlink" x="0px" y="0px"
	 viewBox="0 0 2200 2200" style="enable-background:new 0 0 2200 2200;" xml:space="preserve">
<style type="text/css">
	.st0{display:none;}
	.st1{display:inline;fill:#FFFFFF;}
	.st2{display:inline;}
</style>
<g id="Background" class="st0">
	<rect class="st1" width="2200" height="2200"/>
</g>
<g id="Objects">
	<g class="st0">
		<path class="st2" d="M1110.38,2119.66c-135.84,0-267.63-26.61-391.72-79.1c-119.84-50.69-227.45-123.24-319.86-215.65
			c-92.41-92.41-164.96-200.02-215.65-319.86c-52.48-124.09-79.1-255.88-79.1-391.72s26.61-267.63,79.1-391.72
			c50.69-119.84,123.24-227.45,215.65-319.86c92.41-92.41,200.02-164.96,319.86-215.65c124.09-52.48,255.88-79.1,391.72-79.1
			s267.63,26.61,391.72,79.1c119.84,50.69,227.45,123.24,319.86,215.65c92.41,92.41,164.96,200.02,215.65,319.86
			c52.49,124.09,79.1,255.88,79.1,391.72s-26.61,267.63-79.1,391.72c-50.69,119.84-123.24,227.45-215.65,319.86
			c-92.41,92.41-200.02,164.96-319.86,215.65C1378.01,2093.05,1246.21,2119.66,1110.38,2119.66z M1110.38,183.83
			c-125.5,0-247.22,24.57-361.79,73.03C637.9,303.67,538.49,370.7,453.12,456.07S300.71,640.86,253.9,751.54
			c-48.46,114.57-73.03,236.29-73.03,361.79s24.57,247.23,73.03,361.79c46.81,110.68,113.84,210.09,199.22,295.47
			c85.38,85.38,184.79,152.4,295.47,199.22c114.57,48.46,236.29,73.03,361.79,73.03s247.22-24.57,361.79-73.03
			c110.68-46.81,210.09-113.84,295.47-199.22c85.38-85.38,152.4-184.79,199.22-295.47c48.46-114.57,73.03-236.3,73.03-361.79
			s-24.57-247.22-73.03-361.79c-46.81-110.68-113.84-210.09-199.22-295.47c-85.38-85.38-184.79-152.4-295.47-199.22
			C1357.6,208.4,1235.88,183.83,1110.38,183.83z"/>
		<path class="st2" d="M1542.06,1200.86l-615.97,444.07c-71.37,51.45-171,0.45-171-87.53V669.26c0-87.98,99.64-138.98,171-87.53
			l615.97,444.07C1601.8,1068.87,1601.8,1157.8,1542.06,1200.86z"/>
	</g>
	<g>
		<path d="M1108.95,2081c-133.23,0-262.49-26.1-384.2-77.58c-117.53-49.71-223.09-120.87-313.72-211.51
			c-90.63-90.63-161.79-196.18-211.51-313.72c-51.48-121.71-77.58-250.97-77.58-384.2s26.1-262.49,77.58-384.19
			c49.71-117.54,120.87-223.08,211.51-313.72c90.63-90.63,196.18-161.79,313.72-211.51c121.71-51.48,250.97-77.58,384.2-77.58
			s262.49,26.1,384.2,77.58c117.53,49.71,223.09,120.87,313.72,211.51c90.63,90.63,161.79,196.18,211.51,313.72
			c51.48,121.71,77.58,250.97,77.58,384.19s-26.1,262.49-77.58,384.2c-49.71,117.54-120.88,223.08-211.51,313.72
			c-90.63,90.63-196.18,161.79-313.72,211.51C1371.44,2054.9,1242.18,2081,1108.95,2081z M1108.95,182.35
			c-123.09,0-242.48,24.1-354.85,71.63c-108.55,45.91-206.05,111.65-289.79,195.39S314.84,630.61,268.93,739.16
			C221.4,851.53,197.3,970.92,197.3,1094s24.1,242.48,71.63,354.84c45.91,108.55,111.65,206.05,195.39,289.79
			c83.74,83.74,181.24,149.48,289.79,195.39c112.37,47.53,231.76,71.63,354.85,71.63s242.48-24.1,354.84-71.63
			c108.55-45.91,206.05-111.65,289.79-195.39c83.74-83.74,149.48-181.24,195.39-289.79c47.53-112.37,71.63-231.76,71.63-354.84
			s-24.1-242.48-71.63-354.84c-45.91-108.55-111.65-206.05-195.39-289.79c-83.74-83.74-181.24-149.48-289.79-195.39
			C1351.43,206.45,1232.04,182.35,1108.95,182.35z"/>
		<path d="M900.33,1568.48h-56.72c-14.73,0-26.67-11.94-26.67-26.67V646.2c0-14.73,11.94-26.67,26.67-26.67h56.72
			c14.73,0,26.67,11.94,26.67,26.67v895.61C927,1556.54,915.06,1568.48,900.33,1568.48z"/>
		<path d="M1374.3,1568.48h-56.72c-14.73,0-26.67-11.94-26.67-26.67V646.2c0-14.73,11.94-26.67,26.67-26.67h56.72
			c14.73,0,26.67,11.94,26.67,26.67v895.61C1400.97,1556.54,1389.03,1568.48,1374.3,1568.48z"/>
	</g>
	<g class="st0">
		<path class="st2" d="M408.56,1913.85l-0.03-0.05c0.01,0.01,0.01,0.02,0.02,0.02C408.55,1913.84,408.55,1913.85,408.56,1913.85z"/>
		<path class="st2" d="M408.56,1913.85l-0.03-0.05c0.01,0.01,0.01,0.02,0.02,0.02C408.55,1913.84,408.55,1913.85,408.56,1913.85z"/>
		<path class="st2" d="M717.71,1844.6L717.71,1844.6c-14.73,0-26.67-11.94-26.67-26.67v-406.57c0-14.73,11.94-26.67,26.67-26.67h0
			c14.73,0,26.67,11.94,26.67,26.67v406.57C744.38,1832.66,732.44,1844.6,717.71,1844.6z"/>
		<path class="st2" d="M582.4,2092.99c-64.57,0-127.21-12.65-186.2-37.6c-56.96-24.09-108.12-58.58-152.04-102.51
			c-43.92-43.92-78.41-95.08-102.51-152.04c-24.95-58.99-37.6-121.63-37.6-186.2s12.65-127.21,37.6-186.2
			c24.09-56.96,58.58-108.12,102.51-152.04c43.92-43.92,95.08-78.41,152.04-102.51c58.98-24.95,121.63-37.6,186.2-37.6
			s127.21,12.65,186.2,37.6c56.96,24.09,108.12,58.58,152.04,102.51c43.92,43.92,78.41,95.08,102.51,152.04
			c24.95,58.99,37.6,121.63,37.6,186.2s-12.65,127.21-37.6,186.2c-24.09,56.96-58.58,108.12-102.51,152.04
			c-43.92,43.92-95.08,78.41-152.04,102.51C709.61,2080.34,646.97,2092.99,582.4,2092.99z M582.4,1172.81
			c-59.66,0-117.52,11.68-171.98,34.71c-52.61,22.25-99.86,54.11-140.45,94.7s-72.44,87.84-94.7,140.45
			c-23.03,54.46-34.71,112.32-34.71,171.98s11.68,117.52,34.71,171.98c22.25,52.61,54.11,99.86,94.7,140.45s87.84,72.44,140.45,94.7
			c54.46,23.04,112.32,34.71,171.98,34.71s117.52-11.68,171.98-34.71c52.61-22.25,99.86-54.11,140.45-94.7s72.44-87.84,94.7-140.45
			c23.04-54.46,34.71-112.32,34.71-171.98s-11.68-117.52-34.71-171.98c-22.25-52.61-54.11-99.86-94.7-140.45
			s-87.84-72.44-140.45-94.7C699.92,1184.49,642.05,1172.81,582.4,1172.81z"/>
		<path class="st2" d="M674.61,1646.73l-225.81,162.8c-26.16,18.86-62.69,0.17-62.69-32.09v-325.59c0-32.25,36.53-50.95,62.69-32.09
			l225.81,162.8C696.51,1598.34,696.51,1630.94,674.61,1646.73z"/>
	</g>
	<g class="st0">
		<path class="st2" d="M1617.6,2092.99c-64.57,0-127.21-12.65-186.2-37.6c-56.96-24.09-108.12-58.58-152.04-102.51
			c-43.92-43.92-78.41-95.08-102.51-152.04c-24.95-58.99-37.6-121.63-37.6-186.2s12.65-127.21,37.6-186.2
			c24.09-56.96,58.58-108.12,102.51-152.04c43.92-43.92,95.08-78.41,152.04-102.51c58.99-24.95,121.63-37.6,186.2-37.6
			s127.21,12.65,186.2,37.6c56.96,24.09,108.12,58.58,152.04,102.51c43.92,43.92,78.41,95.08,102.51,152.04
			c24.95,58.99,37.6,121.63,37.6,186.2s-12.65,127.21-37.6,186.2c-24.09,56.96-58.58,108.12-102.51,152.04
			c-43.92,43.92-95.08,78.41-152.04,102.51C1744.82,2080.34,1682.17,2092.99,1617.6,2092.99z M1617.6,1172.81
			c-59.66,0-117.52,11.68-171.98,34.71c-52.61,22.25-99.86,54.11-140.45,94.7s-72.44,87.84-94.7,140.45
			c-23.04,54.46-34.71,112.32-34.71,171.98s11.68,117.52,34.71,171.98c22.25,52.61,54.11,99.86,94.7,140.45s87.84,72.44,140.45,94.7
			c54.46,23.04,112.32,34.71,171.98,34.71s117.52-11.68,171.98-34.71c52.61-22.25,99.86-54.11,140.45-94.7s72.44-87.84,94.7-140.45
			c23.04-54.46,34.71-112.32,34.71-171.98s-11.68-117.52-34.71-171.98c-22.25-52.61-54.11-99.86-94.7-140.45
			s-87.84-72.44-140.45-94.7C1735.12,1184.49,1677.26,1172.81,1617.6,1172.81z"/>
		<rect x="1417.36" y="1414.4" class="st2" width="400.49" height="400.49"/>
	</g>
</g>
</svg>
