<?xml version="1.0" encoding="utf-8"?>
<!-- Generator: Adobe Illustrator 25.4.1, SVG Export Plug-In . SVG Version: 6.00 Build 0)  -->
<svg version="1.1" xmlns="http://www.w3.org/2000/svg" xmlns:xlink="http://www.w3.org/1999/xlink" x="0px" y="0px"
	 viewBox="0 0 800 800" style="enable-background:new 0 0 800 800;" xml:space="preserve">
<style type="text/css">
	.st0{display:none;}
	.st1{display:inline;}
	.st2{fill:#434648;}
	.st3{display:none;fill:#1D1D1B;}
	.st4{fill:#210404;}
</style>
<g id="background" class="st0">
	<g class="st1">
		<g>
			<path class="st2" d="M288.49,778.67v-0.26c-0.35,0.4-0.69,0.72-1.03,0.97c-0.34,0.25-0.71,0.44-1.1,0.57
				c-0.4,0.13-0.83,0.2-1.3,0.2c-0.62,0-1.2-0.13-1.72-0.39c-0.53-0.26-0.99-0.64-1.37-1.13c-0.39-0.49-0.68-1.06-0.88-1.72
				c-0.2-0.66-0.3-1.37-0.3-2.14c0-1.62,0.4-2.89,1.19-3.79c0.79-0.9,1.83-1.36,3.12-1.36c0.75,0,1.38,0.13,1.89,0.38
				c0.51,0.26,1.01,0.65,1.5,1.18v-3.83c0-0.53,0.11-0.93,0.32-1.21c0.21-0.27,0.51-0.41,0.91-0.41c0.39,0,0.69,0.12,0.91,0.38
				c0.21,0.25,0.32,0.62,0.32,1.11v11.44c0,0.49-0.11,0.86-0.34,1.11c-0.23,0.25-0.52,0.37-0.88,0.37c-0.35,0-0.65-0.13-0.88-0.38
				C288.61,779.51,288.49,779.14,288.49,778.67z M283.39,774.86c0,0.7,0.11,1.3,0.33,1.79c0.22,0.49,0.52,0.87,0.9,1.12
				c0.38,0.25,0.79,0.38,1.24,0.38c0.46,0,0.87-0.12,1.25-0.36c0.38-0.24,0.68-0.6,0.9-1.09c0.23-0.49,0.34-1.11,0.34-1.84
				c0-0.69-0.11-1.28-0.34-1.78c-0.22-0.5-0.53-0.88-0.91-1.14c-0.38-0.26-0.8-0.39-1.26-0.39c-0.47,0-0.9,0.13-1.27,0.4
				c-0.37,0.27-0.66,0.65-0.87,1.16C283.49,773.61,283.39,774.2,283.39,774.86z"/>
			<path class="st2" d="M299.93,775.52h-5.07c0.01,0.59,0.12,1.11,0.36,1.56c0.23,0.45,0.54,0.79,0.92,1.02
				c0.38,0.23,0.81,0.34,1.27,0.34c0.31,0,0.59-0.04,0.85-0.11c0.26-0.07,0.5-0.19,0.75-0.34c0.24-0.15,0.46-0.32,0.66-0.5
				c0.2-0.18,0.46-0.42,0.79-0.72c0.13-0.11,0.32-0.17,0.57-0.17c0.27,0,0.48,0.07,0.64,0.22c0.16,0.15,0.25,0.35,0.25,0.62
				c0,0.23-0.09,0.51-0.28,0.82c-0.19,0.31-0.46,0.61-0.83,0.9c-0.37,0.29-0.84,0.53-1.4,0.72c-0.56,0.19-1.2,0.29-1.93,0.29
				c-1.66,0-2.96-0.48-3.88-1.42c-0.92-0.95-1.39-2.24-1.39-3.87c0-0.77,0.11-1.48,0.34-2.13c0.23-0.66,0.56-1.22,1-1.69
				c0.44-0.47,0.98-0.83,1.62-1.08c0.64-0.25,1.35-0.37,2.13-0.37c1.01,0,1.88,0.21,2.61,0.64c0.73,0.43,1.27,0.98,1.63,1.66
				c0.36,0.68,0.54,1.37,0.54,2.07c0,0.65-0.19,1.08-0.56,1.27C301.13,775.42,300.6,775.52,299.93,775.52z M294.85,774.04h4.7
				c-0.06-0.89-0.3-1.55-0.72-1.99c-0.42-0.44-0.96-0.66-1.64-0.66c-0.65,0-1.18,0.22-1.59,0.67
				C295.19,772.51,294.94,773.17,294.85,774.04z"/>
			<path class="st2" d="M311.74,776.76c0,0.72-0.17,1.33-0.52,1.84c-0.35,0.51-0.86,0.9-1.54,1.16c-0.68,0.26-1.51,0.39-2.48,0.39
				c-0.93,0-1.73-0.14-2.39-0.43c-0.66-0.28-1.16-0.64-1.47-1.07c-0.32-0.43-0.48-0.86-0.48-1.29c0-0.29,0.1-0.53,0.3-0.73
				c0.2-0.2,0.46-0.3,0.77-0.3c0.27,0,0.48,0.07,0.63,0.2c0.15,0.13,0.29,0.32,0.42,0.56c0.27,0.46,0.59,0.81,0.96,1.04
				c0.37,0.23,0.87,0.34,1.52,0.34c0.52,0,0.94-0.12,1.28-0.35c0.33-0.23,0.5-0.5,0.5-0.79c0-0.46-0.17-0.79-0.52-1
				c-0.35-0.21-0.91-0.41-1.71-0.6c-0.89-0.22-1.62-0.45-2.18-0.7c-0.56-0.24-1.01-0.56-1.34-0.96c-0.34-0.4-0.5-0.89-0.5-1.47
				c0-0.52,0.15-1.01,0.47-1.47c0.31-0.46,0.77-0.83,1.37-1.11c0.6-0.28,1.33-0.41,2.19-0.41c0.67,0,1.27,0.07,1.81,0.21
				c0.54,0.14,0.98,0.33,1.34,0.56c0.36,0.23,0.63,0.49,0.82,0.78c0.19,0.29,0.28,0.56,0.28,0.84c0,0.3-0.1,0.54-0.3,0.73
				c-0.2,0.19-0.48,0.29-0.85,0.29c-0.27,0-0.49-0.08-0.68-0.23c-0.19-0.15-0.4-0.38-0.64-0.68c-0.2-0.25-0.43-0.46-0.69-0.61
				c-0.27-0.15-0.63-0.23-1.08-0.23c-0.47,0-0.86,0.1-1.17,0.3c-0.31,0.2-0.47,0.45-0.47,0.74c0,0.27,0.11,0.5,0.34,0.67
				c0.23,0.17,0.54,0.32,0.92,0.43c0.39,0.11,0.92,0.25,1.6,0.42c0.8,0.2,1.46,0.43,1.97,0.7c0.51,0.27,0.9,0.59,1.16,0.96
				C311.61,775.86,311.74,776.28,311.74,776.76z"/>
			<path class="st2" d="M314.39,768.4c-0.36,0-0.67-0.11-0.93-0.33c-0.26-0.22-0.38-0.53-0.38-0.94c0-0.37,0.13-0.67,0.39-0.91
				c0.26-0.24,0.57-0.36,0.92-0.36c0.34,0,0.63,0.11,0.89,0.32c0.26,0.22,0.39,0.53,0.39,0.94c0,0.4-0.13,0.71-0.38,0.94
				C315.04,768.29,314.74,768.4,314.39,768.4z M315.67,771.08v7.49c0,0.52-0.12,0.91-0.37,1.18c-0.25,0.27-0.56,0.4-0.94,0.4
				c-0.38,0-0.69-0.14-0.93-0.41c-0.24-0.27-0.36-0.66-0.36-1.17v-7.42c0-0.51,0.12-0.9,0.36-1.16c0.24-0.26,0.55-0.39,0.93-0.39
				c0.38,0,0.69,0.13,0.94,0.39C315.55,770.26,315.67,770.62,315.67,771.08z"/>
			<path class="st2" d="M327.03,771.51v7.53c0,0.86-0.09,1.6-0.28,2.22c-0.18,0.62-0.48,1.13-0.88,1.54
				c-0.41,0.4-0.94,0.71-1.59,0.9c-0.66,0.2-1.47,0.29-2.45,0.29c-0.89,0-1.69-0.12-2.39-0.38c-0.7-0.25-1.24-0.57-1.62-0.97
				c-0.38-0.4-0.57-0.8-0.57-1.22c0-0.32,0.11-0.58,0.32-0.77c0.21-0.2,0.48-0.3,0.78-0.3c0.38,0,0.71,0.17,1,0.5
				c0.14,0.17,0.28,0.34,0.43,0.52c0.15,0.17,0.31,0.32,0.49,0.45c0.18,0.12,0.4,0.21,0.65,0.27c0.25,0.06,0.55,0.09,0.87,0.09
				c0.67,0,1.19-0.09,1.56-0.28c0.37-0.19,0.63-0.45,0.78-0.78c0.15-0.33,0.24-0.69,0.26-1.08c0.03-0.38,0.04-1,0.06-1.85
				c-0.4,0.56-0.86,0.98-1.38,1.27c-0.52,0.29-1.14,0.44-1.87,0.44c-0.87,0-1.63-0.22-2.28-0.66c-0.65-0.44-1.15-1.06-1.5-1.86
				c-0.35-0.8-0.52-1.72-0.52-2.76c0-0.78,0.11-1.48,0.32-2.11c0.21-0.63,0.52-1.16,0.91-1.59c0.39-0.43,0.85-0.75,1.36-0.97
				c0.51-0.22,1.08-0.33,1.69-0.33c0.73,0,1.37,0.14,1.91,0.42c0.54,0.28,1.04,0.72,1.5,1.33v-0.35c0-0.45,0.11-0.8,0.33-1.04
				c0.22-0.25,0.51-0.37,0.86-0.37c0.5,0,0.83,0.16,1,0.49C326.95,770.42,327.03,770.89,327.03,771.51z M319.52,774.79
				c0,1.05,0.23,1.85,0.69,2.38c0.46,0.54,1.05,0.81,1.78,0.81c0.43,0,0.84-0.12,1.22-0.35c0.38-0.23,0.7-0.58,0.94-1.04
				c0.24-0.47,0.36-1.03,0.36-1.7c0-1.06-0.23-1.88-0.7-2.47c-0.47-0.59-1.08-0.88-1.84-0.88c-0.74,0-1.33,0.28-1.78,0.85
				C319.74,772.95,319.52,773.76,319.52,774.79z"/>
			<path class="st2" d="M331.15,771.04v0.31c0.46-0.6,0.95-1.04,1.5-1.33c0.54-0.28,1.16-0.42,1.87-0.42c0.68,0,1.3,0.15,1.83,0.45
				c0.54,0.3,0.94,0.72,1.21,1.26c0.17,0.32,0.28,0.66,0.33,1.03c0.05,0.37,0.08,0.84,0.08,1.41v4.82c0,0.52-0.12,0.91-0.36,1.18
				c-0.24,0.27-0.55,0.4-0.93,0.4c-0.39,0-0.7-0.14-0.94-0.41c-0.24-0.27-0.36-0.66-0.36-1.17v-4.32c0-0.85-0.12-1.51-0.36-1.96
				c-0.24-0.45-0.71-0.68-1.42-0.68c-0.46,0-0.88,0.14-1.26,0.41c-0.38,0.28-0.66,0.66-0.84,1.14c-0.13,0.39-0.19,1.11-0.19,2.16
				v3.25c0,0.53-0.12,0.92-0.37,1.18c-0.24,0.26-0.56,0.39-0.94,0.39c-0.37,0-0.68-0.14-0.92-0.41c-0.24-0.27-0.36-0.66-0.36-1.17
				v-7.49c0-0.49,0.11-0.86,0.32-1.11c0.22-0.24,0.51-0.37,0.88-0.37c0.23,0,0.43,0.05,0.62,0.16c0.18,0.11,0.33,0.27,0.44,0.48
				C331.1,770.47,331.15,770.73,331.15,771.04z"/>
			<path class="st2" d="M346.93,775.52h-5.07c0.01,0.59,0.12,1.11,0.36,1.56c0.23,0.45,0.54,0.79,0.92,1.02
				c0.38,0.23,0.81,0.34,1.27,0.34c0.31,0,0.59-0.04,0.85-0.11c0.26-0.07,0.5-0.19,0.75-0.34c0.24-0.15,0.46-0.32,0.67-0.5
				c0.2-0.18,0.46-0.42,0.79-0.72c0.13-0.11,0.32-0.17,0.57-0.17c0.27,0,0.48,0.07,0.65,0.22c0.16,0.15,0.25,0.35,0.25,0.62
				c0,0.23-0.09,0.51-0.28,0.82c-0.18,0.31-0.46,0.61-0.83,0.9c-0.37,0.29-0.83,0.53-1.4,0.72c-0.56,0.19-1.21,0.29-1.93,0.29
				c-1.67,0-2.96-0.48-3.89-1.42c-0.92-0.95-1.39-2.24-1.39-3.87c0-0.77,0.11-1.48,0.34-2.13c0.23-0.66,0.56-1.22,1-1.69
				c0.44-0.47,0.98-0.83,1.61-1.08c0.64-0.25,1.35-0.37,2.13-0.37c1.01,0,1.88,0.21,2.61,0.64c0.73,0.43,1.27,0.98,1.63,1.66
				c0.36,0.68,0.54,1.37,0.54,2.07c0,0.65-0.19,1.08-0.56,1.27C348.13,775.42,347.6,775.52,346.93,775.52z M341.86,774.04h4.7
				c-0.06-0.89-0.3-1.55-0.72-1.99c-0.41-0.44-0.96-0.66-1.64-0.66c-0.65,0-1.18,0.22-1.59,0.67
				C342.19,772.51,341.94,773.17,341.86,774.04z"/>
			<path class="st2" d="M357.5,778.67v-0.26c-0.35,0.4-0.69,0.72-1.03,0.97c-0.34,0.25-0.71,0.44-1.1,0.57
				c-0.39,0.13-0.83,0.2-1.3,0.2c-0.62,0-1.2-0.13-1.72-0.39c-0.53-0.26-0.99-0.64-1.37-1.13c-0.39-0.49-0.68-1.06-0.88-1.72
				c-0.2-0.66-0.3-1.37-0.3-2.14c0-1.62,0.4-2.89,1.19-3.79c0.79-0.9,1.83-1.36,3.12-1.36c0.75,0,1.38,0.13,1.89,0.38
				c0.51,0.26,1.01,0.65,1.5,1.18v-3.83c0-0.53,0.11-0.93,0.32-1.21c0.21-0.27,0.51-0.41,0.91-0.41c0.39,0,0.69,0.12,0.91,0.38
				c0.21,0.25,0.32,0.62,0.32,1.11v11.44c0,0.49-0.11,0.86-0.34,1.11c-0.23,0.25-0.52,0.37-0.88,0.37c-0.35,0-0.65-0.13-0.88-0.38
				C357.61,779.51,357.5,779.14,357.5,778.67z M352.4,774.86c0,0.7,0.11,1.3,0.33,1.79c0.22,0.49,0.52,0.87,0.9,1.12
				c0.38,0.25,0.79,0.38,1.24,0.38c0.46,0,0.87-0.12,1.25-0.36c0.38-0.24,0.68-0.6,0.9-1.09c0.23-0.49,0.34-1.11,0.34-1.84
				c0-0.69-0.11-1.28-0.34-1.78c-0.22-0.5-0.53-0.88-0.91-1.14c-0.38-0.26-0.8-0.39-1.26-0.39c-0.47,0-0.9,0.13-1.27,0.4
				c-0.37,0.27-0.66,0.65-0.87,1.16C352.5,773.61,352.4,774.2,352.4,774.86z"/>
			<path class="st2" d="M368.09,767.23v3.96c0.49-0.51,0.98-0.89,1.49-1.16c0.51-0.27,1.13-0.4,1.88-0.4c0.86,0,1.62,0.2,2.27,0.61
				c0.65,0.41,1.15,1,1.51,1.78c0.36,0.77,0.54,1.7,0.54,2.76c0,0.79-0.1,1.5-0.3,2.16c-0.2,0.66-0.49,1.22-0.87,1.7
				c-0.38,0.48-0.84,0.85-1.38,1.12c-0.54,0.26-1.14,0.39-1.79,0.39c-0.4,0-0.78-0.05-1.13-0.14c-0.35-0.09-0.65-0.22-0.9-0.38
				c-0.25-0.15-0.46-0.31-0.63-0.48c-0.17-0.16-0.4-0.41-0.69-0.74v0.26c0,0.49-0.12,0.86-0.35,1.11c-0.23,0.25-0.53,0.37-0.89,0.37
				c-0.37,0-0.66-0.12-0.88-0.37c-0.22-0.25-0.33-0.62-0.33-1.11v-11.32c0-0.53,0.11-0.92,0.32-1.19c0.21-0.27,0.51-0.4,0.89-0.4
				c0.4,0,0.71,0.13,0.92,0.38C367.99,766.39,368.09,766.76,368.09,767.23z M368.22,774.94c0,1.03,0.24,1.82,0.71,2.38
				c0.47,0.55,1.09,0.83,1.86,0.83c0.65,0,1.21-0.28,1.69-0.85c0.47-0.57,0.71-1.38,0.71-2.44c0-0.68-0.1-1.27-0.29-1.77
				c-0.2-0.49-0.47-0.88-0.84-1.14c-0.36-0.27-0.78-0.4-1.26-0.4c-0.49,0-0.93,0.13-1.32,0.4c-0.39,0.27-0.69,0.66-0.91,1.17
				C368.33,773.63,368.22,774.23,368.22,774.94z"/>
			<path class="st2" d="M379.14,780.47l0.24-0.58l-3.19-8.04c-0.2-0.46-0.29-0.8-0.29-1.01c0-0.22,0.06-0.43,0.17-0.62
				c0.11-0.19,0.27-0.34,0.47-0.46c0.2-0.12,0.41-0.17,0.62-0.17c0.37,0,0.65,0.12,0.85,0.36c0.19,0.24,0.36,0.58,0.5,1.02
				l2.19,6.38l2.08-5.94c0.16-0.48,0.31-0.86,0.45-1.13c0.13-0.27,0.27-0.46,0.42-0.55c0.15-0.1,0.36-0.14,0.63-0.14
				c0.2,0,0.38,0.05,0.57,0.16c0.18,0.1,0.32,0.25,0.42,0.42c0.1,0.18,0.15,0.36,0.15,0.56c-0.03,0.12-0.07,0.29-0.12,0.51
				c-0.06,0.22-0.13,0.45-0.21,0.67l-3.38,8.85c-0.29,0.78-0.58,1.39-0.86,1.83c-0.28,0.44-0.65,0.79-1.11,1.02
				c-0.46,0.24-1.08,0.36-1.86,0.36c-0.76,0-1.33-0.08-1.71-0.25c-0.38-0.17-0.57-0.47-0.57-0.9c0-0.3,0.09-0.53,0.27-0.69
				c0.18-0.16,0.45-0.24,0.8-0.24c0.14,0,0.28,0.02,0.41,0.06c0.16,0.04,0.31,0.06,0.43,0.06c0.3,0,0.53-0.04,0.7-0.13
				c0.17-0.09,0.32-0.24,0.46-0.46C378.81,781.22,378.96,780.9,379.14,780.47z"/>
		</g>
		<g>
			<path class="st2" d="M416.7,769.83h0.62v-0.78c0-0.81,0.1-1.46,0.31-1.94c0.2-0.48,0.56-0.83,1.05-1.04
				c0.49-0.22,1.16-0.33,2.02-0.33c1.52,0,2.27,0.37,2.27,1.11c0,0.24-0.08,0.44-0.24,0.62c-0.15,0.17-0.34,0.26-0.56,0.26
				c-0.1,0-0.28-0.02-0.53-0.06c-0.24-0.03-0.45-0.06-0.62-0.06c-0.47,0-0.77,0.14-0.91,0.41c-0.13,0.28-0.2,0.67-0.2,1.18v0.62
				h0.63c0.99,0,1.48,0.3,1.48,0.9c0,0.42-0.13,0.69-0.39,0.8c-0.26,0.11-0.62,0.17-1.09,0.17h-0.63v6.87c0,0.51-0.12,0.9-0.37,1.17
				c-0.24,0.27-0.55,0.41-0.94,0.41c-0.37,0-0.67-0.13-0.92-0.41c-0.24-0.27-0.36-0.66-0.36-1.17v-6.87h-0.71
				c-0.39,0-0.68-0.08-0.89-0.26c-0.21-0.17-0.31-0.4-0.31-0.68C415.4,770.14,415.83,769.83,416.7,769.83"/>
			<path class="st2" d="M425.19,776.41v2.17c0,0.52-0.13,0.92-0.37,1.18c-0.25,0.27-0.56,0.39-0.94,0.39c-0.38,0-0.69-0.13-0.93-0.4
				c-0.24-0.26-0.36-0.66-0.36-1.17v-7.22c0-1.17,0.42-1.75,1.26-1.75c0.43,0,0.74,0.13,0.93,0.41c0.19,0.27,0.29,0.67,0.32,1.21
				c0.31-0.53,0.62-0.93,0.95-1.21c0.33-0.27,0.76-0.41,1.31-0.41c0.55,0,1.07,0.13,1.59,0.41c0.52,0.27,0.77,0.64,0.77,1.08
				c0,0.31-0.11,0.58-0.33,0.78c-0.22,0.21-0.45,0.31-0.71,0.31c-0.1,0-0.33-0.06-0.69-0.18c-0.37-0.11-0.69-0.17-0.96-0.17
				c-0.38,0-0.69,0.1-0.93,0.3c-0.24,0.21-0.43,0.5-0.56,0.89c-0.13,0.39-0.22,0.87-0.27,1.4
				C425.21,774.97,425.19,775.63,425.19,776.41"/>
			<path class="st2" d="M437.11,775.51h-5.07c0.01,0.59,0.12,1.11,0.35,1.56c0.24,0.45,0.54,0.79,0.92,1.02
				c0.38,0.23,0.8,0.34,1.27,0.34c0.31,0,0.59-0.03,0.85-0.11c0.25-0.07,0.5-0.19,0.75-0.34c0.24-0.15,0.46-0.32,0.66-0.5
				c0.2-0.17,0.47-0.42,0.79-0.72c0.13-0.11,0.32-0.17,0.57-0.17c0.27,0,0.48,0.07,0.65,0.22c0.17,0.15,0.24,0.35,0.24,0.62
				c0,0.24-0.09,0.51-0.27,0.82c-0.19,0.32-0.46,0.62-0.84,0.91c-0.37,0.29-0.84,0.53-1.4,0.71c-0.56,0.19-1.21,0.29-1.93,0.29
				c-1.67,0-2.96-0.47-3.89-1.42c-0.92-0.95-1.39-2.24-1.39-3.87c0-0.77,0.12-1.48,0.35-2.13c0.22-0.66,0.56-1.22,1-1.69
				c0.44-0.47,0.97-0.83,1.61-1.08c0.64-0.25,1.35-0.37,2.13-0.37c1.01,0,1.88,0.21,2.61,0.65c0.72,0.42,1.27,0.98,1.63,1.65
				c0.36,0.68,0.54,1.37,0.54,2.07c0,0.65-0.19,1.07-0.56,1.27C438.32,775.42,437.79,775.51,437.11,775.51 M432.04,774.04h4.7
				c-0.06-0.88-0.3-1.55-0.71-1.99c-0.42-0.44-0.96-0.66-1.64-0.66c-0.65,0-1.18,0.22-1.59,0.67
				C432.38,772.51,432.13,773.17,432.04,774.04"/>
			<path class="st2" d="M447.9,775.51h-5.07c0.01,0.59,0.12,1.11,0.35,1.56c0.23,0.45,0.54,0.79,0.92,1.02
				c0.38,0.23,0.81,0.34,1.27,0.34c0.31,0,0.59-0.03,0.84-0.11c0.26-0.07,0.51-0.19,0.75-0.34c0.24-0.15,0.46-0.32,0.66-0.5
				c0.2-0.17,0.46-0.42,0.79-0.72c0.13-0.11,0.33-0.17,0.57-0.17c0.27,0,0.48,0.07,0.65,0.22c0.17,0.15,0.24,0.35,0.24,0.62
				c0,0.24-0.09,0.51-0.27,0.82c-0.18,0.32-0.46,0.62-0.83,0.91c-0.37,0.29-0.84,0.53-1.4,0.71c-0.56,0.19-1.21,0.29-1.93,0.29
				c-1.67,0-2.96-0.47-3.89-1.42c-0.92-0.95-1.39-2.24-1.39-3.87c0-0.77,0.12-1.48,0.35-2.13c0.23-0.66,0.56-1.22,1-1.69
				c0.44-0.47,0.97-0.83,1.61-1.08c0.64-0.25,1.35-0.37,2.13-0.37c1.01,0,1.88,0.21,2.61,0.65c0.72,0.42,1.27,0.98,1.62,1.65
				c0.36,0.68,0.54,1.37,0.54,2.07c0,0.65-0.19,1.07-0.56,1.27C449.1,775.42,448.58,775.51,447.9,775.51 M442.83,774.04h4.7
				c-0.06-0.88-0.3-1.55-0.71-1.99c-0.42-0.44-0.96-0.66-1.64-0.66c-0.65,0-1.18,0.22-1.59,0.67
				C443.17,772.51,442.91,773.17,442.83,774.04"/>
			<path class="st2" d="M453.58,771.06v0.31c0.49-0.6,0.99-1.04,1.52-1.32c0.52-0.28,1.12-0.43,1.78-0.43c0.8,0,1.54,0.21,2.21,0.62
				c0.67,0.41,1.2,1.02,1.59,1.81c0.39,0.79,0.59,1.73,0.59,2.81c0,0.8-0.11,1.53-0.34,2.2c-0.22,0.67-0.54,1.23-0.93,1.68
				c-0.39,0.45-0.86,0.8-1.39,1.05c-0.54,0.24-1.11,0.36-1.73,0.36c-0.74,0-1.36-0.15-1.87-0.45c-0.5-0.29-0.98-0.73-1.44-1.31v3.89
				c0,1.14-0.42,1.71-1.24,1.71c-0.49,0-0.81-0.15-0.97-0.44c-0.15-0.3-0.23-0.72-0.23-1.29v-11.19c0-0.5,0.11-0.86,0.32-1.11
				c0.21-0.24,0.51-0.36,0.88-0.36c0.37,0,0.67,0.12,0.9,0.37C453.47,770.23,453.58,770.59,453.58,771.06 M458.66,774.83
				c0-0.68-0.11-1.27-0.31-1.76c-0.21-0.49-0.5-0.87-0.87-1.13c-0.37-0.26-0.78-0.4-1.23-0.4c-0.71,0-1.32,0.28-1.81,0.84
				c-0.49,0.57-0.74,1.4-0.74,2.49c0,1.03,0.24,1.83,0.74,2.41c0.49,0.57,1.09,0.86,1.81,0.86c0.43,0,0.83-0.13,1.2-0.37
				c0.37-0.25,0.66-0.63,0.88-1.13C458.55,776.14,458.66,775.54,458.66,774.83"/>
			<path class="st2" d="M463.88,768.4c-0.36,0-0.67-0.11-0.92-0.33c-0.26-0.22-0.39-0.53-0.39-0.94c0-0.37,0.13-0.67,0.4-0.91
				c0.26-0.23,0.57-0.36,0.91-0.36c0.34,0,0.64,0.11,0.89,0.32c0.26,0.22,0.39,0.53,0.39,0.95c0,0.4-0.13,0.71-0.38,0.94
				C464.53,768.28,464.23,768.4,463.88,768.4 M465.16,771.07v7.5c0,0.52-0.12,0.91-0.37,1.17c-0.25,0.27-0.56,0.4-0.94,0.4
				c-0.38,0-0.68-0.13-0.93-0.41c-0.23-0.28-0.36-0.66-0.36-1.17v-7.43c0-0.51,0.12-0.89,0.36-1.15c0.24-0.26,0.55-0.39,0.93-0.39
				c0.38,0,0.69,0.13,0.94,0.39C465.04,770.25,465.16,770.62,465.16,771.07"/>
			<path class="st2" d="M473.52,778.97l-2.28-3.77l-1.41,1.33v2.07c0,0.5-0.13,0.88-0.4,1.15c-0.26,0.27-0.57,0.41-0.91,0.41
				c-0.4,0-0.71-0.13-0.94-0.4c-0.23-0.26-0.34-0.66-0.34-1.17v-11.06c0-0.57,0.11-1.01,0.33-1.31c0.22-0.3,0.54-0.45,0.95-0.45
				c0.4,0,0.71,0.14,0.95,0.41c0.23,0.27,0.35,0.67,0.35,1.2v6.29l2.92-3.06c0.36-0.38,0.63-0.64,0.83-0.78
				c0.19-0.14,0.42-0.21,0.69-0.21c0.33,0,0.59,0.1,0.82,0.31c0.21,0.21,0.32,0.47,0.32,0.77c0,0.38-0.35,0.89-1.05,1.52l-1.38,1.26
				l2.66,4.18c0.19,0.31,0.34,0.54,0.42,0.71c0.08,0.16,0.13,0.32,0.13,0.46c0,0.41-0.11,0.73-0.34,0.98
				c-0.22,0.24-0.52,0.35-0.89,0.35c-0.32,0-0.56-0.08-0.73-0.26C474.05,779.72,473.81,779.41,473.52,778.97"/>
			<path class="st2" d="M479.16,780.15c-0.39,0-0.73-0.13-1.01-0.38c-0.28-0.25-0.43-0.61-0.43-1.06c0-0.39,0.14-0.72,0.41-1
				c0.27-0.28,0.61-0.42,1.01-0.42c0.4,0,0.74,0.14,1.02,0.41c0.28,0.28,0.42,0.61,0.42,1c0,0.45-0.14,0.81-0.42,1.06
				C479.87,780.02,479.54,780.15,479.16,780.15"/>
			<path class="st2" d="M492.06,776.94c0,0.32-0.1,0.67-0.29,1.03c-0.19,0.37-0.49,0.72-0.89,1.05c-0.39,0.33-0.89,0.6-1.5,0.8
				c-0.6,0.2-1.28,0.31-2.03,0.31c-1.61,0-2.86-0.47-3.76-1.4c-0.9-0.94-1.35-2.19-1.35-3.76c0-1.07,0.2-2.01,0.62-2.82
				c0.41-0.81,1-1.45,1.78-1.89c0.78-0.45,1.72-0.67,2.79-0.67c0.67,0,1.29,0.1,1.85,0.29c0.56,0.2,1.03,0.45,1.42,0.76
				c0.39,0.31,0.69,0.64,0.89,0.99c0.21,0.35,0.31,0.68,0.31,0.99c0,0.31-0.11,0.57-0.34,0.79c-0.24,0.21-0.52,0.32-0.84,0.32
				c-0.22,0-0.4-0.06-0.54-0.17c-0.14-0.11-0.3-0.29-0.48-0.54c-0.32-0.48-0.65-0.84-1-1.08c-0.34-0.24-0.78-0.36-1.31-0.36
				c-0.76,0-1.38,0.3-1.85,0.9c-0.47,0.6-0.7,1.42-0.7,2.45c0,0.49,0.06,0.94,0.18,1.35c0.12,0.41,0.29,0.76,0.52,1.04
				c0.23,0.29,0.5,0.5,0.83,0.65c0.32,0.15,0.68,0.23,1.06,0.23c0.52,0,0.97-0.12,1.34-0.36c0.38-0.24,0.7-0.61,0.99-1.1
				c0.16-0.29,0.33-0.52,0.51-0.68c0.18-0.16,0.41-0.25,0.68-0.25c0.32,0,0.58,0.12,0.79,0.36
				C491.95,776.41,492.06,776.67,492.06,776.94"/>
			<path class="st2" d="M503.25,774.88c0,0.77-0.12,1.48-0.36,2.14c-0.25,0.65-0.59,1.21-1.05,1.68c-0.46,0.47-1,0.83-1.63,1.08
				c-0.64,0.25-1.35,0.38-2.14,0.38c-0.79,0-1.49-0.13-2.12-0.38c-0.62-0.25-1.17-0.61-1.63-1.08c-0.46-0.48-0.81-1.03-1.05-1.68
				c-0.23-0.64-0.35-1.35-0.35-2.13c0-0.79,0.12-1.51,0.36-2.16c0.24-0.65,0.59-1.21,1.04-1.67c0.45-0.46,0.99-0.82,1.63-1.07
				c0.64-0.25,1.35-0.37,2.12-0.37c0.78,0,1.5,0.12,2.14,0.38c0.64,0.25,1.18,0.61,1.64,1.08c0.46,0.47,0.8,1.03,1.04,1.67
				C503.13,773.39,503.25,774.1,503.25,774.88 M500.64,774.88c0-1.06-0.23-1.88-0.7-2.47c-0.46-0.6-1.09-0.89-1.87-0.89
				c-0.51,0-0.96,0.13-1.34,0.39c-0.39,0.26-0.68,0.65-0.89,1.16c-0.21,0.51-0.32,1.11-0.32,1.8c0,0.68,0.1,1.27,0.31,1.77
				c0.21,0.51,0.5,0.9,0.89,1.17c0.39,0.27,0.83,0.4,1.35,0.4c0.78,0,1.41-0.3,1.87-0.89C500.41,776.74,500.64,775.92,500.64,774.88
				"/>
			<path class="st2" d="M513.14,775.07v3.45c0,0.55-0.12,0.95-0.37,1.23c-0.25,0.27-0.57,0.41-0.98,0.41
				c-0.39,0-0.71-0.14-0.95-0.41c-0.25-0.28-0.37-0.68-0.37-1.23v-4.13c0-0.65-0.02-1.16-0.06-1.52c-0.05-0.35-0.17-0.66-0.36-0.88
				c-0.2-0.24-0.51-0.35-0.93-0.35c-0.85,0-1.41,0.29-1.68,0.88c-0.27,0.58-0.41,1.41-0.41,2.51v3.5c0,0.54-0.12,0.95-0.36,1.22
				c-0.25,0.27-0.57,0.41-0.96,0.41c-0.4,0-0.72-0.14-0.97-0.41c-0.25-0.28-0.38-0.69-0.38-1.22v-7.42c0-0.49,0.11-0.86,0.33-1.11
				c0.23-0.26,0.53-0.38,0.89-0.38c0.36,0,0.65,0.12,0.89,0.36c0.24,0.24,0.35,0.57,0.35,0.98v0.25c0.45-0.54,0.93-0.93,1.44-1.18
				c0.52-0.26,1.08-0.39,1.71-0.39c0.65,0,1.21,0.13,1.68,0.39c0.47,0.26,0.85,0.66,1.16,1.18c0.44-0.53,0.91-0.92,1.41-1.18
				c0.5-0.26,1.05-0.39,1.66-0.39c0.71,0,1.32,0.14,1.83,0.42c0.51,0.28,0.89,0.68,1.15,1.2c0.22,0.47,0.33,1.21,0.33,2.22v5.06
				c0,0.55-0.12,0.95-0.37,1.23c-0.25,0.27-0.58,0.41-0.98,0.41c-0.39,0-0.71-0.14-0.96-0.41c-0.25-0.28-0.38-0.69-0.38-1.22v-4.36
				c0-0.56-0.02-1-0.07-1.34c-0.05-0.34-0.18-0.62-0.38-0.85c-0.21-0.23-0.53-0.34-0.95-0.34c-0.34,0-0.67,0.11-0.97,0.31
				c-0.31,0.2-0.55,0.48-0.72,0.81C513.24,773.18,513.14,773.96,513.14,775.07"/>
		</g>
		<g>
			<path class="st2" d="M392.43,774.25c0,0,0-0.01,0-0.02C392.43,774.24,392.43,774.25,392.43,774.25z"/>
			<path class="st2" d="M392.57,775.08C392.57,775.08,392.57,775.08,392.57,775.08c-0.05-0.24-0.09-0.47-0.12-0.7
				C392.48,774.61,392.52,774.85,392.57,775.08z"/>
			<path class="st2" d="M393.42,777.49c-0.01-0.01-0.01-0.02-0.02-0.03C393.41,777.46,393.42,777.48,393.42,777.49z"/>
			<path class="st2" d="M393.34,777.33c-0.02-0.04-0.04-0.09-0.07-0.13C393.3,777.24,393.32,777.28,393.34,777.33z"/>
			<path class="st2" d="M392.81,776.01c0.13,0.4,0.28,0.79,0.46,1.16C393.08,776.79,392.93,776.4,392.81,776.01
				C392.81,776.01,392.81,776.01,392.81,776.01z"/>
			<path class="st2" d="M402.47,764.31c0.5,0,0.87,0.04,1.29,0.11l0.12-0.76c0,0-1.17-0.36-2.71-0.23l-0.12-0.42
				c0.48-0.1,0.84-0.53,0.84-1.03c0-0.58-0.47-1.05-1.06-1.05c-0.58,0-1.06,0.47-1.06,1.05c0,0.51,0.36,0.93,0.84,1.03l0.13,0.46
				c-1.63,0.22-2.94,0.86-2.94,0.86l0.23,0.71c0.99-0.33,1.85-0.53,2.62-0.61C401.43,764.35,402.01,764.31,402.47,764.31z"/>
			<path class="st2" d="M393.4,768.17L393.4,768.17c0.04-0.06,0.08-0.1,0.12-0.15l-0.31-0.23l-0.49-0.36
				c-0.03,0.04-0.8,0.74-1.4,2.05c-0.03-0.04-0.06-0.08-0.09-0.12c-0.18-0.2-0.44-0.3-0.76-0.29c0,0-0.01,0-0.01,0
				c-0.2,0-0.34-0.07-0.43-0.15c0.09-0.11,0.14-0.26,0.14-0.41c0-0.37-0.3-0.67-0.67-0.67c-0.37,0-0.67,0.3-0.67,0.67
				c0,0.37,0.3,0.67,0.67,0.67c0.06,0,0.11-0.01,0.17-0.02c0.16,0.18,0.43,0.34,0.81,0.33c0.2,0,0.34,0.05,0.44,0.16
				c0.11,0.12,0.15,0.3,0.16,0.43c0,0,0,0,0,0c-0.44,1.19-0.31,2.67-0.31,2.67l1.06,0.04c0.02-0.54,0.1-1.48,0.37-2.23
				C392.72,769.12,393.38,768.21,393.4,768.17z"/>
			<path class="st2" d="M411.67,765.2c-0.37,0-0.67,0.3-0.67,0.67c0,0.06,0.01,0.11,0.02,0.17c-0.18,0.17-0.34,0.43-0.34,0.81
				c0,0.2-0.05,0.34-0.15,0.44c-0.08,0.08-0.19,0.12-0.3,0.14c-0.79-1.1-1.76-1.78-1.76-1.78l-0.76,0.81
				c0.57,0.52,1.16,1.17,1.73,1.99c0.39,0.56,0.8,1.29,1.14,2.01l1.02-0.49c0,0-0.47-1.16-1.13-2.19c0.11-0.04,0.23-0.1,0.33-0.19
				c0.2-0.18,0.3-0.44,0.29-0.76c0-0.21,0.07-0.35,0.15-0.44c0.11,0.09,0.26,0.14,0.41,0.14c0.37,0,0.67-0.3,0.67-0.67
				C412.34,765.5,412.04,765.2,411.67,765.2z"/>
			<path class="st2" d="M409.01,774.4c-1.41,0.69-3.73,1.59-6.78,2.02c-1.2,0.17-2.36,0.23-3.43,0.23c-1.39,0-2.62-0.1-3.56-0.22
				c-1.08-0.14-1.92-0.3-2.43-0.42c0.12,0.39,0.27,0.78,0.45,1.16c0,0.01,0.01,0.02,0.01,0.03c0.02,0.04,0.04,0.09,0.07,0.13
				c0.02,0.04,0.04,0.09,0.06,0.13c0.01,0.01,0.01,0.02,0.02,0.03c0.3,0.57,0.67,1.09,1.08,1.55c1.44,1.58,2.91,1.82,2.92,1.83
				l0.02,0l0.02,0.01c0.01,0,1.31,0.42,3.29,0.42c1.95,0,3.85-0.39,5.67-1.17c1.35-0.69,2.62-1.74,3.25-2.67
				c0.49-0.72,0.84-1.49,1.05-2.29c0.11-0.43,0.2-1.11,0.15-1.83C410.49,773.61,409.86,773.99,409.01,774.4z"/>
			<path class="st2" d="M393.86,768.51c-0.04,0.06-0.65,0.92-1.14,2.25c-0.36,1-0.35,2.44-0.35,2.46v0c0,0.34,0.02,0.68,0.06,1.01
				c0,0.01,0,0.01,0,0.02c0,0.04,0.01,0.08,0.02,0.13c0.03,0.23,0.07,0.47,0.12,0.7c0.7,0.18,4.88,1.15,9.55,0.5
				c2.93-0.41,5.15-1.27,6.5-1.93c1.12-0.54,1.84-1.04,2.12-1.24c-0.28-1.03-1.04-2.64-1.74-3.65c-2-2.87-4.17-3.6-5.28-3.78
				c-0.42-0.07-0.76-0.11-1.24-0.11c-0.45,0-1,0.04-1.74,0.11c-0.74,0.08-1.57,0.27-2.53,0.6c-1.35,0.45-2.57,1.16-3.53,2.05
				l-0.03,0.03C394.5,767.8,394.2,768.07,393.86,768.51z M406.13,767.84c0.96,0,1.74,0.78,1.74,1.74c0,0.96-0.78,1.74-1.74,1.74
				c-0.96,0-1.74-0.78-1.74-1.74C404.38,768.62,405.17,767.84,406.13,767.84z M397.89,767.77c1.56,0,2.82,1.26,2.82,2.82
				c0,1.56-1.26,2.81-2.82,2.81c-1.55,0-2.82-1.26-2.82-2.81C395.07,769.03,396.33,767.77,397.89,767.77z"/>
		</g>
	</g>
</g>
<g id="objects">
	<path class="st3" d="M30.89,736V631.5h4.75v-11.25h15.5v11.25h6.25V620h9v-8h15.25v8h2.5v11.5h4.75V652h6.25v8h3.75v45h4.5v-27.25
		h2.25V670h10.25v6.5h2.5v-5.75h4.25v-4h9.5v10.75h4.75V654h16.75v20h2.75v-71h4v-20.25h8.5V603h3.25v101.75h3.25v-71h3V624h12v9.5
		h4.5v-15.25l2.25-2.25l2.88,2.88v14.62h3.12v21h5.25v8.75h4V655h6.5v-6h15.5v59.25h8.75v-4.75h7.75v-6h13.25v7.5h6.5v20h8.25
		v-19.75h11.75v-6.5h6.75V684h18.25v-37h4.25v-4h7.75v-6.25h5.75V632l4.25-2.5l2.75,2.5v-5.25l3-3l3.75,3.25v63h4.75v-21.25h17v8.5
		h3.75v-6h10v-12h21.25v-10.5h22.5v10.75h5.5v-11l3.75-2.75l3.5,2.75v4.25h12.25v7h2.5v44.75h5.25v-85.75h4.75v-6.25h-2V602l4.5-3
		l4.25,3v10.5h-2v6h6.25V608h14v10.5h3.5v3.5h-1.75v91h3.25v-35.5h20.75v-6.75h9.25v6.5h2.25v3.25h-1.5v46.25h4.75V677h20v-5.75h9.5
		v6h7.75v-51h3V617h4v-7l3-3l3.12,3.12v5.38h4.88v10.75h11v51.25v31.75h20.25V591.5h3.5v-3.62h7.25v-13.62h4v-8l3-3l3.62,3.62v7.38
		h3.62v13.62h4v48.38h10.25V618.5h2.75V607h12v11h3.75v-17.75l2.75-2.75l2.88,2.88v16.88h3.88v35.25h4.75v7.5h14.75v-25.5h15.75V622
		h19.75v9.5h5.25V687h3.5v-70.5h11.25V605h12v10.75V736C770.14,736,30.89,735.75,30.89,736z"/>
	<path class="st3" d="M770.51,372.45v-47.38h-1.88V294.7h-3.38v-7.75h-8.5v-19.5h-5.62V254.7h3v-2.88h-20.25V232.7h-6v-7.62h2v-12.5
		l-4.12-3l-5.12,3.12v12.5h2.25v7.5h-5.25v-13.25h-14.5v13.25h-3.62v74.12h-20.5v26.5h-5.38v6.5h-10.38v-25.75v-2.25h-2.62v-5.88
		h-8.88v5.75h-3.75v-3h-1.75v-3.62l-3.88-2.25l-3.5,1.75l-3-1.75l-3.25,1.38v7.75h-1.62v28.25h-2.12v-14.62h-2.75v-31h-3.25v-6.75
		h-12v6.88h-12.25v48h-5.62v-17.5h-2.25v-30.62h-4v-6.62h-3.62v-4.62l-3.12-1.62l-3.88,1.75v3.5h-4.12v7.62h-7.25v1.75h-3v15.5
		h-2.62v-80.25h-4.25v-3.38h-9.75v-8.75h-5.5v-5.38l-4.5-2.38l-4.5,2.25v3.25h-4.38v11.75h-4.88v49.5h-9.63v8h-7.62v-9.62
		l-17.75,10.62h-4.25v28h-9.12v2.88h-5v6.12h-3.38v-5.75h-11v21.12h-2.62v-27.75h-1.88V294.7h-2.12v-12.5l-3.5-4.62v-8.38
		l-3.25-1.62l-3.62,2v8l-2.5,4.75v-8.25h-12.62v8.12h-1.75v29.62h-2v13.12h-2.62v-13.12h-1.38v-17.25h-3.38v-6.38h-12.38v6.38
		l-12.25-0.12v8.62l-2.12,1.38v7.38h-6.25v-61.25h-3v-10.62h-11.88v10.5h-12.38v62.5h-4.12v-43.62h1.12v-2.88h-4.5v-9.38h-4.88
		v-5.75l-5-2.25l-4.5,2.12v5.88h-6.25v9.75h-9.62v2.62h-4.5v48.62h-2.75v-23.62h-4.88v-4.25h1.88v-6.88l-3.38-1.88l-3.75,1.88v6.88
		h1.88v4.38h-4.5v-8.12h-4.88v-34.38h-13v-11h-12.38v11h-2.12v9.12h-8.37v9.88h-2.12v-48.75h-8.12v-12.38l-5-4.88l-4.75,4.88v12.5
		h-7.62v3.25h-3.62v114.12h-18v-27.75h-2.62v-49.12h-3.5v-2.5h-7.25v-10.38h-4.25v-5.69l-3.25-2.38l-3.38,2.38v7.06h-3.75v9.25
		h-5.12v83.75h-3.12v-30.5h0.75v-2.12h-3v-5.75h-9.38v5.75h-5.25v-6.06c0,0-0.44-2.94-3.69-2.94s-3.62,1.94-3.62,1.94
		s-0.62-1.81-3.94-1.81c-2.88,0-3.12,2.81-3.12,2.81v6.19h-2.12v1.75h1.12v44.12h-3.75V313.7h1.12v-1.75h-2.88v-6.12h-9.13v5.38
		h-5.62v-6.25c0,0-0.62-2-3.5-2c-2.56,0-3.5,2-3.5,2s-0.5-2.06-3.44-2.06c-2.25,0-3.31,1.94-3.31,1.94v7h-1.5v28.12h-2.62v-84.12h1
		v-2.62h-4.12v-9.75H78.26v9.62h-14.5v86.88h-6.25v-43.5h1v-2h-3.5v-7.25H44.14v7.25h-4.75v-4.12h1.25v-7l-3.25-2l-4,2.25v6.88h1.25
		v4.12h-4.13v77.75h739.88"/>
	<path class="st3" d="M30.51,553.78v-126h24.33v66h9.33v-12h24.33v57.67h6.33v-63.67h27v49.67h9.33V408.12h13.33v-19.67h13.67v19.33
		h3.33v98.67h3.33v-36.67h30.33v59.67h7.67v-7.33h32.67v-46h31v45h13.67v-6.33h15.67v6h8.33v28.67h6.33v-42h29.33v-52.67h17v-10.33
		h6.33v-7.33h9v16.67h3.67v67.33h9.33v-7.33h8.67v-82.33h26.67v3.33h2v101.33h25v-43l7-7h20.67l7.5,7.5v41.5h4.5v-73.33h15v-8.33h14
		v7h3.67v74h5.33v-52.33h28.67v39h7.67v-57.67h12v5.33h14v52h4.67v-73.33h17v-10h16v9.33h3.33v85.33h4.67v-38.67h29.67v12h4v-37
		h28.33v76h4.33v-60.67h32.67v40.33h5.33v-46.67h11.33v-9h14.67v7.67h4v45.33h3v32.33C770.51,553.78,30.51,554.12,30.51,553.78z"/>
	<path class="st4" d="M30.8,184.67V88.33h7.67V76.67H50.8V88h12.67v89.33h5h5.33v-24h13V146h13.33v6.33h5.33V140h21.33v-7.33h8.67
		V139h5.33V99.33h5.67V83l3.33-2.67l3.67,2.67v14.33h3.67v-7.67h16.08v7.83h4.5V165h2.25v-54.25h10.25V100.5h15.5v8.25h2.5v70.75
		h38.75V167h3V52.75h4V48.5h7.5V34h8.75v2h5.75v11.75h4v91h8.25v-7h9.25V128h16.25v47.25h8.75v-52.5h10.5V114h14.5v7.25h4.25v58.25
		h8V97.25h9V85h15.5v11.25h2.5v43.25h6.5v-17.75h6.75V110.5l4.5-2.75l3.75,2.75v10h13v25.25h3v-64h28.25v92.75h10V153h5.75v-14.25
		h5.25V128h10.75v11.5h11.75v38.75h5.75v-56.5h27.5v56.5h10v-124h12.25V35h14v18.75h3.25V178.5h2.5V122h30.5v53h9.5v-8.75h16.5v4
		h12.25v11h5.25V121l8.62-8.62h15.62V163h6.75v9.5h35.75v7h5.25v-26.75h13.75v-7h13.75V151h5.5V95.75h6.75v-5.5h5.75h7.5v93.5
		C770.22,183.75,30.89,184.58,30.8,184.67z"/>
</g>
</svg>
